<?xml version="1.0" encoding="utf-8"?>
<!-- Generator: Adobe Illustrator 25.4.1, SVG Export Plug-In . SVG Version: 6.00 Build 0)  -->
<svg version="1.1" id="Layer_1" xmlns="http://www.w3.org/2000/svg" xmlns:xlink="http://www.w3.org/1999/xlink" x="0px" y="0px" width="30"
	 viewBox="0 0 50 50" style="enable-background:new 0 0 50 50;" xml:space="preserve">
<style type="text/css">
	.st0{fill:#FFFFFF;}
</style>
<g>
	<path class="st0" d="M3.1,45.4c0.3-0.6,0.7-1.1,1.2-1.6c0.5-0.5,1-0.9,1.6-1.3c0.6-0.4,1.2-0.7,1.7-1c0.1-0.1,0.5-0.3,1.1-0.6
		c0.6-0.3,1.2-0.6,1.9-0.9c0.7-0.3,1.3-0.7,1.9-1c0.6-0.3,1-0.5,1.1-0.6c0.1,0,0.2-0.2,0.5-0.4c0.2-0.2,0.5-0.4,0.7-0.7
		c0.3-0.3,0.5-0.5,0.7-0.8c0.2-0.2,0.4-0.4,0.5-0.6c0.1-0.1,0.4-0.5,0.8-1.1s1-1.3,1.6-2.1c0.6-0.8,1.1-1.5,1.7-2.3
		c0.6-0.7,1-1.3,1.3-1.8c0.6-0.8,1-1.4,1.3-1.9c0.3-0.5,0.4-1.2,0.4-2h-7.7c0.8-1.2,1.7-2.1,2.8-2.8c1.1-0.7,2.3-1,3.8-1.1
		c-0.1-0.2-0.3-0.6-0.6-1.2c-0.3-0.6-0.5-1-0.7-1.2c-0.4-0.8-1-1.8-1.8-3s-1.4-2.4-2.2-3.5c-0.7-1.2-1.3-2.2-1.8-3
		c-0.5-0.8-0.8-1.3-0.8-1.3l-1.3-1.2L13.5,6c0.2-0.1,0.5-0.3,0.8-0.6c0.4-0.2,0.7-0.5,1.1-0.8c0.4-0.3,0.7-0.5,1.1-0.7
		c0.3-0.2,0.5-0.3,0.6-0.4c0.1,0,0.2-0.1,0.3-0.1c0.1,0,0.2,0,0.3,0.1c0.1,0,0.2,0.1,0.3,0.3c0.1,0.1,0.2,0.2,0.3,0.3
		c0.3,0.4,0.7,1.1,1.3,2.2c0.6,1,1.3,2.1,2,3.3s1.4,2.2,2,3.2c0.6,1,1.1,1.7,1.3,2.1c0.4,0.6,0.8,1.2,1.4,1.9
		c0.6,0.7,1.1,1.3,1.6,1.8c0.1,0,0.2-0.1,0.3-0.3c0.1-0.2,0.2-0.3,0.3-0.3c0.1-0.2,0.4-0.5,0.7-0.9c0.3-0.4,0.6-0.8,0.9-1.3
		c0.3-0.4,0.6-0.9,0.9-1.3c0.3-0.4,0.5-0.7,0.6-0.8c0.1-0.1,0.3-0.4,0.5-0.9c0.3-0.4,0.6-0.9,0.9-1.4c0.3-0.5,0.6-1,0.9-1.5
		c0.3-0.5,0.5-0.8,0.6-1c0.1-0.1,0.2-0.4,0.4-0.7c0.2-0.3,0.2-0.5,0.2-0.6c0-0.1,0.1-0.2,0.1-0.3c0,0,0-0.1,0-0.2c0-0.1,0-0.1,0-0.2
		c-1.5-0.9-3-1.5-4.8-1.8C31.2,4.9,32,4.3,33,3.5c1-0.7,1.9-1.1,2.8-1.1c0.1,0,0.2,0,0.3,0c0.2,0,0.3,0,0.3,0.1c0,0,0.2,0.1,0.4,0.2
		c0.2,0.1,0.5,0.3,0.8,0.4c0.3,0.1,0.5,0.3,0.8,0.4c0.2,0.1,0.4,0.2,0.5,0.2c0,0,0.2,0,0.5,0.1c0.3,0.1,0.6,0.1,1,0.2
		c0.4,0.1,0.8,0.1,1.2,0.2c0.4,0,0.7,0.1,0.9,0.1h0.3c1.1,0,2.1-0.4,2.8-1.2c0.7-0.8,0.9-1.8,0.5-3c0.5,0.3,0.8,0.5,1,0.8
		c0.2,0.2,0.3,0.6,0.3,1c0,1-0.4,1.9-1.2,2.5S44.3,5.5,43.2,6c-1.1,0.5-2.2,0.8-3.4,1.1c-1.2,0.3-2.1,0.5-2.7,0.7
		c0,0-0.1,0.1-0.3,0.3c-0.2,0.1-0.3,0.2-0.4,0.3c-0.3,0.4-0.7,1.1-1.4,2c-0.6,0.9-1.3,1.9-2,2.9c-0.7,1-1.3,2-2,2.9
		c-0.6,0.9-1,1.5-1.3,1.9c-0.3,0.4-0.4,0.7-0.5,0.8c-0.1,0.2-0.1,0.3-0.1,0.5c0,0.2,0.1,0.4,0.1,0.6c0,0.2,0.1,0.6,0.1,1.1h8.9
		c-0.8,0.9-1.7,1.7-2.8,2.4c-1.1,0.7-2.2,1.3-3.2,1.9c0.1,0.4,0.4,0.9,0.8,1.7c0.4,0.8,0.9,1.6,1.5,2.5c0.5,0.9,1.1,1.9,1.8,2.9
		c0.6,1,1.2,1.9,1.9,2.7c0.6,0.8,1.2,1.5,1.7,2c0.5,0.5,1,0.8,1.3,0.8c0.4,0,0.8-0.1,1.1-0.3c0.3-0.2,0.7-0.3,1.1-0.3h0.3
		c-0.4,0.4-0.8,0.9-1.2,1.4c-0.5,0.5-1,1-1.5,1.4c-0.6,0.4-1.1,0.8-1.7,1.1c-0.6,0.3-1.2,0.4-1.8,0.4c-0.5,0-0.8,0-1-0.1
		c-0.2,0-0.4-0.2-0.6-0.6l-10.2-15c-0.1,0-0.2-0.1-0.3-0.1c0,0-0.2,0-0.3,0.1c0,0-0.1,0.1-0.3,0.2c-0.2,0.2-0.3,0.3-0.3,0.4
		c-0.4,0.5-0.9,1.3-1.7,2.3c-0.8,1.1-1.6,2.2-2.4,3.3c-0.8,1.1-1.6,2.2-2.3,3.2c-0.7,1-1.2,1.6-1.4,2c-0.1,0.1-0.2,0.3-0.3,0.6
		c-0.1,0.3-0.2,0.5-0.3,0.6c1.2,0.3,2.4,0.6,3.6,1c1.1,0.4,2.4,0.7,3.6,0.9c-0.6,0.8-1.4,1.6-2.3,2.2c-0.9,0.6-1.9,0.9-2.9,0.9
		c-1.1,0-2.2-0.1-3.2-0.4c-1-0.2-2.1-0.4-3.2-0.4c-0.2,0-0.4,0-0.7,0s-0.6,0-0.9,0c-0.3,0-0.5,0-0.8,0H8.8c-0.2,0-0.5,0.1-0.9,0.3
		c-0.4,0.2-0.8,0.3-1.3,0.5c-0.4,0.2-0.9,0.4-1.3,0.6s-0.7,0.3-0.8,0.4c-0.3,0.4-0.5,0.7-0.6,1c-0.1,0.3-0.1,0.7-0.1,1.2
		c0,0.1,0,0.3,0,0.5c0,0.2,0,0.3,0,0.4c0.1,0.2,0.4,0.5,0.8,1c0.5,0.5,0.8,0.7,1,0.8c0,0.1-0.1,0.2-0.3,0.3
		c-0.1,0.1-0.2,0.2-0.3,0.3C5,50,4.9,50,4.9,50c-0.1,0-0.2,0-0.3-0.1c-0.2-0.2-0.6-0.5-1-1c-0.4-0.5-0.7-0.7-0.8-0.8
		c0,0,0-0.2,0-0.4c0-0.2,0-0.4,0-0.5C2.7,46.6,2.8,46,3.1,45.4z M11.8,9.1H11c0-0.6,0.2-1,0.7-1.3V9.1z"/>
</g>
</svg>
