<?xml version="1.0" encoding="utf-8"?>
<!-- Generator: Adobe Illustrator 25.4.1, SVG Export Plug-In . SVG Version: 6.00 Build 0)  -->
<svg version="1.1" id="Layer_1" xmlns="http://www.w3.org/2000/svg" xmlns:xlink="http://www.w3.org/1999/xlink" x="0px" y="0px"
	 viewBox="0 0 395.4 150.8" style="enable-background:new 0 0 395.4 150.8;" xml:space="preserve">
<style type="text/css">
	.st0{fill:#FFFFFF;}
</style>
<g>
	<path class="st0" d="M75.5,131.4l-5.3,3c0-1.3-0.4-2.4-1.1-3.5L68.4,115v-3.5l0.4-2.8l-0.2-8.6c0-4.4,0.4-7.2,1.2-8.3
		c2.4-2.9,3.7-4.8,3.9-5.6l-0.5-0.5c-1.2,0.1-2.9,1.3-4.9,3.5h-0.2l-0.2-0.2c-1.1-2.1-3.4-4.3-6.7-6.7V82l0.2-0.9L61,80.7
		c-2.1,0.4-3.9,1.2-5.3,2.6c-3.7,2.5-7.8,5.7-12.2,9.7v-0.2c0-5.3-1.8-8.8-5.3-10.6h-1.6c-2.7,0-7.3,2.8-13.9,8.3
		c-1.9,1.9-4.4,5.2-7.6,9.7c-2.2,3.3-3.4,6.4-3.5,9.5v2.6h-0.9c-0.8,0-1.8,0.2-3,0.7c-3.9,2-6.2,4.1-6.9,6.3v0.2l0.4,0.4h0.2
		c1.8-1.1,2.9-1.6,3.4-1.6h0.2c1.1,0,2.6,1.1,4.4,3.4c0.4,0,1.1-0.2,1.9-0.7h0.2v2.1l1.1,10.1v1.9l-0.2,1.6c0,0.6-0.9,1.1-2.8,1.4
		c-6.3,3.3-9.5,6.1-9.5,8.5l0.5,0.5h0.4l4.9-1.9l4.2,1.2h0.2c6.6,0,11-2.9,13.2-8.6c1.4-2.3,2.1-9.8,2.1-22.4h0.2l0.2-0.2h2.6
		l2.8,0.4h4.1l-0.2,5.6l-1.6,13.4c0.1,0.5,0.2,0.7,0.5,0.7h0.2l0.9-0.2c0,1.3,2,3.7,6,7.2h0.5c0.9,0,2.3-0.9,4.1-2.6
		c6.3-3.7,10-6.9,10.9-9.5l-0.4-0.5c-1.2,0.4-3.9,2-7.9,4.6h-0.4v-0.2c2.2-1.5,3.4-3.5,3.4-5.8l-0.2-7.2l0.4-5.6v-1.1
		c3.3-3,4.9-5,4.9-6.2v-0.2c0-0.3-0.4-0.5-1.1-0.5h-3l1.2-12.3v-4.8l-0.4-1.1l0.5-0.5c1.3,2.2,2.8,3.9,4.4,4.9
		c1.3,1.8,2,2.6,2.3,2.6c0.4,0,1.1-0.3,2.1-0.9v0.2c-1.4,1.6-2.1,5.3-2.1,11.3l0.2,8.1l-0.4,2.8v4.1l0.2,1.8
		c0.2,10.2,0.6,15.3,1.2,15.3c0.3,2.2,0.7,3.4,1.4,3.4l1.2-0.2c6.8-3.4,10.8-6.8,12-10.4v-0.2l-0.4-0.4H75.5z M24.3,94.7
		c-0.9,1.8-1.7,6.5-2.5,14.1v0.4l0.2,2.3l-0.7,10.4c0,10.2-0.5,15.9-1.4,17.1c0,0.8-1.4,1.3-4.2,1.4l-1.4-0.2V140
		c4.1-3.9,6.2-7.8,6.2-11.5v-2.5c-0.8-7.6-1.2-12.5-1.2-14.6c0.2-6.9,0.5-10.4,0.9-10.4c0-1.6,1.5-4.2,4.6-7.8L24.3,94.7z M36,107.9
		h-0.2c-4.1,0-7.4,1.2-9.7,3.5h-0.2c0.2-4.5,0.5-6.7,0.7-6.7c0.7-7.9,1.4-11.8,2.1-11.8c0.4-2.8,1.4-4.2,3.2-4.2l0.9,2.3
		c1.9,2.5,2.8,5.5,2.8,9v2.6l0.4,2.8V107.9z M47.1,132.1l-0.2,0.9c-2.9-3.2-4.7-4.8-5.3-4.8l1.6-12.5l2.6-0.2H48
		C47.4,122.5,47.1,128,47.1,132.1z M49.7,92.7v7.6c-0.4,4.9-0.6,7.4-0.9,7.4h-5.3l0.4-5.3v-3.9c0-1-0.1-1.8-0.4-2.3l6.2-4.4h0.2
		L49.7,92.7z"/>
	<path class="st0" d="M107.1,133.8c-0.5-3.9-0.8-8.6-1.1-14.3v-11.3c0-2.1,0.6-4.9,1.8-8.6l-0.4-0.5c-0.8,0-1.6,0.5-2.6,1.4
		l-4.8-0.9l-11.3-3.9H88c-1.2,0-2.6,1.2-4.2,3.5L82,98.7c-0.9,0-1.5,0.7-1.8,2.1v0.9l4.9,11.8c-0.8,0.3-1.2,0.7-1.2,1.2l0.5,1.4
		l-0.5,0.4c-4.2,6.7-6.3,11.7-6.3,15.2v1.8c0,0.5,0.5,1.7,1.4,3.7c0.8,2.3,2.1,4.3,4.1,5.8h0.7c1.1-0.5,3.6-2.4,7.6-5.6
		c2.7-1.7,4.9-3.8,6.7-6.3h0.4v3.2c0.4,5.4,0.9,8.1,1.4,8.1l2.3-0.7c4.5-3,7-5.7,7.6-8.1l-0.4-0.5
		C108.9,132.9,108.1,133.2,107.1,133.8z M98.1,128.5l-8.3,5.8c-0.9,0-2.3-2.6-4.2-7.8v-1.2c0-2.1,0.7-4.8,2.1-7.9
		c2.9,1.2,6.4,2.4,10.4,3.5V128.5z M98.1,115v1.6c-3.3-1.2-5.9-2-7.9-2.5l0.4-0.7c0-2.3-0.9-5.3-2.8-9v-0.2l0.2,0.2
		c5.1,2.2,8.8,3.4,11.1,3.4h0.4C98.5,110.3,98.1,112.7,98.1,115z"/>
	<path class="st0" d="M127.6,134c0-0.4-0.1-0.5-0.4-0.5l-0.2-0.2c-2.1-1.3-3.6-2.5-4.4-3.5l0.2-0.7l-0.2-4.1l0.4-7.1l-0.4-2.1
		l0.2-2.6v-2.5l-0.4-3.4V104l-0.4-9.9v-0.7c0-0.9,0.5-3,1.4-6.2c2.8-3.1,4.2-4.8,4.2-5.1v-0.7l-0.5-0.5h-0.5c-1.7,0-4.3,1.9-7.8,5.6
		c-2.1-2.1-4.3-3.2-6.3-3.4c-1.9,0.6-2.8,1.4-2.8,2.6v0.7c0.5,0.5,0.7,1,0.7,1.4c1.9,2.2,3.2,4.6,4.1,7.2l-0.5,2.6l0.5,12.9v3.7
		l0.4,3.4v1.6l-1.1,10.1l-2.1,6v0.4l0.2,0.2c1.5,0,2.8,0.8,3.7,2.3c2.8,1.8,4.6,3.4,5.6,4.8c0.6,0,1.4-0.4,2.5-1.1
		c5.2-4.6,7.8-7.7,7.8-9.2v-0.2l-0.4-0.5C130.1,132.3,129,132.9,127.6,134z"/>
	<path class="st0" d="M149,133.8c-0.5,0-1.5,0.5-3,1.6c0-0.5-1.4-2-4.1-4.4c0.7-1,1.1-1.9,1.1-2.6v-4.1l-0.2-4.2
		c0.2-1.6,0.4-3.9,0.4-7.1v-10.5c1.1-1.7,1.6-2.8,1.6-3.2v-0.4c-2.7-2.8-4.5-4.2-5.3-4.2h-0.7c-3.4,2.1-5.1,4-5.1,5.8
		c0,1,0.8,2.4,2.3,4.2c-0.5,2-0.7,7.6-0.7,9v5.8l-0.4,7.8l0.2,4.1c-1.4,1.7-2.1,2.9-2.1,3.5c0,0.9,0.3,1.5,0.9,1.9l3.4,3
		c1.7,2.1,2.6,3.2,2.8,3.2h0.4c0.6,0,1.1-0.2,1.6-0.5c5.2-3.9,7.8-6.7,7.8-8.3l-0.4-0.4H149z"/>
	<path class="st0" d="M183,133.3c-0.4,0-1.1,0.4-2.1,1.1c-0.5-0.6-0.9-1.6-1.2-2.8c-0.9-2-2.2-5.3-3.7-10.1
		c-1.7-4.2-2.8-6.3-3.2-6.3l1.4-2.1c4.2-4.5,6.3-7.3,6.3-8.5c0-0.5-0.2-0.8-0.7-1.1l-5.6-7.2h-0.4l-0.5,0.2c-0.8,0-2.8,1.5-6,4.4
		l-6.9,7.9l-0.2-7.1v-8.6c0-2.4,0.2-4.5,0.7-6.5c2.2-2,3.4-3.5,3.4-4.4v-0.4l-0.4-0.5c-1.6,0-4.1,1.7-7.2,5.1c-2.4-2-4-3-4.8-3h-0.7
		c-1.1,0-2,0.8-2.6,2.5V86c0,0.4,0.2,0.9,0.7,1.4c2.4,3.5,3.5,5.8,3.5,6.9c-0.3,0.3-0.5,2.1-0.5,5.3v3.4c0,9.8,0.2,16.4,0.5,19.8
		v6.9c0,1.4-0.1,2.3-0.4,2.8c-1.4,2-2.2,3.4-2.5,4.2l0.4,0.5l1.4-0.4c0.9,0,1.6,0.2,1.9,0.7c2.3,1.6,4.2,3.4,5.6,5.3l1.9-0.7
		c3.3-3,6.2-5.3,8.8-6.9h0.2c0.3,1.1,0.6,1.7,0.9,1.9c1.2,3.9,2.2,5.8,3,5.8l1.6-0.4c4.4-3.1,7.1-6,7.9-8.6v-0.4l-0.4-0.4H183z
		 M166,133.8c-1.1-1.2-3-2.7-5.6-4.6c2-1.9,3.8-3.8,5.3-5.8c1.6,3.4,2.7,6.1,3.2,8.1L166,133.8z M160.8,124.3v-8.8l-0.2-2.6
		c2.1-2,4.4-4.6,7.1-7.8c1.3,2,2.8,3.9,4.4,5.6L160.8,124.3z"/>
	<path class="st0" d="M220.2,138.5c3.9-5,7.2-9.7,9.9-14.1c1.2-1.1,1.8-9,1.8-23.6l-0.2-1.4c0.5-2.7,1.1-4.6,1.8-5.6
		c0-1.9,2.1-4.3,6.2-7.1c1.4-0.6,2.9-2.2,4.2-4.8c0-0.4-0.6-0.7-1.8-0.9c-5.7,1.8-9.6,2.6-11.8,2.6c-3.9-0.5-6.9-0.7-9-0.7
		c-1.1,0-2.5,0.4-4.2,1.2c-4.1,3.3-6.6,6.3-7.2,9l0.4,0.4h0.4c0.6,0,1.3-0.4,2.1-1.2c1.4-1.6,2.3-2.5,2.6-2.5c1.1,0,3.8,0.4,7.9,1.1
		h2.3c1.7,0,3.9-0.4,6.3-1.2h0.2l-3,3.4c-3,5.5-4.7,10.1-5.1,13.8c-1-0.5-1.9-0.7-2.6-0.7c-4.6,0-9,2.8-13.2,8.3v0.5l0.2,0.2
		l0.7-0.2c2.2-2,4.6-3,7.2-3c1.5,0,2.9,0.5,4.4,1.4c1.8,1.4,2.9,2.1,3.2,2.1v4.4h-0.7c-1.8,0-3.6,0.4-5.5,1.2
		c-3.9,2.3-5.8,4.2-5.8,5.8v0.5l0.4,0.4h0.4c1.3-1.6,3.6-2.5,6.9-2.5l2.1,0.4l1.9,1.1v0.5c0,1.1-1.4,3.6-4.2,7.4
		c-4.9,6.2-7.4,10.6-7.6,13.2v0.7c0.3,1.5,1,2.3,2.1,2.3h0.7c2.5-1.3,3.7-2.5,3.7-3.7v-0.4c-0.9-1.6-1.4-2.8-1.4-3.5V143
		L220.2,138.5z"/>
	<path class="st0" d="M270.3,96.8c0-0.9-0.5-1.9-1.4-3c-5.3-7.9-9-12-11.3-12.2h-0.2c-1.4,0-4.3,0.9-8.6,2.8
		c-2.5,0.9-5.2,3.1-8.1,6.5c-2.2,4.9-3.4,8.6-3.5,11.1c0,9.6-0.4,15.3-1.2,17.1c-3.4,7.2-6,11.4-7.8,12.5c-3,1.6-5,3.1-5.8,4.2v0.5
		c0,0.2,1,0.5,3,0.9l2.3-0.2h1.1c2.3,0.3,4.9,0.9,7.8,1.9c3.2,0.6,5.9,2.1,8.3,4.2c1.1,0,2.8-0.7,5.1-2.1c8.5-4.4,13.3-6.6,14.5-6.9
		c3.1-2.3,4.6-4,4.6-5.1l-0.2-0.9c0.8-1,1.2-2.7,1.2-5.3l-0.2-10.4c0.4-0.6,0.5-1.2,0.5-1.8v-0.2c0-0.2-0.6-0.8-1.9-1.8
		c-3.3-2-5.8-3-7.6-3c1.2-1.4,3-2.4,5.3-3C268,101.8,269.4,99.8,270.3,96.8z M262,130.2l-0.2,0.2l-10.1,4.9l-2.5-1.9l0.4-6
		c0-0.3,1.5-0.5,4.4-0.5c2.7,0.1,4.1,0.4,4.4,0.7c2.4,0.4,3.5,0.7,3.5,1.1V130.2z M262,118l-0.2,4.1v0.2l-2.5-0.4h-2.5
		c-2,0-4.3,0.5-7.1,1.6v-1.9l0.2-2.6c1.4,0.7,3.1,1.1,5.3,1.1L262,118z M250.2,113.9v-0.4c0.4,0,1.3-0.5,2.5-1.6
		c1,0,3.5,1.1,7.4,3.2l-0.4,0.4h-3.9L250.2,113.9z M261.5,102.1c-1.4,0.8-2.4,1.5-2.8,2.1c-3.2,1.8-5.9,4-8.1,6.7l0.5-10.4l-0.2-2.5
		v-3c0-0.8-0.4-1.2-1.2-1.2c-1.4,0-2.3,5.9-2.8,17.6l-1.2,20.1v0.2h-0.2l-7.2-1.9c-1.8,0-3.4,0.2-4.8,0.5h-0.2
		c6.4-8.2,10.3-15.1,11.5-20.6c0-10,0.4-16.1,1.2-18.5l6.5-2.6l0.7,1.9l8.3,11.3V102.1z"/>
	<path class="st0" d="M302.5,133.8c-0.5-3.9-0.8-8.6-1.1-14.3v-11.3c0-2.1,0.6-4.9,1.8-8.6l-0.4-0.5c-0.8,0-1.6,0.5-2.6,1.4
		l-4.8-0.9l-11.3-3.9h-0.7c-1.2,0-2.6,1.2-4.2,3.5l-1.8-0.5c-0.9,0-1.5,0.7-1.8,2.1v0.9l4.9,11.8c-0.8,0.3-1.2,0.7-1.2,1.2l0.5,1.4
		l-0.5,0.4c-4.2,6.7-6.3,11.7-6.3,15.2v1.8c0,0.5,0.5,1.7,1.4,3.7c0.8,2.3,2.1,4.3,4.1,5.8h0.7c1.1-0.5,3.6-2.4,7.6-5.6
		c2.7-1.7,4.9-3.8,6.7-6.3h0.4v3.2c0.4,5.4,0.9,8.1,1.4,8.1l2.3-0.7c4.5-3,7-5.7,7.6-8.1l-0.4-0.5
		C304.3,132.9,303.5,133.2,302.5,133.8z M293.5,128.5l-8.3,5.8c-0.9,0-2.3-2.6-4.2-7.8v-1.2c0-2.1,0.7-4.8,2.1-7.9
		c2.9,1.2,6.4,2.4,10.4,3.5V128.5z M293.5,115v1.6c-3.3-1.2-5.9-2-7.9-2.5l0.4-0.7c0-2.3-0.9-5.3-2.8-9v-0.2l0.2,0.2
		c5.1,2.2,8.8,3.4,11.1,3.4h0.4C293.9,110.3,293.5,112.7,293.5,115z"/>
	<path class="st0" d="M333.5,101.7h-0.4L324,95c-3.1-2.2-5.7-4.1-7.6-5.8c-1.6-1.5-2.6-2.6-3.2-3.4c-0.7-2.2-1.1-3.3-1.4-3.4h-0.4
		c-3.4,1.9-5.1,4.1-5.1,6.9v0.4c0,0.8,0.2,1.8,0.7,3c0,0.4,0.8,1.7,2.3,3.9c0,0.3,2,2,6,5.3v0.2c-5.1,4.1-7.8,7.1-7.9,9
		c0.3,0,0.7,4.4,1.2,13.2v2.1l-0.7,6.9c-1.3,1.5-1.9,2.6-1.9,3.4c0,0.4,0.4,0.5,1.1,0.5c0,0.7,0.1,1.1,0.4,1.1
		c0.6,0,1.4-0.4,2.5-1.1c4.1,1.1,6.9,2.1,8.5,3l3.7,2.8c1.1,0,2.5-0.9,4.2-2.6l0.5,0.4h0.4l1.4-0.5c3.9-2.9,5.8-5.3,5.8-7.2V113
		l0.4-4.9c0-1.8,0.8-4.3,2.3-7.6v-0.4l-0.4-0.4C335.9,99.8,334.9,100.4,333.5,101.7z M326.5,120.2v12.5c-3.6-2-6.7-3-9.5-3l-1.4,0.2
		l1.1-9.7v-3.2l-0.7-11.1c0-0.3,0.7-0.9,2.1-1.9l1.1,0.5c4.5,3.5,7.3,5.4,8.3,5.8C327,111.8,326.7,115.1,326.5,120.2z"/>
	<path class="st0" d="M357.5,136.1c-1.9-1.6-3.3-2.6-4.2-3l-3.5-1.9v-2.8c0-1.4,0.1-2.3,0.4-2.8c0.3-0.5,5.4-4.9,15.5-13.1
		c0-0.5-0.1-0.7-0.4-0.7l-1.2-3c-4.2-6.8-7.3-10.2-9.2-10.2l-1.8,1.1l-10.1,4.1c-2.8,2.4-4.5,3.5-4.9,3.5l0.4,0.9
		c2.1,0,3.2,1.4,3.2,4.1v15.2c0,3.1-0.2,5.1-0.7,6c-2.2,2.3-3.4,3.9-3.4,4.8v0.2l0.4,0.4h0.4l1.8-0.7c1.5,0.3,3.2,0.8,4.9,1.6
		c2.8,2.4,4.6,3.5,5.5,3.5h1.2c1.3-0.4,3.4-1.5,6.3-3.4c5.3-3.7,7.9-6.3,7.9-7.9l-0.4-0.5C364.9,131.2,362.2,132.8,357.5,136.1z
		 M349.9,105.4h0.2l6.9,9.5l-6.3,5.3h-0.2l0.2-0.9v-1.1l-0.5-4.4l-0.2-8.3V105.4z"/>
	<path class="st0" d="M389.9,96.6h-0.4c-0.9,0-4.2,2.6-9.9,7.8v-1.1c-1.9-4-3.4-6-4.6-6c-0.7,0.1-1.7,0.5-2.8,1.1
		c-4.6,3.1-6.9,5.5-6.9,7.1c0,0.4,0.1,0.5,0.4,0.5c0.5,0,1.4-0.4,2.6-1.2h0.2c2.2,3.1,3.4,5.7,3.4,7.6l-0.2,2.8l0.2,2.6l-0.4,12
		c-2.1,2.1-3.2,3.5-3.2,4.4c1.8,1.4,4.8,4.3,8.8,8.8c0.7,0,2.5-1,5.5-3c4.2-3.1,6.7-5.9,7.4-8.3l-0.5-0.5c-0.6,0-2.4,1.1-5.3,3.2
		c-0.4-0.1-1.6-1.2-3.4-3.2c-0.9-1.5-1.4-3.9-1.4-7.1l0.4-13.6l-0.2-2.8l3.5-2.5l4.6,4.6h0.4c0.4,0,1.1-0.3,1.9-0.9
		c3.2-2.6,4.9-4.7,5.3-6.5L389.9,96.6z"/>
	<path class="st0" d="M57.2,69.3c7.5,2.5,12.4,3.9,14.7,4.2c2.4,0.3,4.3,0.2,5.8-0.4c4.7-3,8.2-5.9,10.5-8.6
		c4.2-5.1,6.6-11.5,7.2-19.3c0.1-1.9-0.5-4.6-1.9-8.2c-1.4-3.6-2.6-5.4-3.6-5.6c-0.6-0.1-1,0.4-1.2,1.3c-0.4,1.2-0.8,2-1.4,2.6
		c-0.5,0.6-0.8,1-0.8,1.2c-0.2,1.3,0.4,3.7,1.8,7.1c1.7,4,2.7,6.5,2.8,7.5C87.3,59.5,80,64.9,69.5,67.4c-1.6,0.4-3.8,0.5-6.6,0.1
		c-3.3-0.4-5.7-0.5-6.9-0.5c-0.1,0-0.2,0-0.2,0.2c0,0.3,0.2,0.7,0.6,1.2C56.7,68.9,57,69.2,57.2,69.3z"/>
	<path class="st0" d="M108.1,64.1c6.2,1,11.2-0.4,14.9-4.1c3.1-3.1,4.8-7.2,5.1-12.3c1.4,4.6,2.6,9.1,3.5,11.1
		c2.2,4.3,4.7,6.9,7.7,7.3l0,0c0,0,0,0,0.1,0c0,0,0,0,0,0l0,0c3.8,0.5,6.3-0.2,7.5-2c1.7-2.6,2.7-5.6,3.2-8.9
		c0.2-4.4-0.2-7.9-1.2-10.4c-0.8-2.2-1.8-3.1-2.7-2.8c-1.4,2.3-2.5,4.1-3.1,5.5c0,1.3,0.4,2.7,1.1,4c0.9,1.7,1.5,3.1,1.8,4.4
		c-0.5,1.6-2.3,2.2-5.5,1.8c-3.4-0.7-4.9-4-8.3-11.9c-2.1-5-3.7-12.4-5.2-17.7c-0.5-1.7-0.9-2.6-1.4-2.6c-0.4-0.1-0.8,0.7-1.2,2.4
		c-0.2,1-0.4,2.5-0.6,4.3c0.5,1.9,1,4.6,1.4,8.1c0.4,3.5,0.5,5.7,0.4,6.8c-0.4,3.1-2.2,5.4-5.5,6.9c-2.9,1.3-6.1,1.7-9.7,1.3
		c-2-0.3-3.2-0.8-3.5-1.7c-0.1-0.4,0-2,0.4-4.6c0.1-0.5-0.1-0.8-0.4-0.8c-0.3,0-0.6,0.3-1,0.8c-1.9,2.8-2.9,5.3-3.1,7.5
		c-0.2,1.8,0.2,3.5,1.3,5C105.2,62.9,106.5,63.8,108.1,64.1z"/>
	<path class="st0" d="M139.5,76.9c-0.2-0.2-0.4-0.3-0.7-0.3c-0.6-0.1-1.4,0.6-2.2,2.1c-1.3,2.1-2,3.3-2.3,3.6
		c-0.2,0.3-0.3,0.5-0.4,0.8c-0.1,1,0.9,2,3.1,3.2c2.2,1.1,3.5,1.5,4,1.2c1.3-2,2.4-3.8,3.1-5.3c0.4-1,0.1-1.9-0.8-2.7
		C143.1,79.3,141.8,78.4,139.5,76.9z"/>
	<g>
		<path class="st0" d="M232.6,40.1c0.7-1.1,1.6-2.7,2.6-4.9c0.2-0.5,0.4-1,0.4-1.4c0.2-1.4-0.6-2.4-2.3-3.1
			c-0.3-0.1-2.2-0.6-5.7-1.6c0-0.2,0-0.5-0.1-0.8c-0.1-0.3-0.2-0.6-0.2-0.7c0.1-0.4,1.1-2,3.2-4.6l0.2-1.5c-1.5,0.9-3,2.4-4.5,4.3
			c-1.5,2-2.3,3.9-2.6,5.8c-0.3,1.8,0.5,3.3,2.2,4.5c1.2,0.9,2.5,1.7,3.8,2.6c-0.5,0.6-3.2,1.8-8.1,3.4c-4.4,1.6-6.5,2.7-6.4,3.3
			l12.4-0.3C229.6,43.5,231.3,41.9,232.6,40.1z"/>
		<path class="st0" d="M268.1,16.9c-0.9-0.7-1.4-1.3-1.7-1.8c-0.5-1.6-0.7-2.8-0.8-3.5c-0.2-0.4-0.4-0.6-0.7-0.6
			c-0.7-0.1-1.5,1.3-2.4,4.1l-1.6,5.1c0.7,1,1.2,2.4,1.4,4.2c0.5,14.9,1,26.4,1.5,34.4c-0.1,0.8-0.8,1.5-2,2
			c-1.2,0.5-2.4,0.6-3.7,0.5c-2.8-1.1-4.6-6.2-5.4-15.3c-0.4-4.6-0.6-13.4-0.5-26.5c0-10.5-0.3-17-1.1-19.4
			c-1.3,2.6-2.2,5.8-2.8,9.8c-1.2,8.5-1.5,20-1,34.6c-1.2,3.4-2.3,5.5-3.4,6.3c-3.9,2.7-9.8,4.9-17.8,6.5
			c-7.4,1.4-12.6,1.8-15.7,1.2c-5.7-1.2-9.7-3.7-12.1-7.6c-1.5-2.5-2.1-4.8-1.8-6.7c0.4-2.8,1.3-5.5,2.8-8.1
			c0.5-0.9,0.8-1.5,0.9-1.8l-1.7,0.7c-1.8,1.3-3.4,3.8-4.8,7.6c-0.9,2.5-1.5,4.4-1.7,5.6c-0.6,4.4,0.1,8.2,2.2,11.4
			c2.6,4.1,7.2,6.5,13.9,7.3c11.3,1.4,22.6-1,33.7-7.4c1.7-1.4,3.1-2.9,4.3-4.6c0.8-1.4,1.7-2.9,2.5-4.3c0.2,5.8,0.7,10,1.5,12.5
			c1.3,3.9,3.5,6.1,6.7,6.6l0,0c0,0,0,0,0,0c0,0,0,0,0.1,0l0,0c5,0.3,8.2-2.6,9.5-8.7c0.2-1,0.4-2.1,0.6-3.2
			c0.6-4.3,0.7-9.8,0.4-16.5c-0.5-5.2-0.9-10.4-1.3-15.6c1.2-2.2,2.1-3.9,2.5-5.2c0.2-0.7,0.4-1.5,0.6-2.5
			C269.4,18,268.9,17.6,268.1,16.9z"/>
	</g>
	<path class="st0" d="M299.5,68.1c1.5,1.6,3.7,3,6.8,4.2c1.4,0.4,2.8,0.8,4.3,1.2c1.2-0.3,2.4-1.3,3.6-3c1.2-1.7,2-3.3,2.2-4.8
		c0.4-2.6,0.3-4.9-0.3-6.9c-0.7-2.8-2.3-4.4-4.6-4.7c-3.1-0.4-6,2.1-8.6,7.4c-0.4,0-0.7,0-0.9-0.1c-0.2,0.2-2.1,1.8-5.7,4.8
		c-1.5,1.3-3.6,1.9-6.5,1.8c-2.9-0.4-4.7-1.9-5.4-4.4c-0.5-1.7-0.7-7.1-0.6-16.3c0.1-6.7,0.2-13.4,0.4-20.1c0.1-8-0.2-13.5-0.8-16.7
		c-0.1-0.4-0.2-0.7-0.4-0.8c-0.3,0-0.7,1-1.4,3.1c-1,3.1-1.6,4.7-1.7,4.9c0.2,4.8,0.3,8.1,0.4,9.8c0.1,7.9-0.1,16.9-0.4,27
		c-0.3,9.3,0,15.1,1,17.5c0.9,2.4,3.5,3.9,7.7,4.5c3-0.1,5.2-1.2,6.7-3.3C297.5,70.2,298.9,68.5,299.5,68.1z M306.2,61
		c0.5-0.5,1.1-0.7,1.8-0.6c1.5,0.1,2.4,0.7,2.7,1.9c0.2,0.3,0.3,1.4,0.4,3.3c-2.4-0.6-4.5-1.8-6.2-3.4
		C305.2,61.8,305.7,61.4,306.2,61z"/>
</g>
</svg>
