<?xml version="1.0" encoding="utf-8"?>
<!-- Generator: Adobe Illustrator 26.0.2, SVG Export Plug-In . SVG Version: 6.00 Build 0)  -->
<svg version="1.1" id="logo" xmlns="http://www.w3.org/2000/svg" xmlns:xlink="http://www.w3.org/1999/xlink" x="0px" y="0px"
	 viewBox="0 0 135 55" style="enable-background:new 0 0 135 55;" xml:space="preserve">
<style type="text/css">
	.st0{enable-background:new    ;}
	.st1{fill:#FFFFFF;}
</style>
<g class="st0">
	<path class="st1" d="M3.884,39.301h1.235c0.135,0,0.263,0,0.385,0s0.223,0.027,0.304,0.081c0.122,0.081,0.206,0.189,0.253,0.324
		s0.104,0.277,0.172,0.425c0.108,0.257,0.206,0.514,0.293,0.77c0.088,0.257,0.186,0.514,0.293,0.77
		c0.094,0.243,0.183,0.489,0.263,0.739c0.081,0.25,0.175,0.496,0.284,0.739c0.081,0.188,0.155,0.385,0.223,0.587
		c0.067,0.202,0.142,0.398,0.223,0.587c0.243,0.607,0.472,1.219,0.688,1.833c0.216,0.614,0.445,1.225,0.688,1.832
		c0.027,0.067,0.05,0.135,0.071,0.202c0.02,0.068,0.043,0.136,0.071,0.203c0.122,0.297,0.236,0.597,0.344,0.9
		c0.108,0.304,0.223,0.604,0.344,0.901c0.054,0.121,0.108,0.267,0.162,0.435c0.054,0.169,0.142,0.268,0.263,0.294
		c0.054,0.014,0.094,0.01,0.122-0.01c0.027-0.021,0.054-0.044,0.081-0.071c0.067-0.067,0.118-0.142,0.152-0.223
		s0.071-0.169,0.111-0.263c0.108-0.284,0.216-0.57,0.324-0.861c0.108-0.29,0.216-0.576,0.324-0.86
		c0.027-0.067,0.054-0.138,0.081-0.212c0.027-0.074,0.054-0.152,0.081-0.233c0.108-0.256,0.206-0.517,0.293-0.779
		c0.088-0.264,0.186-0.529,0.294-0.8c0.324-0.782,0.624-1.572,0.901-2.369c0.276-0.796,0.577-1.586,0.901-2.368
		c0.108-0.271,0.212-0.547,0.314-0.831c0.101-0.283,0.206-0.56,0.313-0.83c0.054-0.107,0.104-0.242,0.152-0.404
		s0.118-0.276,0.213-0.345c0.081-0.054,0.186-0.094,0.314-0.121c0.128-0.027,0.273-0.044,0.435-0.051s0.324-0.007,0.486,0
		c0.162,0.007,0.311,0.01,0.446,0.01c0.121,0,0.246,0,0.375,0c0.128,0,0.226,0.027,0.293,0.081c0.122,0.068,0.189,0.189,0.203,0.365
		c0.013,0.175,0.02,0.364,0.02,0.566v2.228v8.463v1.701c0,0.148,0.003,0.297,0.01,0.445c0.006,0.148-0.024,0.263-0.091,0.344
		c-0.041,0.081-0.101,0.132-0.182,0.152c-0.081,0.02-0.176,0.044-0.284,0.07h-0.324c-0.176,0-0.337-0.003-0.486-0.01
		c-0.149-0.007-0.257-0.064-0.324-0.172c-0.027-0.041-0.044-0.085-0.05-0.132c-0.007-0.047-0.024-0.104-0.051-0.172v-0.223
		c-0.014-0.081-0.017-0.176-0.01-0.284c0.007-0.107,0.01-0.209,0.01-0.304v-1.134v-5.973c0-0.337,0-0.678,0-1.022
		c0-0.344-0.007-0.678-0.02-1.002c0-0.135-0.007-0.283-0.021-0.445c-0.014-0.162-0.088-0.243-0.223-0.243v0.021
		c-0.095,0.026-0.172,0.114-0.233,0.263c-0.061,0.148-0.111,0.277-0.152,0.385c-0.095,0.229-0.182,0.463-0.263,0.698
		c-0.081,0.236-0.176,0.47-0.283,0.699c-0.027,0.067-0.048,0.128-0.061,0.182c-0.014,0.055-0.034,0.115-0.061,0.183
		c-0.108,0.243-0.199,0.489-0.273,0.739s-0.166,0.496-0.273,0.738c-0.095,0.203-0.175,0.409-0.243,0.618
		c-0.068,0.209-0.142,0.415-0.223,0.617c-0.27,0.635-0.513,1.272-0.729,1.913c-0.216,0.642-0.453,1.272-0.709,1.894
		c-0.108,0.243-0.202,0.485-0.283,0.729s-0.169,0.486-0.263,0.729c-0.068,0.148-0.132,0.286-0.192,0.415
		c-0.061,0.128-0.179,0.219-0.354,0.273c-0.027,0.013-0.058,0.017-0.091,0.01c-0.034-0.007-0.071-0.003-0.111,0.01
		c-0.041,0.014-0.088,0.018-0.142,0.011s-0.108-0.011-0.162-0.011c-0.135,0-0.271,0-0.405,0s-0.243-0.033-0.324-0.101
		c-0.108-0.067-0.186-0.166-0.233-0.294c-0.047-0.128-0.105-0.26-0.172-0.395c-0.108-0.271-0.212-0.55-0.313-0.841
		c-0.102-0.29-0.206-0.569-0.314-0.84c-0.108-0.243-0.199-0.489-0.273-0.739c-0.074-0.249-0.166-0.496-0.273-0.739
		c-0.311-0.756-0.601-1.519-0.871-2.287c-0.27-0.77-0.56-1.532-0.871-2.288c-0.108-0.284-0.212-0.57-0.313-0.86
		c-0.102-0.291-0.206-0.57-0.314-0.841c-0.068-0.148-0.125-0.293-0.172-0.436c-0.048-0.142-0.119-0.266-0.213-0.374
		c-0.014-0.027-0.027-0.044-0.041-0.051c-0.014-0.007-0.027-0.017-0.041-0.03H5.281c-0.014,0.014-0.027,0.023-0.041,0.03
		c-0.014,0.007-0.027,0.017-0.041,0.03c-0.027,0.067-0.041,0.142-0.041,0.223s-0.014,0.162-0.041,0.243v0.223
		c-0.027,0.081-0.034,0.169-0.02,0.264c0.013,0.094,0.02,0.188,0.02,0.283v1.093v6.155v1.6c0,0.148-0.003,0.297-0.01,0.445
		s-0.044,0.264-0.111,0.345C4.93,53.643,4.812,53.7,4.643,53.707c-0.169,0.007-0.348,0.01-0.537,0.01c-0.095,0-0.179,0-0.253,0
		c-0.075,0-0.146-0.013-0.213-0.04c-0.175-0.054-0.273-0.169-0.293-0.345c-0.021-0.175-0.03-0.377-0.03-0.607v-2.349v-8.099v-1.903
		c0-0.148-0.003-0.304-0.01-0.466c-0.007-0.161,0.023-0.29,0.091-0.385c0.054-0.08,0.155-0.147,0.304-0.202
		c0.027-0.013,0.057-0.017,0.091-0.01S3.856,39.314,3.884,39.301z"/>
	<path class="st1" d="M32.168,52.664c0.027,0.067,0.061,0.148,0.101,0.243s0.071,0.192,0.091,0.294c0.02,0.101,0.02,0.195,0,0.283
		c-0.021,0.088-0.078,0.151-0.172,0.192c-0.067,0.027-0.148,0.04-0.243,0.04c-0.095,0-0.189,0-0.284,0c-0.189,0-0.388,0-0.597,0
		c-0.209,0-0.375-0.033-0.496-0.101c-0.135-0.081-0.233-0.223-0.293-0.426c-0.061-0.202-0.125-0.385-0.192-0.547
		c-0.149-0.351-0.284-0.715-0.405-1.093c-0.122-0.378-0.257-0.749-0.405-1.113c-0.041-0.122-0.078-0.236-0.111-0.345
		c-0.034-0.107-0.074-0.209-0.122-0.304c-0.047-0.094-0.111-0.175-0.192-0.243c-0.081-0.067-0.189-0.121-0.324-0.162
		c-0.068-0.026-0.145-0.036-0.233-0.03c-0.088,0.007-0.179,0.011-0.273,0.011h-3.827c-0.122,0-0.256-0.004-0.405-0.011
		c-0.149-0.006-0.291-0.003-0.425,0.011s-0.26,0.033-0.375,0.061s-0.199,0.081-0.253,0.162c-0.108,0.135-0.186,0.287-0.233,0.455
		c-0.047,0.169-0.105,0.341-0.172,0.517c-0.135,0.311-0.26,0.635-0.375,0.972c-0.115,0.338-0.24,0.661-0.375,0.972
		c-0.027,0.081-0.058,0.173-0.091,0.273c-0.034,0.102-0.071,0.206-0.111,0.314c-0.041,0.107-0.084,0.205-0.132,0.293
		s-0.098,0.152-0.152,0.192c-0.108,0.081-0.253,0.125-0.436,0.132c-0.182,0.007-0.375,0.01-0.577,0.01
		c-0.108,0-0.213-0.003-0.314-0.01s-0.186-0.037-0.253-0.091c-0.068-0.041-0.105-0.102-0.111-0.183c-0.007-0.081,0-0.165,0.02-0.253
		c0.021-0.088,0.047-0.176,0.081-0.264c0.034-0.087,0.064-0.151,0.091-0.192c0.188-0.432,0.357-0.86,0.506-1.285
		c0.148-0.426,0.311-0.854,0.486-1.286c0.122-0.297,0.236-0.59,0.344-0.881c0.108-0.29,0.223-0.583,0.344-0.88
		c0.405-0.973,0.79-1.954,1.154-2.946c0.364-0.992,0.749-1.98,1.154-2.967c0.148-0.351,0.287-0.708,0.415-1.072
		c0.128-0.365,0.267-0.723,0.415-1.073c0.067-0.148,0.132-0.314,0.192-0.496c0.061-0.183,0.152-0.314,0.273-0.395
		c0.054-0.055,0.142-0.095,0.263-0.122c0.027-0.013,0.057-0.017,0.091-0.01c0.033,0.007,0.064,0.003,0.091-0.011
		c0.243,0,0.526-0.003,0.851-0.01c0.324-0.007,0.56,0.044,0.708,0.152c0.108,0.08,0.192,0.212,0.253,0.395
		c0.061,0.182,0.125,0.348,0.192,0.496c0.135,0.311,0.256,0.621,0.365,0.932c0.108,0.311,0.229,0.62,0.364,0.931
		c0.108,0.271,0.213,0.547,0.314,0.83c0.101,0.284,0.212,0.561,0.334,0.83c0.405,0.985,0.793,1.981,1.164,2.986
		c0.371,1.006,0.766,2.002,1.185,2.987c0.054,0.121,0.098,0.236,0.132,0.344c0.033,0.108,0.071,0.223,0.111,0.344
		c0.148,0.352,0.293,0.709,0.435,1.073C31.875,51.956,32.02,52.313,32.168,52.664z M27.835,47.744
		c0.122-0.04,0.199-0.107,0.233-0.202s0.041-0.199,0.02-0.314c-0.02-0.114-0.054-0.229-0.101-0.344s-0.091-0.213-0.131-0.294
		c-0.027-0.054-0.041-0.101-0.041-0.142c0-0.04-0.014-0.088-0.041-0.142c-0.041-0.107-0.078-0.219-0.111-0.334
		c-0.034-0.114-0.078-0.233-0.132-0.354c-0.203-0.485-0.381-0.981-0.537-1.488c-0.155-0.506-0.334-1.002-0.537-1.488
		c-0.067-0.148-0.125-0.297-0.172-0.445s-0.104-0.29-0.172-0.425c-0.027-0.067-0.058-0.132-0.091-0.192s-0.105-0.091-0.212-0.091
		c-0.027,0.026-0.054,0.047-0.081,0.061c-0.027,0.014-0.054,0.033-0.081,0.061c-0.054,0.067-0.095,0.139-0.122,0.213
		c-0.027,0.074-0.054,0.151-0.081,0.232c-0.067,0.148-0.122,0.297-0.162,0.445s-0.094,0.297-0.162,0.445
		c-0.23,0.526-0.429,1.061-0.598,1.6c-0.169,0.54-0.361,1.066-0.577,1.579c-0.027,0.068-0.051,0.136-0.071,0.203
		c-0.021,0.067-0.044,0.135-0.071,0.202c-0.041,0.108-0.081,0.216-0.121,0.324s-0.075,0.216-0.102,0.324
		c-0.027,0.067-0.037,0.142-0.03,0.223s0.023,0.148,0.051,0.202c0.067,0.108,0.209,0.165,0.425,0.172
		c0.215,0.007,0.418,0.011,0.607,0.011h2.166c0.148,0,0.331,0.003,0.547,0.01C27.565,47.802,27.728,47.785,27.835,47.744z"/>
	<path class="st1" d="M34.598,39.301c0.094,0,0.203-0.003,0.324-0.01c0.122-0.007,0.24-0.007,0.354,0
		c0.114,0.007,0.219,0.023,0.314,0.051c0.094,0.027,0.162,0.067,0.202,0.121c0.081,0.108,0.122,0.25,0.122,0.426
		c0,0.175,0,0.357,0,0.546v2.126v6.5v1.862c0,0.148,0,0.311,0,0.486s0.021,0.317,0.061,0.425c0.04,0.095,0.114,0.176,0.223,0.243
		c0.067,0.027,0.155,0.044,0.263,0.051c0.108,0.007,0.216,0.01,0.324,0.01h1.033h3.645h1.134c0.094,0,0.192-0.003,0.293-0.01
		s0.192,0.003,0.273,0.03c0.175,0.054,0.29,0.128,0.344,0.223c0.013,0.04,0.027,0.108,0.041,0.202
		c0.013,0.095,0.023,0.192,0.03,0.294s0.003,0.202-0.01,0.304c-0.014,0.102-0.027,0.179-0.041,0.232
		c-0.027,0.095-0.088,0.169-0.182,0.223c-0.068,0.055-0.166,0.081-0.293,0.081c-0.128,0-0.253,0-0.375,0H41.34h-5.123h-1.316
		c-0.189,0-0.351-0.01-0.486-0.03c-0.135-0.021-0.236-0.084-0.304-0.192c-0.054-0.081-0.081-0.186-0.081-0.313s0-0.253,0-0.375
		v-1.457V45.82v-4.394v-1.255c0-0.121,0.003-0.243,0.01-0.364c0.006-0.122,0.03-0.216,0.071-0.284
		c0.054-0.08,0.155-0.147,0.304-0.202c0.027-0.013,0.057-0.017,0.091-0.01S34.571,39.314,34.598,39.301z"/>
	<path class="st1" d="M45.937,39.342c0.094,0,0.202-0.003,0.324-0.01s0.24-0.007,0.354,0c0.114,0.007,0.219,0.023,0.314,0.05
		c0.094,0.027,0.162,0.068,0.202,0.122c0.081,0.095,0.125,0.226,0.132,0.395c0.006,0.169,0.01,0.341,0.01,0.517v1.964v7.815v2.368
		c0,0.176,0,0.361,0,0.558c0,0.195-0.034,0.348-0.101,0.455c-0.054,0.067-0.118,0.108-0.192,0.122
		c-0.074,0.013-0.166,0.033-0.273,0.061h-0.384c-0.189,0-0.365-0.007-0.527-0.021c-0.162-0.014-0.276-0.081-0.344-0.202
		c-0.054-0.081-0.081-0.192-0.081-0.334c0-0.143,0-0.287,0-0.436v-1.62v-8.463v-2.187c0-0.148-0.003-0.314-0.01-0.496
		c-0.007-0.183,0.023-0.327,0.091-0.436c0.054-0.095,0.162-0.162,0.324-0.202c0.027-0.014,0.054-0.018,0.081-0.011
		C45.882,39.358,45.909,39.355,45.937,39.342z"/>
	<path class="st1" d="M51.079,39.281c0.094,0,0.203-0.004,0.324-0.011c0.122-0.006,0.243-0.006,0.364,0
		c0.122,0.007,0.229,0.024,0.324,0.051c0.094,0.027,0.162,0.067,0.202,0.122c0.041,0.067,0.071,0.155,0.091,0.263
		c0.02,0.108,0.034,0.229,0.041,0.364c0.006,0.136,0.006,0.273,0,0.415c-0.007,0.142-0.01,0.267-0.01,0.375v3.543v0.729
		c0,0.067-0.003,0.135-0.01,0.202s-0.003,0.128,0.01,0.182v0.162c0.013,0.041,0.021,0.085,0.021,0.132
		c0,0.048,0.013,0.085,0.041,0.111c0.027,0.027,0.047,0.048,0.061,0.061c0.013,0.014,0.034,0.034,0.061,0.061
		c0.162,0.027,0.277,0,0.344-0.08c0.067-0.081,0.148-0.155,0.243-0.224c0.067-0.054,0.131-0.114,0.192-0.182
		c0.061-0.067,0.125-0.135,0.192-0.202c0.081-0.081,0.162-0.159,0.243-0.233s0.162-0.151,0.243-0.232
		c0.054-0.041,0.101-0.084,0.142-0.132c0.041-0.047,0.081-0.091,0.122-0.132c0.067-0.067,0.135-0.132,0.203-0.192
		c0.067-0.061,0.135-0.124,0.202-0.192c0.081-0.081,0.162-0.162,0.243-0.243c0.081-0.08,0.168-0.161,0.263-0.242
		c0.041-0.054,0.081-0.102,0.122-0.142c0.041-0.041,0.081-0.081,0.121-0.122c0.067-0.067,0.132-0.132,0.192-0.192
		c0.061-0.061,0.125-0.124,0.192-0.192c0.108-0.107,0.213-0.209,0.314-0.304c0.101-0.094,0.206-0.195,0.314-0.304
		c0.27-0.27,0.533-0.529,0.79-0.779c0.256-0.25,0.52-0.51,0.79-0.779c0.189-0.189,0.375-0.371,0.557-0.547
		c0.183-0.175,0.368-0.357,0.557-0.547c0.108-0.081,0.206-0.168,0.293-0.263c0.087-0.095,0.192-0.169,0.314-0.223
		c0.148-0.067,0.334-0.098,0.557-0.092c0.223,0.007,0.436,0.011,0.638,0.011c0.135,0,0.29,0.003,0.466,0.01
		c0.175,0.007,0.283,0.058,0.324,0.152c0.041,0.067,0.027,0.148-0.041,0.242c-0.067,0.095-0.115,0.155-0.142,0.183
		c-0.162,0.162-0.327,0.32-0.496,0.476s-0.334,0.314-0.496,0.476c-0.108,0.108-0.212,0.213-0.313,0.314
		c-0.102,0.101-0.206,0.192-0.314,0.273c-0.014,0.027-0.047,0.067-0.101,0.121c-0.054,0.054-0.105,0.104-0.152,0.152
		c-0.048,0.047-0.098,0.091-0.152,0.131l-0.122,0.122c-0.068,0.067-0.128,0.128-0.182,0.182c-0.054,0.055-0.115,0.108-0.183,0.162
		l-0.182,0.183c-0.081,0.081-0.162,0.162-0.243,0.243c-0.081,0.08-0.169,0.155-0.263,0.223c-0.041,0.04-0.078,0.081-0.112,0.121
		s-0.071,0.074-0.111,0.102c-0.135,0.107-0.253,0.22-0.354,0.334c-0.102,0.114-0.22,0.226-0.354,0.334
		c-0.027,0.027-0.058,0.061-0.091,0.102c-0.034,0.04-0.071,0.074-0.112,0.101c-0.054,0.041-0.104,0.088-0.152,0.142
		c-0.047,0.055-0.098,0.108-0.152,0.162c-0.027,0.014-0.067,0.048-0.121,0.102c-0.068,0.067-0.139,0.139-0.213,0.213
		s-0.138,0.145-0.192,0.212c-0.027,0.041-0.058,0.099-0.091,0.172c-0.034,0.075-0.038,0.146-0.01,0.213
		c0.041,0.148,0.108,0.28,0.203,0.395c0.094,0.115,0.182,0.227,0.263,0.335c0.148,0.202,0.296,0.404,0.445,0.607
		c0.148,0.202,0.297,0.404,0.445,0.607c0.513,0.729,1.029,1.438,1.549,2.125c0.52,0.688,1.036,1.397,1.549,2.126
		c0.094,0.122,0.188,0.24,0.283,0.354c0.094,0.115,0.182,0.233,0.263,0.354c0.094,0.148,0.186,0.287,0.273,0.415
		c0.087,0.129,0.186,0.253,0.293,0.375c0.054,0.067,0.101,0.135,0.142,0.202s0.074,0.135,0.102,0.202
		c0.027,0.081,0.02,0.142-0.021,0.183c-0.027,0.108-0.115,0.165-0.263,0.172s-0.297,0.011-0.445,0.011h-0.587
		c-0.054,0-0.108,0.003-0.162,0.01c-0.054,0.007-0.102,0.003-0.142-0.01c-0.04-0.014-0.081-0.018-0.121-0.011
		s-0.075,0.004-0.102-0.01c-0.202-0.054-0.357-0.162-0.465-0.324c-0.271-0.364-0.537-0.732-0.8-1.104s-0.53-0.745-0.8-1.124
		c-0.351-0.499-0.702-0.991-1.053-1.478c-0.352-0.486-0.702-0.972-1.053-1.458c-0.324-0.459-0.634-0.891-0.931-1.296
		c-0.041-0.054-0.105-0.118-0.192-0.192c-0.088-0.073-0.186-0.098-0.293-0.07c-0.162,0.054-0.304,0.148-0.425,0.283
		s-0.236,0.243-0.344,0.324c-0.108,0.095-0.209,0.188-0.304,0.283c-0.095,0.095-0.196,0.183-0.304,0.264
		c-0.027,0.04-0.068,0.088-0.122,0.142c-0.108,0.095-0.24,0.212-0.395,0.354c-0.155,0.143-0.26,0.28-0.314,0.416
		c-0.027,0.067-0.054,0.168-0.081,0.303v0.183c-0.014,0.041-0.017,0.088-0.01,0.142c0.007,0.055,0.01,0.108,0.01,0.162v0.567v2.187
		c0,0.095,0.003,0.199,0.01,0.313c0.006,0.115,0.01,0.233,0.01,0.354s-0.007,0.232-0.021,0.334
		c-0.014,0.102-0.041,0.179-0.081,0.232c-0.081,0.136-0.216,0.206-0.405,0.213s-0.385,0.011-0.587,0.011
		c-0.121,0-0.24-0.004-0.354-0.011c-0.115-0.007-0.206-0.037-0.273-0.091c-0.108-0.067-0.166-0.192-0.172-0.375
		c-0.007-0.182-0.01-0.367-0.01-0.557v-2.328v-8.079v-1.902c0-0.148-0.003-0.304-0.01-0.466s0.023-0.29,0.091-0.385
		c0.054-0.095,0.155-0.162,0.304-0.203c0.027-0.013,0.054-0.017,0.081-0.01C51.025,39.298,51.052,39.295,51.079,39.281z"/>
	<path class="st1" d="M80.842,48.493c0.081,0.257,0.125,0.577,0.132,0.962s-0.03,0.712-0.111,0.982
		c-0.027,0.121-0.051,0.239-0.071,0.354c-0.02,0.115-0.058,0.227-0.111,0.334c-0.323,0.811-0.837,1.445-1.538,1.903
		c-0.189,0.108-0.382,0.206-0.577,0.294c-0.196,0.088-0.408,0.165-0.638,0.232c-0.081,0.027-0.166,0.044-0.253,0.051
		c-0.089,0.007-0.173,0.024-0.254,0.051c-0.081,0.027-0.158,0.037-0.232,0.03s-0.152-0.003-0.232,0.011
		c-0.068,0.026-0.146,0.037-0.233,0.03s-0.172-0.011-0.253-0.011h-5.973c-0.162,0-0.314-0.007-0.456-0.02
		c-0.142-0.014-0.246-0.067-0.313-0.162c-0.055-0.081-0.085-0.183-0.091-0.304c-0.008-0.122-0.011-0.25-0.011-0.385V40.192
		c0-0.122,0-0.243,0-0.365c0-0.121,0.027-0.223,0.081-0.304c0.054-0.08,0.155-0.147,0.304-0.202c0.027-0.013,0.054-0.017,0.081-0.01
		s0.054,0.003,0.081-0.011h4.859h0.77c0.094,0.014,0.188,0.014,0.283,0c0.095-0.013,0.183-0.006,0.264,0.021h0.182
		c0.067,0.027,0.142,0.037,0.223,0.03s0.155,0.004,0.223,0.03h0.183c0.067,0.027,0.142,0.041,0.223,0.041s0.155,0.014,0.223,0.04
		c0.107,0.027,0.213,0.051,0.313,0.071c0.102,0.021,0.206,0.051,0.314,0.091c0.647,0.271,1.146,0.662,1.498,1.175
		c0.216,0.297,0.378,0.614,0.486,0.951c0.026,0.095,0.043,0.186,0.05,0.273s0.023,0.186,0.051,0.294
		c0.027,0.081,0.041,0.165,0.041,0.253s0,0.186,0,0.293v0.162c-0.027,0.122-0.044,0.243-0.051,0.364
		c-0.007,0.122-0.023,0.236-0.051,0.345c-0.162,0.647-0.438,1.154-0.83,1.519c-0.095,0.108-0.196,0.199-0.304,0.273
		c-0.108,0.074-0.21,0.165-0.304,0.273c-0.027,0.027-0.061,0.061-0.102,0.101c-0.04,0.041-0.054,0.088-0.04,0.142
		c0.026,0.136,0.121,0.236,0.283,0.304c0.162,0.068,0.297,0.136,0.405,0.203c0.404,0.257,0.735,0.561,0.992,0.911
		c0.107,0.148,0.198,0.311,0.273,0.485C80.703,48.122,80.774,48.305,80.842,48.493z M71.569,41.185
		c-0.055,0.121-0.078,0.276-0.071,0.465c0.007,0.189,0.01,0.365,0.01,0.526v2.065c0,0.189,0,0.389,0,0.598s0.041,0.368,0.122,0.476
		c0.04,0.067,0.098,0.111,0.172,0.132s0.158,0.044,0.253,0.07h0.202c0.067,0.014,0.143,0.018,0.224,0.011
		c0.08-0.007,0.154-0.011,0.223-0.011h1.862c0.095,0,0.188,0.004,0.283,0.011s0.176,0.003,0.243-0.011h0.567
		c0.054-0.026,0.107-0.033,0.161-0.02c0.055,0.014,0.115,0.014,0.183,0c0.148-0.041,0.294-0.064,0.436-0.071s0.28-0.037,0.415-0.091
		c0.297-0.095,0.557-0.213,0.779-0.354s0.408-0.334,0.557-0.577c0.135-0.229,0.223-0.533,0.264-0.911
		c0.013-0.107,0.02-0.229,0.02-0.364s-0.013-0.256-0.04-0.364c-0.014-0.041-0.017-0.081-0.01-0.122
		c0.006-0.04,0.003-0.081-0.011-0.121c-0.054-0.148-0.104-0.29-0.151-0.425c-0.048-0.135-0.111-0.257-0.192-0.365
		c-0.148-0.202-0.341-0.36-0.577-0.476c-0.236-0.114-0.503-0.199-0.8-0.253s-0.617-0.088-0.962-0.102
		c-0.344-0.013-0.698-0.02-1.062-0.02h-2.552c-0.027,0.026-0.063,0.037-0.111,0.03c-0.047-0.007-0.084-0.004-0.111,0.01
		C71.73,40.962,71.623,41.05,71.569,41.185z M79.061,49.606c0.013-0.067,0.017-0.138,0.01-0.212s-0.017-0.139-0.03-0.192
		c-0.014-0.067-0.021-0.125-0.021-0.172c0-0.048-0.007-0.104-0.02-0.173c-0.081-0.27-0.189-0.499-0.324-0.688
		c-0.162-0.229-0.354-0.411-0.577-0.546s-0.489-0.257-0.8-0.365c-0.108-0.026-0.227-0.047-0.354-0.061
		c-0.128-0.013-0.26-0.033-0.395-0.061c-0.081-0.026-0.159-0.03-0.233-0.01c-0.074,0.02-0.151,0.017-0.232-0.011
		c-0.067-0.013-0.139-0.02-0.213-0.02s-0.145,0-0.212,0h-3.544c-0.027,0.026-0.063,0.037-0.111,0.03
		c-0.047-0.007-0.084-0.004-0.111,0.01c-0.162,0.041-0.27,0.129-0.323,0.264c-0.055,0.121-0.078,0.29-0.071,0.506
		s0.01,0.412,0.01,0.587v2.288c0,0.202,0,0.419,0,0.647c0,0.23,0.041,0.398,0.122,0.507c0.067,0.095,0.168,0.151,0.304,0.172
		c0.135,0.021,0.283,0.03,0.445,0.03h3.401c0.27,0,0.526,0,0.77,0s0.466-0.033,0.668-0.102c0.351-0.107,0.647-0.246,0.891-0.415
		c0.243-0.168,0.445-0.388,0.607-0.657c0.081-0.135,0.146-0.284,0.192-0.446c0.048-0.161,0.092-0.337,0.132-0.526
		c0.027-0.067,0.033-0.131,0.021-0.192C79.047,49.738,79.047,49.675,79.061,49.606z"/>
	<path class="st1" d="M94.792,52.664c0.027,0.067,0.061,0.148,0.102,0.243c0.04,0.095,0.07,0.192,0.091,0.294
		c0.021,0.101,0.021,0.195,0,0.283s-0.078,0.151-0.172,0.192c-0.067,0.027-0.148,0.04-0.243,0.04s-0.189,0-0.283,0
		c-0.189,0-0.389,0-0.598,0s-0.374-0.033-0.496-0.101c-0.135-0.081-0.232-0.223-0.293-0.426c-0.062-0.202-0.125-0.385-0.192-0.547
		c-0.149-0.351-0.284-0.715-0.405-1.093s-0.257-0.749-0.405-1.113c-0.04-0.122-0.077-0.236-0.111-0.345
		c-0.033-0.107-0.074-0.209-0.121-0.304c-0.048-0.094-0.111-0.175-0.192-0.243c-0.081-0.067-0.189-0.121-0.324-0.162
		c-0.067-0.026-0.145-0.036-0.232-0.03c-0.088,0.007-0.18,0.011-0.273,0.011h-3.827c-0.121,0-0.256-0.004-0.404-0.011
		c-0.149-0.006-0.291-0.003-0.426,0.011s-0.26,0.033-0.374,0.061c-0.115,0.027-0.199,0.081-0.253,0.162
		c-0.108,0.135-0.187,0.287-0.233,0.455c-0.047,0.169-0.104,0.341-0.172,0.517c-0.135,0.311-0.26,0.635-0.375,0.972
		c-0.114,0.338-0.239,0.661-0.374,0.972c-0.027,0.081-0.058,0.173-0.091,0.273c-0.034,0.102-0.071,0.206-0.111,0.314
		c-0.041,0.107-0.085,0.205-0.132,0.293c-0.048,0.088-0.099,0.152-0.152,0.192c-0.108,0.081-0.253,0.125-0.436,0.132
		c-0.182,0.007-0.374,0.01-0.576,0.01c-0.108,0-0.213-0.003-0.314-0.01c-0.101-0.007-0.186-0.037-0.253-0.091
		c-0.067-0.041-0.104-0.102-0.111-0.183s0-0.165,0.021-0.253s0.047-0.176,0.081-0.264c0.033-0.087,0.063-0.151,0.091-0.192
		c0.188-0.432,0.357-0.86,0.506-1.285c0.148-0.426,0.311-0.854,0.486-1.286c0.121-0.297,0.236-0.59,0.344-0.881
		c0.108-0.29,0.223-0.583,0.345-0.88c0.405-0.973,0.789-1.954,1.154-2.946c0.364-0.992,0.749-1.98,1.153-2.967
		c0.148-0.351,0.287-0.708,0.415-1.072c0.129-0.365,0.267-0.723,0.415-1.073c0.067-0.148,0.132-0.314,0.192-0.496
		c0.062-0.183,0.152-0.314,0.273-0.395c0.054-0.055,0.142-0.095,0.264-0.122c0.026-0.013,0.057-0.017,0.091-0.01
		c0.033,0.007,0.064,0.003,0.091-0.011c0.243,0,0.526-0.003,0.851-0.01s0.561,0.044,0.709,0.152c0.107,0.08,0.192,0.212,0.253,0.395
		c0.061,0.182,0.125,0.348,0.192,0.496c0.135,0.311,0.256,0.621,0.364,0.932s0.229,0.62,0.364,0.931
		c0.108,0.271,0.213,0.547,0.314,0.83c0.101,0.284,0.212,0.561,0.334,0.83c0.404,0.985,0.793,1.981,1.164,2.986
		c0.371,1.006,0.766,2.002,1.185,2.987c0.054,0.121,0.098,0.236,0.132,0.344c0.033,0.108,0.07,0.223,0.111,0.344
		c0.148,0.352,0.293,0.709,0.435,1.073C94.499,51.956,94.644,52.313,94.792,52.664z M90.459,47.744
		c0.122-0.04,0.199-0.107,0.233-0.202c0.033-0.095,0.04-0.199,0.02-0.314c-0.02-0.114-0.054-0.229-0.101-0.344
		c-0.048-0.114-0.091-0.213-0.132-0.294c-0.027-0.054-0.04-0.101-0.04-0.142c0-0.04-0.014-0.088-0.041-0.142
		c-0.04-0.107-0.078-0.219-0.111-0.334c-0.034-0.114-0.078-0.233-0.132-0.354c-0.202-0.485-0.381-0.981-0.536-1.488
		c-0.155-0.506-0.334-1.002-0.537-1.488c-0.067-0.148-0.124-0.297-0.172-0.445c-0.047-0.148-0.104-0.29-0.172-0.425
		c-0.027-0.067-0.058-0.132-0.091-0.192c-0.034-0.061-0.105-0.091-0.213-0.091c-0.027,0.026-0.054,0.047-0.081,0.061
		s-0.054,0.033-0.081,0.061c-0.054,0.067-0.095,0.139-0.121,0.213c-0.027,0.074-0.055,0.151-0.081,0.232
		c-0.067,0.148-0.122,0.297-0.162,0.445c-0.041,0.148-0.095,0.297-0.162,0.445c-0.229,0.526-0.429,1.061-0.598,1.6
		c-0.169,0.54-0.36,1.066-0.576,1.579c-0.027,0.068-0.051,0.136-0.071,0.203s-0.044,0.135-0.071,0.202
		c-0.04,0.108-0.08,0.216-0.121,0.324c-0.04,0.108-0.074,0.216-0.102,0.324c-0.026,0.067-0.037,0.142-0.03,0.223
		s0.023,0.148,0.051,0.202c0.067,0.108,0.209,0.165,0.426,0.172c0.215,0.007,0.418,0.011,0.607,0.011h2.166
		c0.148,0,0.33,0.003,0.547,0.01C90.189,47.802,90.352,47.785,90.459,47.744z"/>
	<path class="st1" d="M108.499,46.165c0,0.108,0.003,0.227,0.01,0.354s-0.003,0.239-0.03,0.334v0.202
		c-0.014,0.041-0.017,0.088-0.01,0.142c0.007,0.055,0.003,0.095-0.011,0.122c-0.013,0.067-0.02,0.139-0.02,0.212
		c0,0.074-0.007,0.146-0.021,0.213c-0.04,0.189-0.067,0.389-0.081,0.598s-0.054,0.408-0.121,0.597
		c-0.041,0.162-0.085,0.328-0.132,0.496c-0.048,0.169-0.104,0.334-0.172,0.496c-0.23,0.581-0.517,1.104-0.86,1.569
		c-0.345,0.466-0.773,0.86-1.286,1.185c-0.257,0.162-0.53,0.301-0.82,0.415c-0.29,0.115-0.604,0.227-0.941,0.334
		c-0.148,0.054-0.307,0.091-0.476,0.111s-0.334,0.051-0.496,0.091c-0.148,0.027-0.294,0.041-0.436,0.041s-0.28,0.014-0.415,0.04
		h-0.283c-0.04,0.014-0.088,0.018-0.142,0.011c-0.055-0.007-0.108-0.011-0.162-0.011h-4.05c-0.202,0-0.381-0.01-0.536-0.03
		s-0.26-0.104-0.313-0.253c-0.055-0.107-0.078-0.264-0.071-0.466s0.01-0.385,0.01-0.547V40.455c0-0.162-0.003-0.334-0.01-0.516
		c-0.007-0.183,0.023-0.327,0.091-0.436c0.054-0.095,0.155-0.155,0.304-0.183c0.027-0.013,0.054-0.017,0.081-0.01
		s0.054,0.003,0.081-0.011h4.394c0.067,0,0.132-0.003,0.192-0.01s0.118-0.003,0.172,0.01c0.067,0.027,0.139,0.034,0.213,0.021
		c0.074-0.013,0.146-0.013,0.213,0c0.067,0.014,0.142,0.021,0.223,0.021s0.155,0.007,0.223,0.021s0.132,0.02,0.192,0.02
		s0.125,0.007,0.192,0.021c0.148,0.027,0.29,0.051,0.425,0.071c0.135,0.02,0.271,0.05,0.405,0.091
		c0.297,0.095,0.58,0.186,0.851,0.273c0.27,0.088,0.52,0.206,0.749,0.354c0.188,0.107,0.357,0.216,0.506,0.323
		c0.041,0.027,0.081,0.058,0.122,0.092c0.04,0.033,0.08,0.063,0.121,0.091c0.081,0.067,0.155,0.135,0.223,0.202
		c0.067,0.068,0.135,0.136,0.202,0.203s0.122,0.114,0.162,0.142c0.054,0.081,0.111,0.155,0.172,0.223
		c0.062,0.067,0.118,0.142,0.173,0.223c0.067,0.081,0.124,0.165,0.172,0.253c0.047,0.088,0.104,0.179,0.172,0.273
		c0.027,0.054,0.047,0.102,0.061,0.142c0.014,0.041,0.034,0.088,0.062,0.142c0.054,0.108,0.101,0.213,0.142,0.314
		c0.04,0.101,0.087,0.205,0.142,0.313c0.054,0.148,0.098,0.301,0.132,0.455c0.033,0.155,0.07,0.308,0.111,0.456
		c0.026,0.081,0.04,0.159,0.04,0.232c0,0.074,0.014,0.152,0.041,0.233c0.067,0.243,0.104,0.51,0.111,0.8
		C108.495,45.595,108.499,45.882,108.499,46.165z M106.575,47.218c0.027-0.135,0.041-0.28,0.041-0.436c0-0.154,0-0.307,0-0.455
		c0-0.108,0.003-0.213,0.01-0.314c0.007-0.101-0.003-0.198-0.03-0.293c0-0.041-0.004-0.081-0.01-0.122
		c-0.007-0.04-0.011-0.087-0.011-0.142c-0.027-0.148-0.044-0.297-0.051-0.445s-0.03-0.297-0.07-0.445
		c-0.027-0.107-0.051-0.213-0.071-0.313c-0.02-0.102-0.044-0.206-0.07-0.314c-0.149-0.485-0.338-0.911-0.567-1.275
		c-0.378-0.607-0.938-1.066-1.681-1.377c-0.121-0.067-0.25-0.118-0.385-0.151c-0.135-0.034-0.276-0.071-0.425-0.111
		c-0.148-0.041-0.301-0.064-0.455-0.071c-0.155-0.007-0.308-0.023-0.456-0.051h-0.425c-0.041-0.013-0.088-0.02-0.142-0.02
		c-0.055,0-0.108,0-0.162,0h-2.471c-0.027,0.014-0.061,0.017-0.101,0.01c-0.041-0.007-0.074-0.003-0.102,0.01
		c-0.067,0.027-0.132,0.055-0.192,0.081c-0.061,0.027-0.104,0.068-0.132,0.122s-0.054,0.148-0.081,0.283v0.162
		c-0.014,0.054-0.02,0.114-0.02,0.182c0,0.068,0,0.129,0,0.183v9.192c0,0.067,0,0.131,0,0.192c0,0.061,0.006,0.118,0.02,0.172v0.162
		c0.027,0.135,0.054,0.229,0.081,0.283c0.108,0.162,0.311,0.24,0.607,0.232c0.297-0.006,0.58-0.01,0.851-0.01h1.175
		c0.094,0,0.195,0.004,0.304,0.01c0.107,0.008,0.202-0.003,0.283-0.03h0.223c0.067-0.013,0.142-0.017,0.223-0.01
		s0.162,0.004,0.243-0.01c0.081-0.027,0.162-0.044,0.242-0.051c0.081-0.007,0.169-0.023,0.264-0.051
		c0.148-0.04,0.294-0.081,0.436-0.121c0.142-0.041,0.286-0.095,0.436-0.162c0.499-0.216,0.928-0.51,1.285-0.881
		s0.651-0.813,0.881-1.326c0.067-0.148,0.125-0.307,0.172-0.476s0.098-0.341,0.152-0.517c0.04-0.148,0.07-0.307,0.091-0.476
		s0.044-0.334,0.071-0.496c0.013-0.067,0.02-0.125,0.02-0.173C106.575,47.322,106.575,47.271,106.575,47.218z"/>
	<path class="st1" d="M111.435,39.301h6.621h1.741c0.148,0,0.297-0.003,0.445-0.01s0.27,0.023,0.364,0.091
		c0.041,0.027,0.074,0.062,0.102,0.102c0.026,0.04,0.054,0.081,0.081,0.121c0.026,0.095,0.04,0.247,0.04,0.456
		s-0.014,0.368-0.04,0.476c-0.055,0.189-0.169,0.294-0.345,0.313c-0.175,0.021-0.385,0.031-0.627,0.031h-2.025h-3.401
		c-0.216,0-0.469-0.004-0.759-0.011c-0.291-0.007-0.503,0.03-0.638,0.111c-0.136,0.081-0.206,0.223-0.213,0.426
		c-0.007,0.202-0.01,0.411-0.01,0.627V44.1c0,0.148-0.004,0.324-0.011,0.526c-0.007,0.203,0.003,0.364,0.03,0.486
		c0.041,0.162,0.122,0.27,0.243,0.324c0.054,0.026,0.148,0.054,0.283,0.08h0.203c0.054,0.014,0.111,0.018,0.172,0.011
		s0.125-0.011,0.192-0.011h0.688h3.968c0.122,0,0.257-0.003,0.405-0.01s0.301-0.007,0.456,0c0.154,0.007,0.296,0.021,0.425,0.041
		c0.128,0.02,0.226,0.05,0.294,0.091c0.04,0.027,0.073,0.088,0.101,0.182c0.027,0.095,0.048,0.196,0.061,0.304
		c0.014,0.108,0.018,0.22,0.011,0.335c-0.007,0.114-0.023,0.212-0.051,0.293c-0.027,0.122-0.088,0.21-0.183,0.264
		c-0.026,0.027-0.063,0.044-0.111,0.051c-0.047,0.007-0.091,0.017-0.131,0.03h-0.122c-0.067,0.014-0.135,0.017-0.202,0.01
		s-0.135-0.01-0.202-0.01h-0.75h-4.271c-0.162,0-0.321-0.004-0.476-0.011c-0.155-0.007-0.301,0-0.436,0.021
		s-0.253,0.058-0.354,0.111s-0.172,0.148-0.213,0.283c-0.027,0.081-0.037,0.176-0.03,0.284c0.007,0.107,0.011,0.216,0.011,0.323
		v1.134v1.924c0,0.189,0.006,0.361,0.02,0.517s0.067,0.267,0.162,0.334s0.203,0.104,0.324,0.111s0.256,0.01,0.405,0.01h1.295h3.746
		h1.154c0.107,0,0.216-0.003,0.324-0.01c0.107-0.007,0.202,0.003,0.283,0.03c0.162,0.054,0.27,0.128,0.324,0.223
		c0.026,0.04,0.047,0.108,0.061,0.202c0.013,0.095,0.023,0.192,0.03,0.294s0.003,0.202-0.011,0.304
		c-0.013,0.102-0.026,0.179-0.04,0.232c-0.054,0.108-0.115,0.183-0.183,0.223c-0.081,0.055-0.186,0.081-0.313,0.081
		s-0.253,0-0.374,0h-1.418h-5.386h-1.417c-0.189,0-0.352-0.01-0.486-0.03s-0.236-0.084-0.304-0.192
		c-0.054-0.081-0.081-0.186-0.081-0.313s0-0.253,0-0.375v-1.417v-5.426v-4.536v-1.255c0-0.121,0-0.243,0-0.364
		c0-0.122,0.027-0.216,0.081-0.284c0.054-0.094,0.155-0.161,0.304-0.202c0.027-0.013,0.054-0.017,0.081-0.01
		S111.407,39.314,111.435,39.301z"/>
	<path class="st1" d="M134.597,53.211c0.067,0.176,0.041,0.311-0.081,0.405c-0.067,0.04-0.151,0.063-0.253,0.07
		c-0.101,0.007-0.206,0.011-0.313,0.011c-0.216,0-0.433,0-0.648,0s-0.384-0.048-0.506-0.143c-0.108-0.067-0.179-0.172-0.213-0.313
		c-0.033-0.142-0.063-0.286-0.091-0.436c-0.014-0.054-0.021-0.104-0.021-0.151s0-0.092,0-0.132c-0.026-0.067-0.033-0.128-0.02-0.183
		c0.013-0.054,0.013-0.107,0-0.161c-0.014-0.081-0.021-0.162-0.021-0.243s0-0.162,0-0.243l-0.061-0.911
		c-0.027-0.095-0.041-0.188-0.041-0.283s-0.014-0.195-0.04-0.304c-0.068-0.243-0.118-0.486-0.152-0.729
		c-0.033-0.242-0.098-0.472-0.192-0.688c-0.256-0.566-0.682-0.944-1.275-1.134c-0.176-0.067-0.368-0.104-0.577-0.111
		c-0.209-0.006-0.429-0.01-0.658-0.01h-3.725c-0.095,0.027-0.18,0.051-0.254,0.071c-0.074,0.02-0.138,0.063-0.192,0.131
		c-0.094,0.136-0.138,0.354-0.131,0.658s0.01,0.57,0.01,0.8v2.936c0,0.189,0.007,0.423,0.021,0.699
		c0.013,0.276-0.014,0.482-0.081,0.617c-0.027,0.095-0.081,0.155-0.162,0.183c-0.054,0.026-0.104,0.04-0.151,0.04
		c-0.048,0-0.105,0.014-0.173,0.041c-0.054,0.013-0.114,0.017-0.182,0.01c-0.068-0.007-0.136-0.01-0.203-0.01
		c-0.148,0-0.293-0.004-0.435-0.011c-0.143-0.007-0.261-0.044-0.354-0.111c-0.108-0.067-0.162-0.192-0.162-0.374
		c0-0.183,0-0.361,0-0.537v-12.31c0-0.148-0.004-0.304-0.01-0.466c-0.008-0.162,0.023-0.29,0.091-0.385
		c0.054-0.081,0.155-0.148,0.304-0.203c0.026-0.013,0.054-0.017,0.081-0.01c0.026,0.007,0.054,0.004,0.081-0.01h5.871
		c0.095,0,0.195-0.004,0.304-0.011c0.108-0.006,0.203-0.003,0.284,0.011h0.223c0.081,0.014,0.161,0.023,0.242,0.03
		s0.169,0.017,0.264,0.03c0.107,0.027,0.219,0.047,0.334,0.061c0.114,0.014,0.226,0.034,0.334,0.061
		c0.256,0.081,0.492,0.169,0.709,0.264c0.216,0.095,0.418,0.209,0.607,0.344c0.337,0.229,0.61,0.51,0.819,0.841
		c0.21,0.331,0.382,0.719,0.517,1.164c0.027,0.108,0.044,0.22,0.051,0.334c0.007,0.115,0.023,0.227,0.051,0.334v0.202
		c0.013,0.068,0.017,0.146,0.01,0.233s-0.017,0.165-0.03,0.232v0.223c-0.027,0.108-0.044,0.21-0.051,0.304
		c-0.007,0.095-0.023,0.189-0.051,0.284c-0.067,0.202-0.131,0.395-0.192,0.576c-0.061,0.183-0.145,0.354-0.253,0.517
		c-0.04,0.067-0.084,0.129-0.132,0.183c-0.047,0.054-0.091,0.114-0.131,0.182c-0.014,0.014-0.027,0.024-0.041,0.03
		c-0.014,0.008-0.027,0.018-0.04,0.03c-0.027,0.027-0.058,0.062-0.092,0.102c-0.033,0.041-0.063,0.074-0.091,0.102
		c-0.108,0.081-0.209,0.158-0.304,0.232s-0.195,0.146-0.304,0.213c-0.067,0.04-0.128,0.084-0.182,0.132
		c-0.055,0.047-0.088,0.111-0.102,0.192s0.017,0.148,0.091,0.202s0.139,0.095,0.192,0.121c0.148,0.095,0.287,0.196,0.415,0.304
		c0.128,0.108,0.239,0.236,0.334,0.385c0.148,0.189,0.257,0.402,0.324,0.638c0.067,0.236,0.135,0.49,0.202,0.76
		c0.014,0.108,0.027,0.213,0.041,0.313c0.013,0.102,0.026,0.206,0.04,0.314c0.027,0.094,0.034,0.188,0.021,0.283
		s-0.007,0.189,0.021,0.283v0.183c0.026,0.095,0.033,0.195,0.021,0.304c-0.014,0.108-0.008,0.216,0.02,0.323
		c0.014,0.055,0.017,0.105,0.011,0.152c-0.008,0.048-0.004,0.104,0.01,0.172c0.027,0.136,0.047,0.273,0.061,0.415
		s0.041,0.273,0.081,0.395c0.027,0.081,0.044,0.159,0.051,0.233s0.023,0.151,0.051,0.232L134.597,53.211z M132.147,44.809
		c0.094-0.148,0.165-0.304,0.212-0.466c0.048-0.162,0.092-0.337,0.132-0.526v-0.183c0.041-0.188,0.047-0.395,0.021-0.617
		c-0.027-0.223-0.067-0.408-0.122-0.557c-0.216-0.675-0.641-1.141-1.275-1.397c-0.27-0.107-0.584-0.168-0.941-0.182
		s-0.726-0.021-1.104-0.021h-3.341c-0.027,0.014-0.058,0.021-0.091,0.021c-0.034,0-0.071,0.007-0.111,0.02
		c-0.162,0.041-0.271,0.129-0.324,0.264c-0.054,0.121-0.077,0.29-0.07,0.506s0.01,0.412,0.01,0.587v2.329
		c0,0.202-0.003,0.415-0.01,0.638s0.037,0.395,0.131,0.516c0.067,0.095,0.169,0.152,0.304,0.173c0.135,0.02,0.284,0.03,0.446,0.03
		h1.255c0.526,0,1.039,0.003,1.539,0.01c0.499,0.007,0.962-0.021,1.387-0.081s0.807-0.172,1.144-0.334
		C131.675,45.375,131.944,45.133,132.147,44.809z"/>
</g>
<path class="st1" d="M62.7,23.1c-0.3,0.6-0.7,1.2-1.9,1.9c-1.1,0.6-4,1-7.8,1c-4,0-5.8-0.2-6.8-1.1c0,0-0.1-0.1-0.1-0.2
	c0.1-0.6-0.1-1.1-0.1-1.5c0-0.7-0.2-1.3-0.7-1.9c-0.4-0.5-0.7-0.7-1-0.7c-0.1,0-0.3,0.4-0.7,1.1S43,22.8,43,22.9
	c0,0,0.3,0.2,0.8,0.8c0.5,0.5,0.7,0.9,0.7,1.2c0,0.5-4.6,2.3-5.9,3c-1.3,0.7-2,1.1-2,1.2s0.1,0.1,0.2,0.1c0.3,0,0.8-0.1,1.4-0.3
	c0.7-0.2,5.7-1.7,6-2c0.3-0.2,0.6-0.4,0.9-0.8c0.2,0.5,0.7,0.9,1.1,1.1c1,0.5,1.7,0.8,5,0.8c2.3,0,4.4-0.1,6.9-0.6
	c1.4-0.3,2.5-0.6,3.4-1.3c0.7-0.5,1.1-1.1,1.4-1.9c0.2-0.5,0.3-1.1,0.4-1.5c0-0.3,0.1-0.8-0.1-0.7C63.1,22,63,22.7,62.7,23.1z"/>
<path class="st1" d="M55.2,31c-0.4-0.3-0.7-0.4-0.8-0.4c-0.2,0.3-0.6,0.8-1.4,1.6c-0.1,0.1-0.1,0.2,0,0.3c0.6,0.3,1,0.7,1.5,1
	c0.2,0,0.4-0.2,0.8-0.6c0.4-0.4,0.6-0.8,0.6-1C55.9,31.6,55.6,31.3,55.2,31z"/>
<path class="st1" d="M76.4,22.6c0.3,0,0.5,0,0.7,0c0.8-0.2,1.3-0.7,1.3-1.5c0,0-0.1-0.4-0.2-1c0-0.1,0.1-0.3,0.2-0.4
	c0.3-0.2,0.4-0.3,0.5-0.4c0.2-0.3,0.2-0.6,0.1-0.9c-0.1-0.2-0.1-0.2-0.3-0.2c-0.1,0-0.4,0.3-0.6,0.7c-0.4,0.5-0.8,0.9-0.7,1.4
	c0,0.2,0.1,0.4,0.1,0.6c0.1,0.3,0,0.7-0.6,1c-0.7,0.3-1,0.5-0.9,0.6C76.1,22.5,76.2,22.6,76.4,22.6z"/>
<path class="st1" d="M96,3.1c-0.9,0.8-1.8,1.6-2.8,2.2c-3.8,2.5-6.2,4.3-7,5.2c-1.4,1.5-2.3,3.3-2.6,5.3c0,0.1-0.1,1.5-0.2,4.3
	c-0.1,1.9-0.3,3.2-0.7,3.9c-0.3,0.5-0.9,0.9-2,1.3c-1.2,0.4-2.7,0.7-4.5,0.8c-1.6,0.1-2.7-0.1-3.3-0.5c-0.3-0.2-0.5-0.5-0.6-0.9
	c-0.1-0.3-0.2-0.5-0.3-0.5c-0.1,0-0.2,0.3-0.3,0.9c-0.1,0.6-0.1,1.1-0.1,1.6c0,0.8,0.3,1.3,0.7,1.6c0.6,0.4,1.7,0.6,3.3,0.5
	c1.3-0.1,2.6-0.3,3.8-0.7c1.1-0.4,1.9-0.9,2.5-1.4c0.3-0.3,0.5-0.6,0.8-1c0,0.4-0.1,0.9,0,1.2c0.1,0.8,0.3,1.3,0.7,1.6
	c0.6,0.4,1.7,0.6,3.3,0.5c1.3-0.1,2.6-0.3,3.8-0.7c1.1-0.4,2.2-1,2.8-1.5c0.9-0.6,1.5-1.2,1.9-2.7c0.3-1.1,0.4-2.1,0.6-4.7
	c0.2-1.7,0.2-3.1,0.5-5.6c0.2-1.9,0.4-3.3,0.3-4.1c0-0.2-0.6,1.2-1.1,2.5c-0.5,1.4-0.8,2.2-0.8,3.1c0,1-0.1,1.5-0.1,2.5
	c0,0.8,0,1.9-0.1,3c-0.2,2.2-0.3,2.9-0.7,3.6c-0.3,0.5-0.9,0.9-2,1.3c-1.2,0.4-2.7,0.7-4.5,0.8c-1.6,0.1-2.6,0-3.2-0.5
	c-0.6-0.6-0.5-1.5-0.1-3.3c0.5-1.8,0.8-3.9,0.8-6.5c0-1.8,0.2-3,0.5-3.5c0.3-0.4,1.1-1.1,2.4-2c1.4-0.9,2.9-1.9,4.3-2.8
	c1.6-1.1,2.8-2.1,3.6-2.9c0.3-0.4,0.7-0.9,1.2-1.6c0.6-0.8,0.8-1.3,0.8-1.5V1.8C97,2.1,96.4,2.7,96,3.1z"/>
<path class="st1" d="M37,23.2c0-0.7-0.7-2.3-1-2.9c-0.2-0.4-0.6-0.4-0.7,0.1C35.2,21,35,21.2,35.5,22c0.5,0.7,1.2,1.9,0.4,2.6
	s-2.6,1.8-5.7,3.3s-6.1,2.6-6.6,2.9c-0.5,0.2-1,0.4,0.4,0.3s3.9-0.5,5-0.8c1.1-0.4,3.2-1.5,4.8-2.5c1.5-1,2-1,2.6-2.1
	S37,23.8,37,23.2z"/>
<path class="st1" d="M109.1,23.4c-0.7-0.3-1.3-0.5-1.6-0.5c-0.2,0-0.5,0.3-0.9,0.9s-0.6,1.1-0.8,1.6c-0.1,1.3-0.7,1.5-2.2,1.6
	c-2.6,0.2-3.6,0.3-3.3-2.6c0.3-3.2,1.5-16.8,1.5-17.7c0-0.1,0-0.2,0-0.2c-0.1,0-0.4,0.5-0.9,1.4s-0.7,1.5-0.8,1.7
	C99.9,11,99.2,23.9,99,25.1c0,4.9,3.7,3.7,6.9,2.7c1.1-0.4,2.2-0.7,2.5-0.9c1.2-0.7,1.9-1.5,1.9-2.8
	C110.3,24.1,109.8,23.7,109.1,23.4z M108.2,25.5c-0.3,0.2-0.5,0.2-1.1,0.4c0-0.3,0.1-0.9,0.3-1.3c0.1-0.2,0.4-0.3,0.8-0.3
	s0.7,0.1,1,0.3C108.9,25,108.5,25.3,108.2,25.5z"/>
</svg>
