<?xml version="1.0" encoding="utf-8"?>
<!-- Generator: Adobe Illustrator 26.0.2, SVG Export Plug-In . SVG Version: 6.00 Build 0)  -->
<svg version="1.1" id="logo" xmlns="http://www.w3.org/2000/svg" xmlns:xlink="http://www.w3.org/1999/xlink" x="0px" y="0px"
	 viewBox="0 0 108 48" style="enable-background:new 0 0 108 48;" xml:space="preserve">
<style type="text/css">
	.st0{fill:#FFFFFF;stroke:#FFFFFF;stroke-width:9.851038e-02;stroke-miterlimit:10;}
	.st1{fill:#FFFFFF;}
</style>
<g>
	<g>
		<path class="st0" d="M0,34.7h2.9l3.2,9.7h0l3.2-9.7h2.9v12.4h-2v-9.6h0L7,47.1H5.3L2,37.5h0v9.6H0V34.7z"/>
		<path class="st0" d="M17.7,34.7h2.2l4.5,12.4h-2.2l-1.1-3.3h-4.7l-1.1,3.3h-2.1L17.7,34.7z M16.9,42.2h3.6l-1.8-5.3h0L16.9,42.2z"
			/>
		<path class="st0" d="M25.3,34.7h2.1v10.5h6v1.9h-8V34.7z"/>
		<path class="st0" d="M34.4,34.7h2.1v12.4h-2.1V34.7z"/>
		<path class="st0" d="M38.7,34.7h2.1v5.6l5.2-5.6h2.5l-4.7,4.9l5,7.4h-2.6l-3.9-5.9l-1.7,1.8v4.2h-2.1V34.7z"/>
		<path class="st0" d="M54.4,34.7h5.7c1.1,0,1.9,0.3,2.5,0.8c0.6,0.5,1,1.3,1,2.3c0,0.6-0.1,1.2-0.4,1.6c-0.3,0.4-0.7,0.8-1.2,1v0
			c0.7,0.2,1.3,0.5,1.6,1.1c0.4,0.6,0.6,1.3,0.6,2.1c0,0.5-0.1,0.9-0.2,1.4c-0.2,0.4-0.4,0.8-0.8,1.1c-0.4,0.3-0.8,0.5-1.4,0.7
			c-0.5,0.2-1.2,0.3-2,0.3h-5.4V34.7z M56.5,39.9h3.4c0.5,0,0.9-0.1,1.2-0.4c0.3-0.3,0.5-0.7,0.5-1.3c0-0.6-0.1-1.1-0.4-1.3
			c-0.3-0.3-0.7-0.4-1.3-0.4h-3.4V39.9z M56.5,45.3h3.6c0.6,0,1.1-0.2,1.5-0.5c0.3-0.3,0.5-0.8,0.5-1.4c0-0.6-0.2-1.1-0.5-1.4
			c-0.3-0.3-0.8-0.5-1.5-0.5h-3.6V45.3z"/>
		<path class="st0" d="M68.8,34.7H71l4.5,12.4h-2.2l-1.1-3.3h-4.7l-1.1,3.3h-2.1L68.8,34.7z M68.1,42.2h3.6l-1.8-5.3h0L68.1,42.2z"
			/>
		<path class="st0" d="M76.5,34.7h4.9c0.9,0,1.7,0.2,2.3,0.5c0.7,0.3,1.2,0.8,1.6,1.3c0.4,0.6,0.7,1.2,0.9,2
			c0.2,0.8,0.3,1.6,0.3,2.4c0,0.9-0.1,1.7-0.3,2.4c-0.2,0.8-0.5,1.4-0.9,2c-0.4,0.6-1,1-1.6,1.3c-0.7,0.3-1.4,0.5-2.3,0.5h-4.9V34.7
			z M78.5,45.3h2c0.8,0,1.5-0.1,2-0.3c0.5-0.2,0.9-0.5,1.2-0.9c0.3-0.4,0.5-0.9,0.6-1.4c0.1-0.5,0.2-1.1,0.2-1.7
			c0-0.6-0.1-1.2-0.2-1.7c-0.1-0.5-0.3-1-0.6-1.4c-0.3-0.4-0.7-0.7-1.2-0.9c-0.5-0.2-1.2-0.3-2-0.3h-2V45.3z"/>
		<path class="st0" d="M87.9,34.7h8.5v1.9H90v3.2h5.9v1.8H90v3.6h6.5v1.9h-8.6V34.7z"/>
		<path class="st0" d="M98,34.7h5.6c1.3,0,2.3,0.3,2.9,0.9c0.6,0.6,1,1.4,1,2.5c0,0.6-0.1,1.1-0.2,1.5c-0.2,0.4-0.4,0.7-0.6,0.9
			c-0.2,0.2-0.4,0.4-0.7,0.5c-0.2,0.1-0.4,0.2-0.5,0.2v0c0.2,0,0.4,0.1,0.6,0.2s0.4,0.2,0.6,0.4c0.2,0.2,0.3,0.5,0.4,0.8
			c0.1,0.3,0.2,0.7,0.2,1.2c0,0.7,0.1,1.4,0.2,2c0.1,0.6,0.3,1,0.5,1.3h-2.2c-0.2-0.3-0.2-0.6-0.3-0.9c0-0.3,0-0.6,0-0.9
			c0-0.6,0-1.1-0.1-1.5c-0.1-0.4-0.2-0.8-0.4-1c-0.2-0.3-0.4-0.5-0.7-0.6c-0.3-0.1-0.7-0.2-1.2-0.2h-3v5.1H98V34.7z M100.1,40.3h3.4
			c0.7,0,1.2-0.2,1.5-0.5c0.3-0.3,0.5-0.8,0.5-1.5c0-0.4-0.1-0.7-0.2-1c-0.1-0.2-0.3-0.4-0.5-0.6c-0.2-0.1-0.4-0.2-0.7-0.3
			s-0.5-0.1-0.8-0.1h-3.3V40.3z"/>
	</g>
	<g>
		<path class="st1" d="M31.2,15.7c0.1-0.5,0.1-0.8,0-0.8c-0.2-0.1-0.7,0.5-1.4,1.7C29,18.1,28.4,19,28,19.5
			c-0.7,0.9-1.5,1.7-2.4,2.3c-0.7,0.5-1.7,1-2.7,1.4c-0.9,0.4-1.9,0.7-2.8,1.1c-0.5,0.2-0.7,0.3-0.7,0.5c0,0.2,0.1,0.3,0.3,0.3
			c0.2,0,0.6,0.1,1.1,0c1.7-0.1,2.6-0.2,2.7-0.2c1.1-0.1,2-0.4,2.5-0.8c1.5-1.1,3.1-3.4,4.6-7C31,16.4,31.1,15.9,31.2,15.7z"/>
		<path class="st1" d="M41.1,17c-0.6,0.9-0.9,1.6-1,2.1c-0.2,1-0.2,1.6-0.3,1.7c-0.4,0.5-1,0.7-1.9,0.7h-0.5h-0.5h-0.1
			c-0.5,0-0.9-0.3-1.2-0.8c-0.3-0.4-0.4-0.9-0.4-1.5c0-0.2,0.1-0.8,0.4-1.6c0.3-0.8,0.4-1.5,0.4-1.9l-0.1-0.3
			c-0.2,0.1-0.5,0.7-0.9,1.6c-0.2,0.6-0.5,1.3-0.7,1.9c-0.5,1.2-1.2,2.3-2.3,3.3c-0.6,0.6-1.4,1.3-2.5,2c-0.9,0.6-1.4,1-1.5,1.2
			c0.1,0.1,0.2,0.2,0.3,0.2c0.1,0,0.7-0.2,1.8-0.5c0.9-0.3,1.4-0.5,1.4-0.5c0.6-0.3,1-0.6,1.1-0.9c0.5-1,0.8-1.6,1-1.9
			c0.3,0.9,0.7,1.5,1.1,1.8c0.5,0.4,1.1,0.6,2,0.6h0.2h0.5h0.1c0.5,0,1.1-0.4,1.9-1.2c0.9-1,1.6-2.2,2.1-3.7
			c0.8-2.5,1.1-3.9,1.1-4.1c0-0.2,0-0.3-0.1-0.4C42.1,15.6,41.6,16.2,41.1,17z"/>
		<path class="st1" d="M40.4,25.7L40,25.6c-0.4,0.6-1,1.4-1.6,2.3c0.4,0.4,1,0.8,1.8,1.2c1.1-1.1,1.7-1.8,1.7-2
			C41.9,26.9,41.4,26.5,40.4,25.7z"/>
		<path class="st1" d="M56.3,20.9c0.1,0.2,0.2,0.3,0.3,0.3c0.4,0,1-0.3,1.7-0.9c0.7-0.6,1-1.1,1-1.5c0-0.2-0.2-0.3-0.6-0.5
			c-0.4-0.1-0.6-0.2-0.6-0.3c0-0.4,0.7-1.1,2.2-2.1c1.2-0.9,2.2-1.5,2.8-1.8c0.5-0.2,0.7-0.5,0.7-0.8c0-0.3-0.1-0.4-0.3-0.4
			c-0.6,0-1.8,0.9-3.6,2.6c-1.8,1.7-2.7,2.9-2.7,3.5c0,0.2,0.2,0.3,0.5,0.5c0.3,0.1,0.5,0.3,0.5,0.4C58,19.9,57.5,20.3,56.3,20.9z"
			/>
		<path class="st1" d="M76.3,10.8c-0.5,1.6-0.7,3-0.7,4.3c0,2.1-0.2,3.6-0.5,4.5c-0.6,1.6-1.7,2.4-3.3,2.4h-0.1H71
			c-1,0-1.5-0.8-1.5-2.3c0-0.1,0.1-2,0.3-5.6c0-0.6,0-1.2,0.1-1.7c0.1-0.7,0.3-1.2,0.6-1.5c0.5-0.4,1-0.8,1.6-1.2
			c0.3-0.2,0.9-0.5,1.8-1c3.4-1.8,5.2-2.8,5.3-2.9c2.2-1.3,3.7-2.5,4.6-3.7c0.3-0.4,0.5-0.7,0.5-1c0-0.1-0.1-0.2-0.3-0.3
			c-0.4,0.3-0.7,0.5-1,0.8c-1.3,1-2.9,2-5,3.1c-2.4,1.2-4,2.1-4.8,2.6c-1.7,1.2-2.9,2.2-3.5,3.3c-0.5,0.9-0.9,2-1.2,3.4
			c-0.1,0.4-0.2,1.4-0.3,3.1c-0.1,1.5-0.2,2.5-0.3,2.7c-0.4,0.8-1.7,1.9-4.2,2.9c-3.1,1.2-6.3,1.8-9.3,1.8c-2.2,0-3.6-0.1-4.5-0.6
			c-0.6-0.4-1.1-0.8-1.3-0.9c-0.3-0.3-0.4-0.9-0.4-1.4c0-0.2,0-0.4,0-0.7c0-0.3,0-0.5,0-0.7c0-0.5-0.1-0.7-0.4-0.7
			c-0.2,0-0.3,0.2-0.4,0.7c-0.2,1-0.3,1.8-0.3,2.4c0,1.5,0.3,2.2,0.7,2.8c0.7,0.9,2.2,1.3,5,1.3c1.8,0,3.9-0.1,6-0.5
			c2.4-0.4,4.2-1.3,5.4-2c0.9-0.6,2.1-1.3,3.6-3.1c0.5,1.6,0.8,2.4,0.8,2.5c0.4,0.8,1.1,1.2,2,1.2v0H71h0.7h0.1c1,0,2-0.8,3-2.5
			c1.2-2,2-4.4,2.2-7.4c0.2-1.8,0.3-3.2,0.4-4.1c0.2-1.3,0.3-2.2,0.5-2.7l-0.2-0.1C77.1,8.6,76.7,9.5,76.3,10.8z"/>
		<path class="st1" d="M88.9,18.1c-0.3-0.6-0.5-1.1-0.7-1.3c-0.4,0.4-0.7,0.7-0.9,0.9C86.4,18.3,85.6,19,85,20
			c-0.7,1-1.2,1.5-1.6,1.7c-0.4,0.2-1,0.3-1.8,0.3h-0.4h-0.3c-1,0-1.5-1.8-1.5-5.3c0-2.7,0.3-5.8,1-9.4L80,7.3
			c-0.6,1.6-1.1,3.9-1.5,7c-0.4,2.8-0.5,5.2-0.5,7.3c0,1,0.2,1.8,0.7,2.4c0.5,0.6,1.3,1,2.2,1h0.3c0.1,0,0.2,0,0.3,0h0.5v-0.1
			c0.4-0.1,0.8-0.3,1.1-0.6l1.1-1.8c0.6-0.9,1.2-1.4,1.8-1.4c0.2,0,0.8,0.2,1.6,0.5c0.3,0,0.7-0.3,1.1-0.9c0.5-0.6,0.7-1.1,0.7-1.4
			C89.4,19.2,89.2,18.8,88.9,18.1z"/>
	</g>
</g>
</svg>
