<?xml version="1.0" encoding="utf-8"?>
<!-- Generator: Adobe Illustrator 25.4.1, SVG Export Plug-In . SVG Version: 6.00 Build 0)  -->
<svg version="1.1" id="wordmark" xmlns="http://www.w3.org/2000/svg" xmlns:xlink="http://www.w3.org/1999/xlink" x="0px" y="0px"
	 viewBox="0 0 365 154.8" style="enable-background:new 0 0 365 154.8;" xml:space="preserve">
<style type="text/css">
	.st0{fill:#FFFFFF;}
</style>
<g>
	<path class="st0" d="M273.7,57.5c1.8,1.2,2.4,1.3,2.6,1.3h0.5l0.1,0.5c1.1,5.2,1.7,10.6,1.9,15.9c0.2,5.3,0.3,10.7,0.3,16
		c0,5.3,0,10.6,0.1,15.8c0.1,5.2,0.5,10.5,1.3,15.6c0.1,0.2,0.3,0.5,0.8,1c0.5,0.5,1,1.1,1.6,1.7c0.6,0.6,1.2,1.2,1.8,1.7
		c0.6,0.5,0.9,0.7,1,0.8h1.4c0.8,0,1.9-0.3,3.1-0.8c1.2-0.5,2.4-1.2,3.6-1.9c1.1-0.8,2.1-1.6,2.9-2.5c0.7-0.8,1-1.6,1-2.4
		c0,0,0-0.1-0.1-0.3c0-0.1-0.1-0.3-0.1-0.4l-5.4-5.4l0-0.2c-1.2-9.6-1.9-19.7-2-30.1c-0.1-10.3-0.1-20.3,0.2-29.7
		c-0.6-1.7-1.6-3.4-2.9-4.9c-1.2-1.5-2.8-2.2-4.7-2.2c-0.7,0-1.7,0.3-3.1,1c-1.4,0.7-2.8,1.6-4.2,2.5c-1.3,1-2.5,2-3.3,3
		c-0.5,0.6-1,1.4-0.6,1.9C271.6,55.8,272,56.4,273.7,57.5z"/>
	<path class="st0" d="M322.5,87.8c2.6,0.8,4.8,2.2,6.3,4.1c1.5,1.8,2.8,3.9,3.8,6.2c1,2.3,1.9,4.7,2.6,7.1c0.7,2.4,1.5,4.6,2.3,6.5
		c0.5,1.4,1.1,3,1.7,4.9c0.6,1.9,1.3,3.7,2.2,5.4c0.8,1.7,1.9,3.1,3.1,4.2c1.2,1.1,2.6,1.6,4.5,1.6c2.5,0,4.8-1,7-3
		c2-1.8,3.7-3.6,5.3-5.3c-2.9-1.1-5.2-3-7-5.6c-1.9-2.9-3.5-6.1-4.8-9.6c-1.3-3.4-2.4-7-3.5-10.5c-1-3.4-2.4-6.3-4.1-8.7
		c-0.2-0.2-0.6-0.6-1.3-1.3l-2.3-2.3c-0.7-0.7-1.5-1.4-2.3-2.2c-0.9-0.9-1.3-1.3-1.4-1.5c-0.2-0.3-0.3-0.7-0.3-1.4
		c0-0.7,0.1-1.2,0.4-1.4c0.6-0.5,1.6-1.3,2.9-2.4c1.4-1.2,2.8-2.5,4.3-3.9c1.5-1.4,2.9-2.7,4.3-3.9c1.4-1.2,2.4-2,2.9-2.4l1.7-1.7
		c0,0,0,0,0,0c0,0,0-0.2,0-0.6c0-0.5-0.3-1.4-1.5-3.3c-1-1.6-2.3-3.1-3.7-4.5c-1.4-1.4-2.9-2.7-4.4-3.8c-1.4-1-2.6-1.6-3.5-1.6
		c-1.4,0-2.7,0.3-4,1c-1.4,0.7-2.7,1.6-4,2.5c-1.3,1-2.6,2-4,3.1c-1.4,1.1-2.8,1.9-4.2,2.5l-0.9,0.3V10.3c-0.1-0.1-0.4-0.5-1.5-1.4
		c-1-0.8-1.8-1.4-2.4-1.7c-0.2,0-0.7-0.1-1.9-0.2c-1.2-0.1-2.1-0.2-2.7-0.2c-0.6,0-1.5,0.1-2.5,0.2c-1.1,0.1-1.5,0.2-1.7,0.2
		c-0.5,0.3-1,0.6-1.6,1c-0.6,0.4-1.2,1-1.8,1.5c-0.6,0.6-1,1.1-1.3,1.6c-0.1,0.2-0.2,0.3-0.2,0.4l6.4,7.4v103.7
		c0.1,0.2,0.5,0.6,2.2,2c1.5,1.3,2.8,2.3,3.9,2.9c0.4,0.1,0.5,0.1,0.5,0.1c0,0,0.1,0,0.3-0.1c0.2-0.1,0.4-0.1,0.6-0.1
		c0.3-0.1,0.8-0.4,1.9-1c1-0.6,2-1.3,3-2.1c1-0.8,2-1.6,2.7-2.4c0.7-0.7,1-1.4,1-2.1c0,0,0-0.1-0.2-0.6c-0.1-0.3-0.6-1.1-1.7-2.7
		l-1.9-2.9V87.6L322.5,87.8z M321.7,59.4c0-0.9,0.8-1.8,2.4-2.9c1.5-1,2.7-1.5,3.6-1.5c0.3,0,0.5,0.1,2,1.6c1,1,1.7,1.8,2.1,2.5
		c0.2,0.3,0.6,0.9,1.2,1.5c0.6,0.7,1.2,1.4,1.8,2.2c0.6,0.8,1.1,1.5,1.6,2.2c0.6,0.9,0.8,1.1,0.8,1.1l0.2,0.2v2.3l-15.9,15.8V59.4z"
		/>
	<path class="st0" d="M231.3,126.4c0.8-0.8,1.5-1.5,2.1-2.2c0.4-0.4,0.7-0.8,0.9-1.1c-1.1-0.9-2-1.9-2.9-3c-1-1.3-1.8-2.8-2.2-4.3
		l0-0.2v-4.2c0-2,0-4.3-0.1-6.6c-0.1-2.2-0.1-4.3-0.1-6.4V88.2c0-2.5,0-4.8,0.1-7c0.1-2.3,0.1-4.3,0.1-6v-3c0-0.8,0.1-2.1,0.2-3.7
		c0.1-1.5,0.3-3.2,0.5-5c0.2-1.7,0.4-3.4,0.6-4.9c0.3-2.1,0.4-2.7,0.5-3c0.1-0.6,0.7-1.6,1.7-3c0.4-0.6,0.7-1,1-1.4
		c-0.6,0-1.4,0-2.2,0c-1.8,0-2.9-0.1-3.5-0.2c-0.2,0-0.7-0.1-1.8-0.3c-0.9-0.2-1.8-0.4-2.9-0.6c-1.1-0.2-2.1-0.4-2.9-0.6
		c-1.1-0.3-1.5-0.3-1.6-0.3h-2.8c-1.7,0-3.5,0-5.3-0.1c-1.9-0.1-3.9-0.1-5.9-0.1h-8c-1.3,0-2.6,0-3.9,0.1c-1.2,0.1-2.4,0.1-3.5,0.1
		h-1.1l-8.2,8.2c4.6,2.6,9.2,5.8,13.9,9.6c4.9,4,8.6,8.6,11.1,13.7l0.2,0.5l-0.4,0.3c-2.3,1.7-4.8,3.6-7.5,5.6
		c-2.7,2-5.3,4.2-7.6,6.5c-2.4,2.3-4.3,4.9-5.9,7.6c-1.5,2.7-2.3,5.6-2.3,8.6c0,2.2,0.4,4.5,1.1,6.8c0.7,2.3,1.8,4.5,3.1,6.4
		c1.3,1.9,3,3.5,4.9,4.7c1.9,1.2,4,1.8,6.3,1.8c3.9,0,7.1-0.9,9.5-2.7c2.5-1.8,5.4-4,8.5-6.4l0.6-0.5l2,4.9c0.4,1.1,0.9,2,1.5,2.6
		c0.5,0.7,1.2,1.2,2.1,1.5c0.8,0.4,2,0.5,3.6,0.5h3.3c0.2-0.1,0.6-0.3,1.3-1L231.3,126.4z M219.3,61.6c-0.1,0.4-0.2,1.1-0.4,2.7
		c-0.1,1.3-0.3,2.8-0.5,4.3c-0.2,1.5-0.4,3-0.6,4.4c-0.2,1.4-0.3,2.3-0.3,2.8c-0.1,1.5-0.3,4.2-0.4,7.9c-0.1,3.8-0.3,7.9-0.5,12.1
		c-0.2,4.3-0.4,8.3-0.6,12c-0.2,3.7-0.3,6.3-0.3,7.8v0.1l-0.1,0.1c-0.2,0.4-0.7,1.1-2.6,3.1c-1.4,1.4-2.4,2.3-3,2.8l-0.2,0.1h-2.2
		l-0.1-0.1c-3.9-2.3-7.4-5.4-10.3-9.2c-2.9-3.8-4.4-8.3-4.4-13.2c0-1.6,0.4-3.1,1.3-4.7c0.8-1.5,1.8-2.9,3-4.3
		c1.2-1.4,2.4-2.6,3.7-3.6c1.3-1,2.3-1.8,3.1-2.5l0.1-0.1l1.1-0.3c1.3,0,1.9,0.8,2.2,1.4c0.3,0.7,0.5,1.5,0.7,2.3
		c0.2,0.9,0.4,1.7,0.7,2.5c0.1,0.3,0.2,0.6,0.4,0.8c0-0.3,0-0.7,0.1-1.2c0.1-1.2,0.1-1.9,0.1-2.2c0-1.7,0-3.1-0.1-4.3
		c-0.1-1-0.7-2.2-1.8-3.5c-0.6-0.6-1.8-1.9-3.3-3.6c-1.5-1.7-3.2-3.6-4.9-5.5c-1.7-1.9-3.4-3.7-4.9-5.4c-1.5-1.6-2.6-2.8-3.3-3.5
		l-0.6-0.6l0.8-0.4c0.3-0.1,0.7-0.4,1.4-0.8c0.7-0.4,1.4-0.8,2.2-1.2c0.8-0.4,1.6-0.8,2.3-1.1c0.7-0.3,1.2-0.6,1.5-0.7l0.1-0.1h1.7
		c3,0,6.2,0.5,9.5,1.5c3.3,1,6.2,1.8,8.8,2.3l0.6,0.1L219.3,61.6z"/>
	<path class="st0" d="M271.3,16.8c0,0,0,0.1,0.1,0.3c0,0.2,0.1,0.3,0.1,0.4l1.6,1.6c0.7,0.6,2.3,1.7,4.9,3.3l8.7-8.5v-1.3
		c-0.3-0.4-1-1.2-2.5-2.7s-2.3-2.2-2.7-2.5h-1.3l-8.7,8.9C271.3,16.7,271.3,16.8,271.3,16.8z"/>
	<path class="st0" d="M245,123.7c0.5,0.5,1,1,1.7,1.6c0.7,0.6,1.3,1.1,2,1.7c0.8,0.6,1.3,0.8,1.5,0.9l0.2,0.1c0.1,0,0.4,0.1,1.2,0.2
		c0.9,0.1,1.6,0.1,2.2,0.1c0.5,0,1.2,0,2-0.1c0.9-0.1,1.2-0.2,1.2-0.2l0.1-0.1l0.1,0c0.2-0.1,0.6-0.3,1.4-1l2.2-2.2
		c0.8-0.8,1.5-1.5,2.1-2.2c0.4-0.4,0.7-0.8,1-1.1l-7-7.2v-0.3c0-1.9,0-5,0.1-8.8c0.1-4,0.1-8.5,0.1-13.4V60.2c0-5,0-9.6-0.1-13.6
		c-0.1-3.8-0.1-6.9-0.1-8.8c0-1.2-0.1-3.3-0.3-6.2c-0.2-2.9-0.4-6-0.6-9.3c-0.2-3.5-0.4-6.5-0.5-9.2c-0.1-2.5-0.2-4.4-0.4-5.6
		c-0.4-0.1-1-0.2-2.2-0.3c-1.4-0.1-2.3-0.2-2.8-0.2c-0.6,0-1.6,0.1-3,0.2c-1.4,0.1-1.9,0.2-2,0.3l-0.1,0.1c-0.4,0.2-1.3,0.7-3,2.3
		c-1.9,1.7-2,2.4-2,2.5c0,0.3,0.1,0.7,0.3,1.1c0.2,0.5,0.6,1,1.1,1.6c0.5,0.6,1,1.1,1.5,1.5c0.5,0.5,0.9,0.5,1,0.5h0.6V123
		C244.5,123,244.6,123.2,245,123.7z"/>
	<path class="st0" d="M82.1,8.6c-0.2,0.7-0.3,1.1-0.6,1.3L81.4,10h-0.3c-0.1,0-0.6,0.1-2.8,0.7l-4.6,1.1h-0.8
		c-1.9,0-3.8-0.3-5.6-0.9c-1.8-0.6-3.5-1.3-5.2-2c-1.7-0.7-3.5-1.4-5.3-2C55.1,6.3,53.2,6,51.3,6c-2.2,0-4.7,0.5-7.5,1.5
		c-2.8,1-5.5,2.3-8.1,3.9c-2.5,1.6-4.7,3.6-6.3,5.8c-1.6,2.1-2.5,4.4-2.5,6.8c0,1.3,0.6,2.5,1.7,3.5l0,0c1,0.9,2,1.4,3,1.6
		c0-0.3,0-0.8-0.1-1.4c-0.1-1.5-0.2-1.8-0.2-1.9l-0.1-0.1l0-0.1c0-0.1-0.1-0.5-0.9-2.5c-0.8-2.1-0.9-2.7-0.9-2.9
		c0-1.2,0.6-2.1,1.6-2.6c0.9-0.5,2-0.9,3.2-1.2c1.2-0.3,2.3-0.4,3.5-0.5c1.2-0.1,1.9-0.1,2.3-0.1c2,0,4,0.2,5.7,0.6
		c1.7,0.4,3.4,0.9,5.1,1.4c1.6,0.5,3.2,1,4.9,1.4c1.7,0.4,3.6,0.6,5.9,0.6c1.7,0,3.9-0.4,6.6-1.1c2.7-0.7,5.5-1.7,8.1-3
		c2.6-1.2,4.9-2.7,6.7-4.5c1.8-1.7,2.7-3.5,2.7-5.5c-0.1-0.1-0.2-0.2-0.5-0.5c-0.4-0.3-0.7-0.6-1-0.9c-0.1,0-0.3-0.1-0.4-0.1
		c-0.2-0.1-0.3-0.1-0.3-0.1c0,0-0.1,0-0.4,0.1c0,0.1-0.1,0.3-0.2,0.7c-0.1,0.6-0.3,1.3-0.5,1.9C82.4,7.5,82.2,8.1,82.1,8.6z"/>
	<path class="st0" d="M105.3,77.2v43.2l-3.5,5c0.5,0.2,1.1,0.5,1.9,0.9c1.2,0.5,2.5,1.1,3.8,1.7c1.3,0.6,2.6,1.1,3.8,1.6
		c1.1,0.4,2,0.7,2.5,0.9c0.2,0,0.5,0,0.8,0.1c0.4,0.1,0.7,0.1,0.9,0.1c0.7,0,1.6-0.3,2.7-0.7c1.1-0.5,2.3-1.2,3.5-1.9
		c1.1-0.8,2.1-1.6,3-2.6c0.8-0.9,1.1-1.7,1.1-2.3v-0.9c-0.2-0.3-0.4-0.9-0.8-1.7c-0.5-0.9-0.8-1.5-0.9-1.8l-0.1-0.1V82
		c0-0.4,0.3-0.7,1.1-1.3c0.6-0.4,1.3-0.8,2.1-1.3c0.8-0.4,1.6-0.8,2.5-1c0.8-0.3,1.5-0.5,2-0.6c0.3-0.1,1-0.3,3.4-0.4
		c1.9-0.1,3.3-0.2,4.2-0.2c0.7,0,1.6,0.1,3,0.2c1.8,0.2,2.3,0.3,2.5,0.5l0.1,0.1l2.2,2l0,0.3c0.3,3.9,0.5,7.2,0.7,9.9
		c0.2,2.7,0.4,5.5,0.6,8.4c0.2,2.9,0.4,5.2,0.5,7.1l0,3c0,2.6-0.2,5.2-0.7,8c-0.4,2.6-1.4,5-2.8,7c0.3,0.2,0.8,0.4,1.3,0.7
		c0.9,0.5,1.8,1,2.7,1.6c0.9,0.6,1.8,1.2,2.7,1.7c1,0.6,1.5,0.9,1.8,0.9c0.6,0.3,1.7,0.9,3.5,1.7c0.1,0,0.3-0.1,0.8-0.3
		c0.6-0.3,1.3-0.6,2.1-1c0.8-0.4,1.6-0.8,2.3-1.2c0.8-0.4,1.3-0.7,1.6-1c0.8-0.5,1.8-1.2,3.1-2c1.3-0.8,2.5-1.6,3.7-2.3
		c1.1-0.7,2.4-1.6,3.9-2.7v-0.6c-0.5,0.2-1.1,0.4-1.9,0.6c-1.4,0.5-2.3,0.8-2.7,0.9l-0.2,0H168l-0.2-0.2c0,0-0.2-0.2-1.2-0.7
		c-0.8-0.4-1.7-0.9-2.6-1.5c-0.9-0.6-1.7-1.3-2.5-2c-0.9-0.8-1.3-1.6-1.3-2.5v-1.2c0.1-4.3,0.3-9.4,0.4-15.4
		c0.1-6,0.3-12.2,0.4-18.7c0.1-6.5,0.3-12.9,0.4-19.2c0.1-6.3,0.2-12,0.3-17c0.1-5.1,0.2-10.7,0.3-16.9l0-0.1l1.6-3.2
		c-1.2-0.7-2.9-1.5-4.8-2.5c-2.2-1.1-4.6-2.1-7.1-3c-2.5-0.9-4.8-1.7-7-2.4c-2.1-0.6-3.8-1-4.9-1h-1.4c-0.7,0-0.8,0.1-0.8,0.1
		l-0.1,0.1l0,0l-18.5,9.1L96.8,11.6c0,0,0,0-0.1,0h-1c-1.1,0-2,0.1-2.7,0.4c-0.7,0.2-1.5,0.8-2.5,1.5l-5.1,3.7
		c-1.9,1.4-3.9,2.9-5.9,4.5c-2,1.6-4,3.3-5.9,5c-1.9,1.7-3.5,3.4-4.8,4.9c-0.1,0.1-0.3,0.3-1,1.3c-0.5,0.7-1.1,1.5-1.7,2.4
		c-0.6,0.8-1.2,1.6-1.7,2.3c-0.7,0.9-0.9,1.2-1,1.3L63.2,39h-0.3c-0.3,0-0.8-0.1-1.5-0.2c-0.7-0.1-1.5-0.3-2.4-0.6
		c-0.9-0.3-1.7-0.5-2.4-0.7c-0.9-0.3-1.1-0.3-1.2-0.3c-0.1,0-0.7,0-1.6-0.1c-0.9-0.1-1.6-0.1-2.2-0.1c-4.1,0-7.8,1.3-10.9,4
		c-2.9,2.4-5.5,5.1-7.8,7.8c1.5,0,2.8-0.3,4.1-0.9c1.5-0.7,3.2-1.1,5-1.1c3.4,0,6.5,0.9,9.2,2.7c2.6,1.8,4.8,4,6.7,6.7
		c1.8,2.6,3.2,5.6,4.2,8.7c0.9,3.1,1.4,6.1,1.4,9v6.7l-0.2,0.2c-0.3,0.3-1,0.7-2,1.1c-0.9,0.4-1.5,0.7-1.8,0.8l-0.1,0.1h-0.1
		c-0.2,0-0.5,0-1.1-0.1c-0.3,0-0.5,0-0.5,0l-0.1,0.1c-3.3,1.3-5.9,2.7-7.9,4c-1.7,1.2-3.6,3.1-5.6,5.7c2.1,0.3,4.1,0.8,6.2,1.5
		c2.4,0.8,4.6,1.9,6.6,3.3c2,1.4,3.6,3.2,4.9,5.3c1.3,2.2,1.9,4.8,1.9,7.8c0,2.4-0.6,4.5-1.8,6.3c-1.2,1.7-2.6,3.2-4.4,4.4
		c-1.7,1.2-3.7,2.1-5.8,2.7c-2.1,0.6-4.2,0.9-6.1,0.9c-3.4,0-6.6-0.7-9.6-2c-2.8-1.2-5.9-1.8-9.2-1.8c-2.1,0-3.8,0.2-5,0.5
		c-1.3,0.3-2.4,0.8-3.4,1.3c-1,0.6-2.1,1.3-3.3,2.2c-1.2,0.9-2.7,2-4.4,3.2c-1.4,1-2.6,1.9-3.6,2.7c-0.9,0.7-1.6,1.5-2.2,2.3
		c-0.5,0.8-0.9,1.8-1.1,2.9c-0.2,1.2-0.3,2.8-0.3,4.8c0,2.6,0.7,5,2.2,7c1.4,2,3.5,2.9,6.4,2.9c1.6,0,3.2-0.4,4.7-1.3
		c1.2-0.7,1.9-1.7,2-2.9c-0.6,0.7-1.3,1.2-2.2,1.4c-1.4,0.3-2.9,0.5-4.6,0.5c-2.3,0-4.2-0.5-5.7-1.6c-1.6-1.1-2.4-2.9-2.4-5.4
		c0-3.6,1.2-6.4,3.4-8.3c2.2-1.8,5.1-2.7,8.4-2.7c3.4,0,6.7,0.7,9.8,2.1c2.9,1.3,6,1.9,9.2,1.9c1.8,0,4-0.6,6.8-1.7
		c2.8-1.1,5.8-2.7,8.9-4.6c3.2-1.9,6.3-4.1,9.4-6.6c3.1-2.4,5.9-4.9,8.4-7.5c2.5-2.5,4.6-5,6.1-7.4c1.5-2.4,2.3-4.5,2.3-6.4V28.9
		l4-2.6V139l1.5-1.1V83.8c0-0.3,0.1-0.6,0.9-1.3c0.5-0.5,0.9-0.9,1.3-1c0.3-0.2,0.9-0.6,1.6-1c0.7-0.4,1.5-0.8,2.3-1.1
		c0.8-0.3,1.5-0.6,2-1c0.7-0.4,1.1-0.5,1.5-0.6c0.4-0.1,1.1-0.3,2.1-0.5c0.4-0.1,0.8-0.2,1.2-0.2c-1.9,0.1-3.7,0.4-5.4,0.8
		c-2.2,0.6-4.5,0.9-6.8,0.9h-0.6V65.2h0.6c0,0,0.2,0,0.7-0.1C84,65,84.4,65,84.7,65c0.1,0,0.4,0,1.5,0.3c0.7,0.2,1.5,0.4,2.3,0.6
		c0.8,0.2,1.6,0.4,2.2,0.6c0.8,0.2,1.1,0.3,1.2,0.3h2.6c1.2,0,2.4-0.1,3.7-0.2c1.3-0.1,2.6-0.2,3.8-0.3c1.2-0.1,2.1-0.1,2.6-0.1h0.6
		v10.4V77.2z M105.3,65.2h-0.6c-3.9,0-7.5,0.1-10.7,0.2c-0.2,0-0.4,0-0.6,0c-3,0-6.1-1-9.1-2.9l-0.1-0.1c-0.3-0.3-0.6-0.6-1.1-1
		c-0.7-0.6-0.9-0.9-0.9-1.3V23.8c0-0.3,0.2-0.7,0.9-1.3c0.5-0.5,0.9-0.9,1.3-1l0.1-0.1h2.1l18.7,9.4V65.2z M121.5,117h-3V27.2l3-3.1
		V117z M147.1,74.8h-0.6c-7.5,0-14.7,1.4-21.6,4.2l-0.9,0.3V65h2.4c0.1,0,0.4,0,1.5,0.3c0.7,0.2,1.5,0.4,2.3,0.6
		c0.8,0.2,1.6,0.4,2.2,0.6c0.8,0.2,1.1,0.3,1.2,0.3c0.5,0,1.4,0,2.6,0.1c1.2,0.1,2.5,0.1,3.8,0.2l0.2,0c1.3,0.1,2.5,0.1,3.6,0.2
		c1.1,0.1,2,0.1,2.6,0.1h0.6V74.8z M148.6,40.6c-0.2,2.7-0.4,5.6-0.6,8.7c-0.2,3.1-0.4,6-0.6,8.8c-0.2,2.8-0.3,4.7-0.3,5.8v0.6h-2.4
		c-0.6,0-1.4,0-2.3,0.1c-0.9,0.1-1.7,0.1-2.5,0.1h-3.8c-1,0-1.9,0-2.7-0.1c-0.9-0.1-1.6-0.1-2.3-0.1h-1c-0.3,0-0.7-0.1-2-0.8
		c-0.9-0.5-1.5-0.8-2-1.1l-0.1-0.1c-0.3-0.3-0.6-0.6-1.1-1c-0.7-0.6-0.9-0.9-0.9-1.3V23.8c0-0.3,0.2-0.7,0.9-1.3
		c0.5-0.5,0.9-0.8,1.3-1l0.1-0.1h0.9c1,0,2.2,0.2,3.8,0.7c1.5,0.5,3,1,4.5,1.6c1.5,0.6,3,1.2,4.3,1.8c1.3,0.6,2.2,1,2.9,1.3
		c0.2,0,0.5,0.1,1.2,0.3l1.8,0.6c0.6,0.2,1.2,0.4,1.7,0.5c0.7,0.2,1.1,0.3,1.3,0.6l0.2,0.2v5.9C148.9,35.9,148.8,37.8,148.6,40.6z"
		/>
</g>
</svg>
