<?xml version="1.0" encoding="utf-8"?>
<!-- Generator: Adobe Illustrator 25.4.1, SVG Export Plug-In . SVG Version: 6.00 Build 0)  -->
<svg version="1.1" id="Layer_1" xmlns="http://www.w3.org/2000/svg" xmlns:xlink="http://www.w3.org/1999/xlink" x="0px" y="0px"
	 viewBox="0 0 381.8 98.4" style="enable-background:new 0 0 381.8 98.4;" xml:space="preserve">
<style type="text/css">
	.st0{fill:#FFFFFF;}
</style>
<g>
	<path class="st0" d="M0.2,82c0.1-0.7,0.3-1.3,0.7-1.8c0.3-0.5,0.8-0.9,1.3-1.4c0.5-0.4,1.2-0.9,2-1.5c1-0.7,1.8-1.3,2.5-1.8
		c0.7-0.5,1.3-1,1.9-1.3c0.6-0.3,1.3-0.6,2-0.8c0.8-0.2,1.7-0.3,3-0.3c2,0,3.8,0.4,5.4,1.1c1.6,0.7,3.4,1.1,5.3,1.1
		c1.1,0,2.2-0.2,3.4-0.5c1.2-0.3,2.2-0.8,3.2-1.5c0.9-0.6,1.7-1.4,2.4-2.4c0.6-0.9,1-2.1,1-3.4c0-1.7-0.3-3.1-1-4.3
		c-0.7-1.2-1.6-2.1-2.7-2.9c-1.1-0.8-2.3-1.4-3.6-1.8c-1.3-0.5-2.7-0.8-4-0.9c1.3-1.7,2.5-3,3.6-3.8c1.1-0.8,2.7-1.6,4.6-2.3
		c0.1-0.1,0.3-0.1,0.6-0.1c0.3,0,0.5,0.1,0.6,0.1c0.2-0.1,0.5-0.2,1-0.5c0.5-0.2,0.9-0.4,1-0.6v-3.6c0-1.6-0.3-3.3-0.8-5
		c-0.5-1.7-1.3-3.4-2.3-4.8c-1-1.5-2.3-2.7-3.7-3.7c-1.4-1-3.1-1.5-5-1.5c-1,0-1.9,0.2-2.7,0.6c-0.8,0.4-1.7,0.6-2.6,0.6
		c-0.1,0-0.2,0-0.3-0.1c-0.1,0-0.2-0.1-0.3-0.1c1.4-1.7,3-3.4,4.8-5c1.9-1.6,4-2.3,6.4-2.3c0.3,0,0.7,0,1.3,0.1
		c0.5,0,0.8,0.1,0.9,0.1c0.1,0,0.3,0.1,0.7,0.2c0.4,0.1,0.9,0.2,1.4,0.4c0.5,0.2,0.9,0.3,1.3,0.3c0.4,0.1,0.6,0.1,0.8,0.1
		c0.1-0.1,0.3-0.3,0.6-0.7c0.3-0.4,0.6-0.8,1-1.3c0.3-0.5,0.7-0.9,1-1.4c0.3-0.4,0.5-0.7,0.6-0.7c0.8-0.9,1.7-1.9,2.8-2.8
		c1.1-1,2.2-1.9,3.4-2.8c1.1-0.9,2.3-1.8,3.4-2.6c1.1-0.8,2.1-1.5,2.9-2.1c0.6-0.5,1.1-0.8,1.5-0.9c0.4-0.2,1-0.2,1.7-0.2
		c0.2,0,0.3,0,0.6,0c0.2,0,0.3,0,0.3,0.1l12.4,6.1l10.4-5.1c0.1-0.1,0.3-0.1,0.7-0.1c0.4,0,0.6,0,0.8,0c0.7,0,1.7,0.2,2.9,0.6
		c1.3,0.4,2.6,0.8,4,1.4c1.4,0.5,2.8,1.1,4,1.7c1.3,0.6,2.3,1.1,3.1,1.6l-1,2.1c-0.1,3.6-0.1,6.8-0.2,9.6c0,2.8-0.1,6.1-0.2,9.7
		c-0.1,3.6-0.2,7.3-0.2,10.9c-0.1,3.7-0.2,7.2-0.2,10.6c-0.1,3.4-0.2,6.3-0.2,8.8v0.7c0,0.4,0.2,0.8,0.6,1.1
		c0.4,0.4,0.9,0.7,1.4,1.1c0.5,0.3,1,0.6,1.4,0.9c0.5,0.2,0.7,0.4,0.8,0.5h0.5h0.6c0.2-0.1,0.7-0.2,1.5-0.5c0.8-0.3,1.3-0.4,1.5-0.5
		v1c-0.9,0.7-1.7,1.2-2.4,1.7c-0.7,0.4-1.4,0.9-2.1,1.3c-0.7,0.5-1.3,0.8-1.8,1.1c-0.2,0.2-0.6,0.3-1,0.6c-0.4,0.2-0.9,0.5-1.3,0.7
		s-0.9,0.4-1.2,0.6c-0.3,0.2-0.6,0.2-0.6,0.2c-1.1-0.5-1.7-0.9-2.1-1c-0.2-0.1-0.6-0.3-1.1-0.6c-0.5-0.3-1-0.6-1.5-1
		c-0.5-0.3-1-0.6-1.5-0.9c-0.5-0.3-0.9-0.5-1.1-0.6c0.9-1.2,1.5-2.6,1.8-4.2c0.3-1.6,0.4-3.1,0.4-4.5v-1.7c-0.1-1.1-0.2-2.4-0.3-4
		c-0.1-1.6-0.2-3.2-0.3-4.8c-0.1-1.6-0.2-3.4-0.4-5.6l-1.1-1c-0.2-0.1-0.6-0.2-1.3-0.2c-0.7-0.1-1.3-0.1-1.7-0.1
		c-0.5,0-1.3,0-2.4,0.1c-1.1,0.1-1.7,0.2-1.8,0.2c-0.3,0.1-0.7,0.2-1.1,0.3c-0.5,0.2-0.9,0.3-1.4,0.6c-0.5,0.2-0.8,0.5-1.1,0.7
		c-0.3,0.2-0.5,0.4-0.5,0.5v20.7c0.1,0.2,0.2,0.5,0.5,1c0.3,0.5,0.4,0.9,0.5,1v0.6c0,0.5-0.2,1-0.7,1.5c-0.5,0.6-1.1,1.1-1.8,1.5
		c-0.7,0.5-1.4,0.8-2,1.1c-0.7,0.3-1.3,0.5-1.7,0.5c-0.2,0-0.3,0-0.6-0.1c-0.2,0-0.4-0.1-0.5-0.1c-0.3-0.1-0.8-0.2-1.5-0.5
		c-0.7-0.3-1.4-0.6-2.2-0.9c-0.8-0.3-1.5-0.7-2.2-1c-0.7-0.3-1.2-0.5-1.5-0.7l2.2-3.1V42.8c-0.3,0-0.8,0-1.5,0.1
		c-0.7,0-1.4,0.1-2.2,0.2c-0.8,0.1-1.5,0.1-2.2,0.1s-1.2,0-1.5,0c-0.2,0-0.4-0.1-0.8-0.2c-0.4-0.1-0.8-0.2-1.3-0.3
		c-0.5-0.1-0.9-0.2-1.3-0.3c-0.4-0.1-0.7-0.2-0.7-0.2c-0.2,0-0.3,0-0.6,0.1c-0.2,0-0.4,0.1-0.5,0.1v7.1c1.3,0,2.5-0.2,3.8-0.5
		c1.2-0.3,2.5-0.5,4-0.5c0.3,0,0.9,0,1.8,0c0.9,0,1.5,0,1.8,0.1c-0.2,0-0.6,0-1.3,0.1c-0.6,0.1-1.3,0.2-1.9,0.3S52.6,49,52,49.1
		c-0.6,0.1-1,0.2-1.2,0.3c-0.2,0-0.4,0.1-0.7,0.3c-0.3,0.2-0.7,0.4-1.2,0.6c-0.5,0.2-0.9,0.4-1.3,0.6c-0.4,0.2-0.7,0.4-0.9,0.6
		c-0.2,0.1-0.4,0.2-0.6,0.5c-0.3,0.3-0.4,0.4-0.4,0.5v31l-1.6,1.1V20.3l-1.6,1v40.4c0,1.1-0.5,2.4-1.4,3.8c-0.9,1.4-2.1,2.8-3.5,4.3
		c-1.4,1.4-3.1,2.9-4.8,4.3c-1.8,1.4-3.6,2.7-5.4,3.8c-1.8,1.1-3.5,2-5.1,2.6c-1.6,0.6-2.9,1-4,1c-1.9,0-3.7-0.4-5.4-1.1
		c-1.7-0.8-3.5-1.1-5.4-1.1c-1.8,0-3.3,0.5-4.6,1.5c-1.2,1-1.8,2.5-1.8,4.4c0,1.3,0.4,2.2,1.2,2.8c0.8,0.6,1.8,0.9,3,0.9
		c0.9,0,1.7-0.1,2.5-0.3c0.8-0.2,1.3-0.8,1.7-1.9v1c0,1.1-0.5,1.9-1.4,2.4c-0.9,0.5-1.9,0.8-2.8,0.8c-1.7,0-3.1-0.6-3.9-1.8
		C0.4,87.8,0,86.4,0,84.8C0,83.7,0.1,82.7,0.2,82z M14.9,14.3c1-1.3,2.2-2.4,3.7-3.4c1.5-0.9,3-1.7,4.7-2.3c1.6-0.6,3.1-0.9,4.4-0.9
		c1.1,0,2.2,0.2,3.2,0.5c1,0.3,2,0.7,3,1.1c1,0.4,2,0.8,3,1.1c1,0.3,2,0.5,3.1,0.5h0.5c0.6-0.2,1.4-0.4,2.5-0.6
		c1.1-0.3,1.6-0.4,1.7-0.4c0.1-0.1,0.2-0.3,0.2-0.6c0.1-0.3,0.2-0.6,0.3-1c0.1-0.3,0.2-0.7,0.3-1c0.1-0.3,0.2-0.5,0.2-0.6
		c0.2-0.1,0.4-0.1,0.5-0.1c0.1,0,0.2,0,0.3,0.1c0.1,0,0.2,0.1,0.3,0.1c0.2,0.2,0.4,0.3,0.6,0.6c0.3,0.2,0.4,0.4,0.4,0.5
		c0,1.3-0.6,2.4-1.7,3.5c-1.1,1-2.4,1.9-3.9,2.6c-1.5,0.7-3.1,1.3-4.7,1.7c-1.6,0.4-2.9,0.6-3.9,0.6c-1.3,0-2.4-0.1-3.4-0.3
		c-1-0.2-1.9-0.5-2.8-0.8c-0.9-0.3-1.9-0.6-2.8-0.8c-1-0.2-2-0.3-3.2-0.3c-0.2,0-0.7,0-1.3,0.1c-0.6,0-1.3,0.1-1.9,0.3
		c-0.6,0.2-1.2,0.4-1.7,0.6c-0.5,0.3-0.7,0.7-0.7,1.2c0,0.2,0.2,0.7,0.5,1.5c0.3,0.9,0.5,1.4,0.5,1.5c0.1,0.2,0.1,0.6,0.2,1.2
		c0,0.6,0.1,1,0.1,1.2c-0.8,0-1.6-0.3-2.3-1c-0.7-0.7-1.1-1.4-1.1-2.3C13.4,17,13.9,15.6,14.9,14.3z M46.7,17.3
		c-0.2,0.1-0.4,0.2-0.6,0.5c-0.3,0.3-0.4,0.4-0.4,0.5V39c0,0.1,0.1,0.2,0.4,0.5c0.3,0.2,0.5,0.4,0.6,0.6c1.7,1.1,3.5,1.7,5.3,1.6
		c1.8-0.1,3.8-0.1,6.1-0.1v-19l-10.4-5.2h-0.6H46.7z M66.3,71h1V19.3l-1,1V71z M70.5,17.3c-0.2,0.1-0.4,0.2-0.6,0.5
		c-0.3,0.3-0.4,0.4-0.4,0.5V39c0,0.1,0.1,0.2,0.4,0.5c0.3,0.2,0.5,0.4,0.6,0.6c0.2,0.2,0.6,0.4,1.1,0.6c0.5,0.3,0.8,0.4,1,0.4h0.6
		c0.4,0,0.8,0,1.3,0.1c0.5,0,1,0.1,1.5,0.1c0.5,0,0.9,0,1.3,0c0.2,0,0.5,0,0.9,0c0.5,0,0.9,0,1.4-0.1c0.5,0,0.9-0.1,1.3-0.1
		c0.5,0,0.8,0,1,0c0-0.6,0.1-1.7,0.2-3.3c0.1-1.6,0.2-3.3,0.3-5c0.1-1.7,0.2-3.4,0.3-5c0.1-1.6,0.2-2.6,0.2-3.2v-1.9v-1.3
		c-0.1-0.1-0.3-0.2-0.6-0.2c-0.3-0.1-0.6-0.2-1-0.3c-0.3-0.1-0.7-0.2-1-0.3c-0.3-0.1-0.6-0.2-0.6-0.2c-0.4-0.2-1-0.4-1.7-0.7
		c-0.8-0.3-1.6-0.7-2.4-1c-0.9-0.3-1.7-0.6-2.6-0.9c-0.8-0.3-1.5-0.4-2-0.4H70.5z M69.5,49.4c3.9-1.6,8.1-2.4,12.4-2.4v-3.5
		c-0.3,0-0.8,0-1.5-0.1c-0.7,0-1.4-0.1-2.2-0.1c-0.8,0-1.5-0.1-2.2-0.1c-0.7,0-1.2-0.1-1.5-0.1c-0.2,0-0.4-0.1-0.8-0.2
		c-0.4-0.1-0.8-0.2-1.3-0.3c-0.5-0.1-0.9-0.2-1.3-0.3c-0.4-0.1-0.7-0.2-0.7-0.2h-0.6h-0.5V49.4z"/>
	<path class="st0" d="M100.8,62.2c0.9-1.6,2-3.1,3.4-4.4s2.8-2.6,4.4-3.7c1.6-1.1,3-2.2,4.3-3.2c-1.4-2.9-3.4-5.4-6.2-7.7
		c-2.8-2.3-5.5-4.2-8.3-5.7l5.1-5.1h0.8c0.6,0,1.3,0,2-0.1c0.7,0,1.5-0.1,2.2-0.1c0.8,0,1.5,0,2,0c0.6,0,1.4,0,2.5,0
		c1.1,0,2.3,0,3.4,0.1c1.1,0,2.1,0.1,3,0.1c0.9,0,1.4,0,1.6,0c0.2,0,0.5,0.1,1,0.2c0.5,0.1,1,0.2,1.7,0.3c0.6,0.1,1.2,0.2,1.7,0.3
		c0.5,0.1,0.8,0.2,1,0.2c0.3,0.1,0.9,0.1,1.9,0.1c1.1,0,1.8,0,2.2-0.1c-0.2,0.2-0.6,0.6-1.1,1.4c-0.5,0.8-0.8,1.3-0.9,1.7
		c-0.1,0.2-0.2,0.8-0.3,1.7c-0.1,0.9-0.2,1.8-0.3,2.8c-0.1,1-0.2,1.9-0.3,2.8c-0.1,0.9-0.1,1.6-0.1,2c0,0.2,0,0.7,0,1.7
		c0,1,0,2.1-0.1,3.4c0,1.3-0.1,2.6-0.1,4c0,1.4,0,2.5,0,3.3c0,0.5,0,1.3,0,2.5c0,1.1,0,2.4,0.1,3.6c0,1.3,0.1,2.5,0.1,3.8
		c0,1.1,0,1.9,0,2.4c0.2,0.8,0.6,1.6,1.2,2.3c0.6,0.7,1.2,1.3,1.9,1.9c-0.2,0.2-0.4,0.5-0.7,0.9c-0.3,0.4-0.7,0.8-1.2,1.3
		c-0.5,0.5-0.9,0.9-1.3,1.3c-0.4,0.4-0.7,0.6-0.9,0.7c-0.1,0-0.3,0-0.8,0c-0.5,0-0.8,0-1.1,0c-0.9,0-1.6-0.1-2.2-0.3
		c-0.5-0.2-1-0.5-1.3-1c-0.3-0.4-0.6-0.9-0.9-1.6c-0.3-0.6-0.6-1.4-1-2.3c-1.7,1.4-3.4,2.6-4.8,3.6c-1.5,1.1-3.4,1.6-5.6,1.6
		c-1.4,0-2.6-0.4-3.8-1.1c-1.1-0.7-2.1-1.6-2.9-2.8c-0.8-1.1-1.4-2.4-1.8-3.7c-0.4-1.4-0.6-2.7-0.6-4
		C99.4,65.5,99.9,63.8,100.8,62.2z M109.1,68.6c1.6,2.1,3.5,3.8,5.8,5.1h0.6h0.5c0.3-0.2,0.9-0.7,1.7-1.5c0.8-0.8,1.3-1.3,1.4-1.7
		c0-0.8,0.1-2.3,0.2-4.4c0.1-2.1,0.2-4.4,0.3-6.8c0.1-2.4,0.2-4.7,0.3-6.9c0.1-2.2,0.2-3.7,0.2-4.5c0-0.3,0.1-0.9,0.2-1.7
		c0.1-0.8,0.2-1.6,0.3-2.5c0.1-0.9,0.2-1.7,0.3-2.4c0.1-0.8,0.2-1.3,0.2-1.6c-1.5-0.3-3.2-0.7-5.1-1.3c-1.9-0.6-3.6-0.9-5.3-0.9
		h-0.9c-0.2,0.1-0.4,0.2-0.9,0.4c-0.4,0.2-0.9,0.4-1.3,0.6c-0.5,0.2-0.9,0.5-1.3,0.7c-0.4,0.2-0.6,0.4-0.8,0.5c0.4,0.4,1,1,1.9,2
		c0.9,1,1.8,2,2.8,3.1c1,1.1,1.9,2.1,2.8,3.1c0.9,1,1.5,1.7,1.9,2c0.7,0.8,1,1.6,1.1,2.2c0,0.6,0.1,1.5,0.1,2.4c0,0.2,0,0.6-0.1,1.3
		c0,0.7-0.1,1.1-0.1,1.4c-0.5-0.2-0.8-0.6-0.9-1.1c-0.2-0.5-0.3-1-0.4-1.4c-0.1-0.5-0.2-0.9-0.4-1.3c-0.2-0.4-0.5-0.6-0.9-0.6
		l-0.5,0.1c-0.5,0.4-1,0.9-1.8,1.4c-0.7,0.6-1.4,1.2-2.1,2c-0.6,0.8-1.2,1.6-1.7,2.4c-0.5,0.8-0.7,1.7-0.7,2.5
		C106.7,64.1,107.5,66.5,109.1,68.6z"/>
	<path class="st0" d="M131.7,14.5c-0.3-0.3-0.6-0.6-0.9-0.9c-0.3-0.3-0.5-0.7-0.7-1c-0.2-0.3-0.2-0.6-0.2-0.8c0-0.4,0.4-0.9,1.3-1.7
		c0.8-0.8,1.4-1.2,1.8-1.4c0.1-0.1,0.5-0.2,1.3-0.2c0.8-0.1,1.4-0.1,1.8-0.1c0.3,0,0.9,0,1.7,0.1c0.8,0.1,1.3,0.2,1.5,0.2
		c0.1,0.7,0.2,1.8,0.2,3.5c0.1,1.6,0.2,3.4,0.3,5.2c0.1,1.9,0.2,3.6,0.3,5.3c0.1,1.7,0.2,2.8,0.2,3.5c0,1.1,0,2.7,0.1,5
		c0,2.3,0.1,4.9,0.1,7.7c0,2.8,0,5.8,0,8.9c0,3.1,0,6.1,0,9c0,2.8,0,5.4-0.1,7.6c0,2.3-0.1,3.9-0.1,5l4.1,4.2
		c-0.2,0.2-0.4,0.5-0.7,0.9c-0.3,0.4-0.7,0.8-1.2,1.3c-0.5,0.5-0.9,0.9-1.3,1.3c-0.4,0.4-0.7,0.6-0.9,0.7c-0.1,0.1-0.4,0.1-0.9,0.2
		c-0.5,0-0.9,0.1-1.2,0.1c-0.3,0-0.7,0-1.3-0.1c-0.5,0-0.8-0.1-0.9-0.2c-0.2-0.1-0.6-0.3-1-0.6c-0.4-0.3-0.8-0.6-1.2-1
		c-0.4-0.3-0.7-0.6-1-0.9c-0.3-0.3-0.4-0.5-0.4-0.6V14.9C132.3,14.9,132,14.7,131.7,14.5z"/>
	<path class="st0" d="M143.7,13.8l5.1-5.2h0.6h0.5c0.3,0.2,0.9,0.7,1.7,1.5c0.8,0.8,1.3,1.3,1.5,1.7v0.5v0.6l-5.2,5.1
		c-1.6-1-2.6-1.7-3.1-2.1l-1-1c0-0.1,0-0.2-0.1-0.3c0-0.1-0.1-0.2-0.1-0.3C143.6,14.2,143.6,14.1,143.7,13.8z M148.1,65.7
		c0-3-0.1-6-0.1-9c0-3-0.1-6.1-0.2-9.1c-0.1-3-0.5-6-1.1-9c-0.3,0-0.9-0.3-1.7-0.8c-0.8-0.5-1.3-0.9-1.4-1.3
		c-0.2-0.4-0.1-0.9,0.4-1.5c0.5-0.6,1.1-1.2,1.9-1.8c0.8-0.6,1.6-1.1,2.4-1.5c0.8-0.4,1.5-0.6,1.9-0.6c1.2,0,2.2,0.5,3,1.4
		c0.8,0.9,1.3,1.9,1.7,3c-0.2,5.4-0.2,11-0.1,17c0.1,5.9,0.5,11.6,1.1,17.1l3.1,3.1c0,0.1,0,0.2,0.1,0.3c0,0.1,0.1,0.2,0.1,0.3
		c0,0.5-0.2,1.1-0.7,1.6c-0.5,0.5-1,1-1.7,1.5c-0.7,0.5-1.4,0.8-2.1,1.1c-0.7,0.3-1.3,0.5-1.9,0.5H152c-0.2-0.1-0.4-0.3-0.7-0.6
		c-0.3-0.3-0.7-0.6-1-1c-0.3-0.3-0.6-0.7-0.9-1c-0.3-0.3-0.4-0.5-0.5-0.7C148.3,71.7,148.1,68.7,148.1,65.7z M148.4,89.2
		c-0.2,0-0.4-0.2-0.5-0.5c-0.1-0.3,0.1-0.5,0.5-0.5c0.5,0,0.6,0.2,0.6,0.5C148.9,89,148.7,89.2,148.4,89.2z"/>
	<path class="st0" d="M158.2,11.6c-0.1-0.1,0-0.3,0.2-0.6c0.2-0.3,0.5-0.6,0.8-1c0.3-0.3,0.7-0.6,1.1-0.9c0.4-0.3,0.7-0.5,1-0.6
		c0.1,0,0.4,0,1-0.1c0.6-0.1,1.1-0.1,1.5-0.1c0.4,0,0.9,0,1.6,0.1c0.7,0.1,1.1,0.1,1.1,0.1c0.4,0.2,0.9,0.5,1.5,1c0.6,0.5,1,0.9,1,1
		v25.9c0.8-0.3,1.5-0.8,2.3-1.4c0.8-0.6,1.5-1.2,2.3-1.8c0.8-0.6,1.5-1.1,2.3-1.5c0.8-0.4,1.6-0.6,2.4-0.6c0.6,0,1.3,0.3,2.2,1
		c0.9,0.6,1.7,1.4,2.6,2.2c0.8,0.8,1.6,1.7,2.2,2.6c0.6,0.9,0.9,1.6,0.9,2.1c0,0.3,0,0.5-0.1,0.6c-0.5,0.5-0.9,0.9-1,1
		c-0.3,0.2-0.9,0.7-1.7,1.4c-0.8,0.7-1.6,1.4-2.4,2.2c-0.8,0.8-1.7,1.5-2.4,2.2c-0.8,0.7-1.3,1.1-1.7,1.4c-0.1,0.1-0.1,0.3-0.1,0.6
		c0,0.3,0,0.5,0.1,0.6c0.1,0.2,0.3,0.4,0.7,0.8c0.4,0.4,0.9,0.8,1.3,1.3c0.5,0.5,0.9,0.9,1.3,1.3c0.4,0.4,0.7,0.7,0.7,0.7
		c1,1.4,1.8,3.1,2.4,5.1c0.6,2,1.3,4,2,6c0.7,2,1.6,3.8,2.7,5.4c1.1,1.6,2.5,2.7,4.3,3.2c-1,1.1-2.1,2.2-3.4,3.4
		c-1.3,1.2-2.7,1.8-4.2,1.8c-1.1,0-2.1-0.3-2.8-1c-0.7-0.7-1.3-1.5-1.8-2.5c-0.5-1-0.9-2-1.3-3.1c-0.3-1.1-0.7-2-1-2.8
		c-0.5-1.1-0.9-2.4-1.3-3.8c-0.4-1.4-0.9-2.7-1.5-4c-0.6-1.3-1.3-2.4-2.1-3.5c-0.8-1-2-1.8-3.4-2.2v14.5c0.2,0.2,0.5,0.7,1,1.5
		c0.5,0.8,0.9,1.3,1,1.7c0.1,0.2,0.1,0.4,0.1,0.5c0,0.5-0.2,0.9-0.7,1.4c-0.5,0.5-1,1-1.6,1.4c-0.6,0.5-1.2,0.9-1.8,1.2
		s-1,0.6-1.2,0.6c-0.1,0-0.2,0-0.3,0.1c-0.1,0-0.2,0.1-0.3,0.1c-0.1,0-0.2,0-0.5-0.1c-0.6-0.4-1.4-0.9-2.3-1.7
		c-0.9-0.8-1.4-1.2-1.4-1.4v-59L158.2,11.6z M170.8,37.2c-0.8,0.5-1.2,1-1.2,1.4V52l8.3-8.3v-0.5v-0.6c-0.1-0.1-0.2-0.3-0.5-0.7
		c-0.3-0.4-0.6-0.8-0.9-1.3c-0.3-0.5-0.7-0.9-1-1.3c-0.3-0.4-0.6-0.7-0.7-0.9c-0.2-0.4-0.6-0.8-1.1-1.4c-0.5-0.5-0.8-0.8-0.9-0.8
		C172.2,36.4,171.6,36.7,170.8,37.2z"/>
	<path class="st0" d="M208.7,81.4c1.6-1.5,3.4-2.8,5.5-3.9c2.1-1.2,4.2-2.3,6.3-3.4c2.1-1.1,3.6-2.4,4.6-3.8c0.7-1,1-2.3,1-3.7
		s0-2.7,0-3.8c0-0.2,0-0.5,0-0.9c0-0.5,0-1-0.1-1.4c0-0.5-0.1-0.9-0.1-1.3c0-0.5,0-0.8,0-0.9c-0.8-1.1-1.7-2-2.6-2.7
		c-0.9-0.7-2.1-1.1-3.4-1.1c-0.9,0-1.7,0.2-2.4,0.5c-0.7,0.3-1.5,0.5-2.3,0.5l-0.4-0.1c0.9-1,1.8-1.9,2.6-2.6s1.7-1.3,2.6-1.8
		c0.9-0.5,1.8-1,2.8-1.4c1-0.4,2-0.9,3.2-1.5c0.1-0.1,0.3-0.3,0.6-0.5c0.2-0.2,0.4-0.3,0.4-0.4V34.8c0-0.5-0.3-1-0.9-1.4
		c-0.6-0.5-1.3-0.9-2.2-1.2c-0.8-0.3-1.6-0.6-2.5-0.9c-0.8-0.2-1.4-0.4-1.8-0.4c-1.4,0-2.5,0.3-3.5,0.9c-1,0.6-2,1.2-3.1,2v-0.9
		c0-0.1,0.2-0.3,0.6-0.8c0.4-0.5,0.9-1,1.5-1.6c0.6-0.6,1.2-1.2,1.8-1.7c0.6-0.6,1.1-1,1.5-1.4c0.1-0.1,0.3-0.2,0.6-0.4
		c0.3-0.2,0.7-0.4,1.1-0.6c0.4-0.2,0.8-0.4,1.1-0.6c0.3-0.2,0.6-0.3,0.8-0.4c0.1-0.1,0.4-0.1,0.9-0.2c0.5-0.1,1-0.2,1.5-0.3
		c0.5-0.1,1-0.2,1.4-0.3c0.4-0.1,0.7-0.1,0.9-0.2c0.1-0.1,0.5-0.3,1-0.8c0.5-0.5,1.1-1,1.7-1.5c0.6-0.5,1.2-1,1.7-1.5
		c0.5-0.5,0.9-0.8,1-0.9c0.2-0.1,0.5-0.4,0.9-0.8s0.9-0.8,1.4-1.2c0.5-0.4,1.1-0.7,1.6-0.9c0.5-0.2,1.1-0.2,1.6,0.1
		c0.3-0.2,0.8-0.6,1.6-1.1s1.7-1.1,2.6-1.7c0.9-0.6,1.7-1.2,2.5-1.7c0.8-0.5,1.3-0.9,1.7-1.1c0.5-0.3,1-0.8,1.7-1.4
		c0.6-0.6,1.3-1.1,2-1.6c0.7-0.5,1.5-1,2.2-1.3c0.8-0.4,1.5-0.6,2.3-0.6c0,1.2,0.3,2.3,0.9,3.2c0.6,0.9,1.4,1.7,2.3,2.4
		c0.9,0.7,1.9,1.3,3,2c1.1,0.7,2,1.3,3,2.1c0.9,0.8,1.7,1.7,2.3,2.7c0.6,1.1,0.9,2.3,0.9,3.8c0,1.2-0.2,2.3-0.7,3.5
		c-0.4,1.2-1,2.3-1.7,3.3c-0.7,1.1-1.5,2-2.5,2.9c-0.9,0.9-1.8,1.7-2.7,2.4c0.3,0.5,0.9,1,1.6,1.5c0.7,0.4,1.5,0.9,2.3,1.4
		c0.8,0.5,1.6,1,2.4,1.6c0.8,0.5,1.5,1.2,2,1.9c0.2,0.2,0.4,0.5,0.7,0.9c0.2,0.4,0.5,0.8,0.8,1.2c0.3,0.4,0.5,0.7,0.7,1
		c0.2,0.3,0.3,0.5,0.3,0.6v17.7c0.1,0.1,0.3,0.4,0.6,0.8c0.3,0.4,0.5,0.9,0.8,1.4c0.2,0.5,0.5,1,0.7,1.4c0.2,0.4,0.3,0.8,0.3,1
		c0,0.1-0.2,0.3-0.7,0.8c-0.5,0.5-0.9,0.9-1.1,1.1c-0.2,0.1-0.7,0.4-1.4,0.9c-0.7,0.5-1.2,0.8-1.5,0.9c-0.3,0.1-1,0.5-2,1
		c-1.1,0.5-2.3,1.1-3.5,1.7c-1.3,0.6-2.4,1.2-3.5,1.7c-1.1,0.5-1.8,0.9-2,1c-0.1,0.1-0.2,0.2-0.5,0.4c-0.3,0.2-0.6,0.4-0.9,0.6
		c-0.3,0.2-0.6,0.4-0.9,0.6c-0.3,0.2-0.4,0.3-0.5,0.3c0,0.1-0.1,0.1-0.4,0.1c-0.1,0-0.2,0-0.3,0c-0.1,0-0.2,0-0.2-0.1
		c-0.1,0-0.4-0.1-0.9-0.3c-0.4-0.2-0.9-0.4-1.4-0.6c-0.5-0.2-1-0.4-1.5-0.6c-0.5-0.2-0.8-0.3-0.8-0.4c-0.2-0.1-0.7,0-1.4,0.2v5.4
		l-1.4-6.6c0-0.1-0.5-0.2-1.4-0.5c-1-0.2-1.7-0.4-2.3-0.5c-0.1,0-0.4,0-0.9,0c-0.5,0-1.1,0-1.7-0.1c-0.7,0-1.4-0.1-2-0.1
		c-0.7,0-1.2,0-1.6,0c-1,0-2.3,0.1-4,0.3c-1.7,0.2-3.5,0.5-5.5,0.9c-1.9,0.4-3.9,0.9-5.9,1.5c-2,0.6-3.8,1.4-5.5,2.3
		c-1.6,0.9-3,1.9-4,3c-1,1.1-1.5,2.4-1.5,3.8c0,0.3,0.1,1.1,0.2,2.2c0.1,0.3,0.4,0.6,0.8,1.1c0.4,0.5,0.9,1,1.4,1.5
		c0.5,0.5,1,1,1.5,1.4c0.5,0.4,0.8,0.6,1,0.7c1.3,0.1,2.1,0.1,2.5,0.1c1.1,0,2.6-0.2,4.6-0.7c1.9-0.4,3.8-1.1,5.6-1.9
		c1.8-0.9,3.2-1.9,4.3-3.2c1.1-1.3,1.3-2.8,0.7-4.5c0.6,0.1,0.9,0.4,1,0.9c0,0.5,0.1,0.9,0.1,1.3c0,1.3-0.6,2.6-1.9,3.9
		c-1.3,1.3-2.8,2.5-4.5,3.5c-1.7,1-3.5,1.8-5.3,2.5c-1.8,0.6-3.2,0.9-4.2,0.9c-1.4,0-2.8-0.2-4-0.7c-1.2-0.4-2.3-1.1-3.3-1.9
		c-1-0.8-1.7-1.8-2.3-3c-0.5-1.2-0.8-2.5-0.8-3.9C206.4,84.6,207.2,82.9,208.7,81.4z M211,12c1.2-1.5,2.6-2.8,4.4-3.8
		c1.7-1.1,3.5-1.9,5.5-2.5c1.9-0.6,3.7-0.9,5.3-0.9c2.5,0,4.9,0.3,7.2,1c2.3,0.7,4.7,1,7.2,1c1.9,0,3.3-0.4,4.2-1.2
		c0.9-0.8,1.8-2,2.8-3.5V5c0,0.1-0.2,0.3-0.5,0.7c-0.3,0.4-0.8,0.9-1.3,1.3c-0.5,0.5-1,1-1.6,1.4c-0.5,0.5-1,0.9-1.3,1.1
		c-1.1,0.9-2.4,1.6-3.9,2.1c-1.5,0.5-3,0.8-4.5,0.8c-2.4,0-4.7-0.3-7-1c-2.3-0.7-4.6-1-7-1c-0.9,0-1.9,0.1-3,0.3
		c-1.1,0.2-2.1,0.5-3,0.9c-0.9,0.4-1.7,1-2.3,1.7c-0.6,0.8-0.9,1.7-0.9,2.9c0,0.6,0.2,1.2,0.5,1.7c0.3,0.5,0.6,1,1,1.4
		c0.3,0.4,0.7,0.9,1,1.4c0.3,0.5,0.5,1,0.5,1.5v0.4c-1.2-0.3-2.2-1-3.2-2c-1-1-1.5-2.2-1.5-3.5C209.2,15.2,209.8,13.6,211,12z
		 M231.1,66.7c-1,1.3-2.1,2.4-3.2,3.4h1.4c1.1,0,2-0.3,2.9-0.8c0.8-0.5,1.5-1.2,2.1-2c0.5-0.8,1-1.7,1.3-2.7c0.3-1,0.6-2,0.8-2.9
		c0-1,0-2.6,0.1-4.8c0-2.2,0.1-4.7,0.2-7.4c0.1-2.8,0.1-5.7,0.2-8.7c0.1-3,0.1-5.9,0.2-8.7c0.1-2.8,0.1-5.2,0.2-7.4
		c0-2.2,0.1-3.8,0.2-4.8v-1.1c-1,0-1.6,0.5-2,1.4c-0.4,1-0.7,1.8-0.8,2.5c0,0.5,0,1.5,0.1,2.8c0,1.3,0.1,2.8,0.1,4.3
		c0,1.4,0,2.8-0.1,4.2c0,1.3-0.1,2.3-0.1,2.8c0,0.7,0,1.7-0.1,3c0,1.3-0.1,2.9-0.2,4.6c-0.1,1.7-0.1,3.5-0.2,5.4
		c-0.1,1.9-0.1,3.7-0.2,5.4c-0.1,1.7-0.1,3.2-0.2,4.6c-0.1,1.4-0.1,2.4-0.1,3C232.9,64.1,232.1,65.5,231.1,66.7z M244.5,45
		c-0.1,1.3-0.2,2.7-0.3,4.2c-0.1,1.5-0.2,2.9-0.3,4.2c-0.1,1.3-0.2,2.2-0.3,2.7c0,0.3-0.1,0.7-0.2,1.3c-0.1,0.6-0.2,1.2-0.4,1.8
		c-0.1,0.7-0.3,1.3-0.6,1.9c-0.2,0.7-0.5,1.1-0.8,1.5c-0.2,0.2-0.6,0.6-1.1,1.1c-0.5,0.5-1.1,1.1-1.6,1.7c-0.6,0.6-1.1,1.2-1.7,1.7
		c-0.5,0.5-0.9,0.9-1.1,1.1h9.2V42.2h-0.9C244.6,42.7,244.6,43.7,244.5,45z M245.8,15c-0.8,0.8-1.2,1.5-1.2,2.1v21.4
		c1.4-0.9,2.8-1.5,4.4-1.9c1.6-0.4,3.1-0.8,4.5-1.2c1.4-0.4,2.7-1.1,3.8-1.9c1.1-0.9,1.9-2.3,2.3-4.3c0-0.1,0-0.4,0.1-0.9
		c0-0.5,0.1-1,0.1-1.3c0-1.8-0.4-3.3-1.3-4.5c-0.9-1.2-2-2.3-3.3-3.2c-1.3-0.9-2.6-1.8-4-2.7c-1.4-0.9-2.6-1.9-3.6-3.2
		C247.1,13.7,246.6,14.2,245.8,15z M250.2,41.3c-0.4,0.1-1,0.3-1.7,0.5c-0.7,0.2-1.1,0.3-1.1,0.4v6.6c0,0.2,0.2,0.4,0.5,0.7
		c0.3,0.3,0.7,0.6,1.1,0.9c0.4,0.3,0.8,0.6,1.2,0.8c0.4,0.2,0.7,0.4,0.9,0.4h0.5c0.3,0,0.7,0,1.2,0.1c0.4,0,0.9,0.1,1.4,0.1
		c0.5,0,0.9,0,1.1,0c0.3,0,0.8,0,1.5,0c0.8,0,1.5-0.1,2.4-0.2c0.8-0.1,1.5-0.3,2.2-0.7c0.6-0.3,0.9-0.9,0.9-1.6
		c0-1.1-0.4-2.1-1.2-3.1c-0.8-1-1.8-1.8-2.9-2.5c-1.2-0.7-2.4-1.3-3.7-1.7c-1.3-0.4-2.4-0.6-3.4-0.6H250.2z M247.5,59
		c0.1-0.1,0.6-0.3,1.3-0.6c0.7-0.2,1.2-0.4,1.5-0.4c0.5-0.1,1.3-0.1,2.4-0.2s2.3-0.1,3.6-0.1c1.3,0,2.5-0.1,3.6-0.1
		c1.1,0,1.9-0.1,2.4-0.1v-5.3c-0.1,0-0.4,0-0.9,0.1c-0.5,0-0.8,0.1-0.9,0.1c-0.1,0-0.5,0.1-1.2,0.2c-0.6,0.1-1.3,0.2-2,0.3
		c-0.7,0.1-1.4,0.2-2,0.3c-0.6,0.1-1.1,0.2-1.3,0.2h-0.5H253c-0.2-0.1-0.6-0.2-1.1-0.4c-0.5-0.2-1.1-0.4-1.7-0.6
		c-0.6-0.2-1.2-0.4-1.7-0.6c-0.5-0.2-0.9-0.3-1.1-0.4V59z M254.2,58.8c-0.4,0-0.8,0-1.3,0.1c-0.4,0-0.8,0.1-1.2,0.1
		c-0.3,0-0.5,0.1-0.6,0.1c-0.3,0-0.6,0.1-1,0.3c-0.4,0.2-0.8,0.4-1.2,0.6c-0.4,0.2-0.8,0.4-1,0.6c-0.3,0.2-0.4,0.3-0.4,0.4v7.5
		c0,0.1,0.1,0.2,0.4,0.4c0.2,0.2,0.4,0.4,0.6,0.5c0.1,0,0.3,0.1,0.7,0.2c0.4,0.1,0.8,0.2,1.2,0.3c0.4,0.1,0.8,0.2,1.2,0.3
		c0.4,0.1,0.6,0.1,0.7,0.2c0.3,0.1,0.7,0.2,1.3,0.5c0.6,0.2,1.3,0.5,1.9,0.8c0.7,0.3,1.3,0.6,1.9,0.9c0.6,0.3,1.1,0.5,1.3,0.6
		c0.2-0.1,0.6-0.3,1.2-0.6c0.6-0.3,1.2-0.7,1.9-1.1c0.6-0.4,1.2-0.8,1.7-1.1c0.5-0.3,0.7-0.6,0.7-0.8l-0.9-8.4
		c0-0.1-0.1-0.2-0.4-0.4c-0.3-0.2-0.6-0.4-1-0.6c-0.4-0.2-0.8-0.4-1.2-0.6c-0.4-0.2-0.8-0.3-1-0.3c-0.1-0.1-0.7-0.1-1.8-0.2
		c-1.1,0-1.9-0.1-2.4-0.1C255.1,58.8,254.7,58.8,254.2,58.8z"/>
	<path class="st0" d="M275.4,62.2c0.9-1.6,2-3.1,3.4-4.4c1.4-1.4,2.8-2.6,4.4-3.7c1.6-1.1,3-2.2,4.3-3.2c-1.4-2.9-3.4-5.4-6.2-7.7
		c-2.8-2.3-5.5-4.2-8.3-5.7l5.1-5.1h0.8c0.6,0,1.3,0,2-0.1c0.7,0,1.5-0.1,2.2-0.1c0.8,0,1.5,0,2,0c0.6,0,1.4,0,2.5,0
		c1.1,0,2.3,0,3.4,0.1c1.1,0,2.1,0.1,3,0.1s1.4,0,1.6,0c0.2,0,0.5,0.1,1,0.2c0.5,0.1,1,0.2,1.6,0.3c0.6,0.1,1.2,0.2,1.7,0.3
		s0.8,0.2,1,0.2c0.3,0.1,0.9,0.1,1.9,0.1c1.1,0,1.8,0,2.2-0.1c-0.2,0.2-0.6,0.6-1.1,1.4c-0.5,0.8-0.8,1.3-0.9,1.7
		c-0.1,0.2-0.2,0.8-0.3,1.7c-0.1,0.9-0.2,1.8-0.3,2.8c-0.1,1-0.2,1.9-0.3,2.8c-0.1,0.9-0.1,1.6-0.1,2c0,0.2,0,0.7,0,1.7
		c0,1,0,2.1-0.1,3.4c0,1.3-0.1,2.6-0.1,4c0,1.4,0,2.5,0,3.3c0,0.5,0,1.3,0,2.5c0,1.1,0,2.4,0.1,3.6c0,1.3,0.1,2.5,0.1,3.8
		c0,1.1,0,1.9,0,2.4c0.2,0.8,0.6,1.6,1.2,2.3c0.6,0.7,1.2,1.3,1.9,1.9c-0.2,0.2-0.4,0.5-0.7,0.9c-0.3,0.4-0.7,0.8-1.2,1.3
		c-0.5,0.5-0.9,0.9-1.3,1.3c-0.4,0.4-0.7,0.6-0.9,0.7c-0.1,0-0.3,0-0.8,0c-0.5,0-0.8,0-1.1,0c-0.9,0-1.6-0.1-2.2-0.3
		c-0.5-0.2-1-0.5-1.3-1c-0.3-0.4-0.6-0.9-0.9-1.6c-0.3-0.6-0.6-1.4-1-2.3c-1.7,1.4-3.4,2.6-4.8,3.6c-1.5,1.1-3.4,1.6-5.6,1.6
		c-1.4,0-2.6-0.4-3.8-1.1c-1.1-0.7-2.1-1.6-2.9-2.8c-0.8-1.1-1.4-2.4-1.8-3.7s-0.6-2.7-0.6-4C274,65.5,274.5,63.8,275.4,62.2z
		 M283.7,68.6c1.6,2.1,3.5,3.8,5.8,5.1h0.6h0.5c0.3-0.2,0.9-0.7,1.7-1.5c0.8-0.8,1.3-1.3,1.4-1.7c0-0.8,0.1-2.3,0.2-4.4
		c0.1-2.1,0.2-4.4,0.3-6.8c0.1-2.4,0.2-4.7,0.3-6.9c0.1-2.2,0.2-3.7,0.2-4.5c0-0.3,0.1-0.9,0.2-1.7c0.1-0.8,0.2-1.6,0.3-2.5
		s0.2-1.7,0.3-2.4c0.1-0.8,0.2-1.3,0.2-1.6c-1.5-0.3-3.2-0.7-5.1-1.3c-1.9-0.6-3.6-0.9-5.3-0.9h-0.9c-0.2,0.1-0.4,0.2-0.9,0.4
		c-0.4,0.2-0.9,0.4-1.3,0.6c-0.5,0.2-0.9,0.5-1.3,0.7c-0.4,0.2-0.6,0.4-0.8,0.5c0.4,0.4,1,1,1.9,2c0.9,1,1.8,2,2.8,3.1
		c1,1.1,1.9,2.1,2.8,3.1c0.9,1,1.5,1.7,1.9,2c0.7,0.8,1,1.6,1.1,2.2c0,0.6,0.1,1.5,0.1,2.4c0,0.2,0,0.6-0.1,1.3
		c0,0.7-0.1,1.1-0.1,1.4c-0.5-0.2-0.8-0.6-0.9-1.1c-0.2-0.5-0.3-1-0.4-1.4c-0.1-0.5-0.2-0.9-0.4-1.3c-0.2-0.4-0.5-0.6-0.9-0.6
		l-0.5,0.1c-0.5,0.4-1,0.9-1.8,1.4c-0.7,0.6-1.4,1.2-2,2c-0.6,0.8-1.2,1.6-1.7,2.4c-0.5,0.8-0.7,1.7-0.7,2.5
		C281.3,64.1,282.1,66.5,283.7,68.6z"/>
	<path class="st0" d="M313.2,27.6c-1-1.3-2-2.6-3.1-4c-1.1-1.4-2.1-2.8-3.1-4c-1-1.3-1.7-2.2-2-2.6l-1-1c-0.2-0.4-0.6-0.9-1.1-1.7
		c-0.5-0.8-0.8-1.2-0.9-1.4c0-0.1,0-0.2-0.1-0.3c0-0.1-0.1-0.2-0.1-0.3c0-0.5,0.2-1,0.6-1.5c0.4-0.5,1-0.9,1.6-1.2
		c0.6-0.3,1.3-0.6,1.9-0.8c0.6-0.2,1.2-0.3,1.7-0.3c0.2,0,0.4,0,0.7,0.1c0.3,0,0.6,0.1,0.7,0.1c0.2,0.2,0.6,0.5,1.1,1
		c0.5,0.5,1,1,1.6,1.6c0.6,0.6,1.1,1.1,1.6,1.6c0.5,0.5,0.8,0.9,1,1.1c0.9,1.1,2.1,2.5,3.6,4.3c1.5,1.8,2.9,3.6,4.4,5.4
		c1.4,1.8,2.7,3.3,3.8,4.7c1.1,1.3,1.6,2.1,1.7,2.2l1,2.1c0,0.1,0.1,0.8,0.2,2.2c0.1,1.4,0.2,3,0.3,4.9c0.1,1.9,0.2,3.8,0.3,5.8
		c0.1,1.9,0.2,3.5,0.2,4.7v8.3v8.2c-0.6,0.8-1.7,1.8-3.1,3.1c-1.5,1.3-3.1,2.6-4.8,3.8c-1.7,1.3-3.4,2.3-5,3.2
		c-1.6,0.9-2.8,1.4-3.8,1.4c-0.9,0-1.6-0.2-1.9-0.5c-0.4-0.3-1.1-0.9-2.2-1.7c-0.2-0.2-0.5-0.5-0.9-0.8c-0.3-0.3-0.7-0.6-1-1
		c-0.3-0.3-0.7-0.8-1.2-1.3V38.6c0-0.1,0.3-0.4,0.8-0.9c0.5-0.5,0.9-0.9,1.3-1.2c0.1-0.1,0.3-0.3,0.7-0.6c0.4-0.3,0.9-0.6,1.4-1
		c0.5-0.3,0.9-0.7,1.3-1c0.4-0.3,0.6-0.5,0.8-0.6l3.1-3.1C314.9,29.8,314.2,28.9,313.2,27.6z M316.3,32.4c-0.5,0.4-1.1,0.9-1.9,1.7
		c-0.8,0.8-1.2,1.2-1.2,1.4v31c0,0.1,0.2,0.3,0.5,0.6c0.3,0.3,0.7,0.7,1.1,1.1c0.5,0.4,0.9,0.9,1.4,1.3c0.5,0.5,0.8,0.8,1.1,1.1
		c0.6,0.5,1.3,0.8,2,1c0.7,0.2,1.4,0.3,2.1,0.3V37.5l-4.1-5.1c-0.2-0.1-0.4-0.1-0.5-0.1C316.8,32.3,316.6,32.3,316.3,32.4z"/>
	<path class="st0" d="M348.8,31.7c0.9,0.9,1.8,2,2.7,3.2c0.9,1.2,1.6,2.4,2.2,3.6c0.6,1.2,0.9,2.1,0.9,2.7v0.5c-1,1.3-2,2.4-3,3.2
		c-1,0.9-2,1.7-3.1,2.4c-1.1,0.7-2.2,1.4-3.4,2.2c-1.2,0.7-2.5,1.6-3.9,2.6c-0.2,0.2-0.4,0.3-0.6,0.6c-0.3,0.2-0.4,0.4-0.4,0.5v14.3
		c0,0.1,0.1,0.2,0.3,0.5c0.2,0.3,0.5,0.6,0.9,0.9c0.3,0.3,0.7,0.7,1,1c0.3,0.3,0.6,0.6,0.9,0.7c1.1,0.7,2.2,1.3,3.5,1.8
		c1.3,0.5,2.5,0.6,3.8,0.2c-0.5,0.6-1.1,1.3-1.8,2c-0.6,0.7-1.3,1.4-2.1,2c-0.8,0.6-1.5,1.1-2.3,1.6c-0.8,0.5-1.6,0.7-2.4,0.7
		c-0.6,0-1.4-0.2-2.4-0.6c-1-0.4-2-0.9-2.9-1.5c-1-0.6-1.8-1.1-2.5-1.7c-0.7-0.6-1.1-1-1.1-1.4V40.7l1-1c0.2-0.2,0.6-0.5,1.3-1.1
		c0.7-0.6,1.5-1.2,2.3-1.9c0.8-0.7,1.6-1.3,2.3-1.9c0.7-0.6,1.2-1,1.3-1.1c0.8-0.8,1.6-1.5,2.3-2.2c0.7-0.7,1.7-1,3-1
		C347.1,30.4,347.9,30.8,348.8,31.7z M340.2,51.1c0.2-0.2,0.6-0.4,1.3-0.8c0.6-0.4,1.3-0.8,1.9-1.3c0.7-0.5,1.3-0.9,1.9-1.3
		c0.6-0.4,1-0.6,1.2-0.8l1-1c0-0.7-0.3-1.5-0.9-2.3c-0.6-0.9-1.2-1.7-2-2.6c-0.8-0.9-1.6-1.7-2.4-2.5c-0.8-0.8-1.5-1.4-2.1-1.9V51.1
		z"/>
	<path class="st0" d="M356.1,36.5c-0.7-0.5-1.1-0.9-1.3-1c-0.1-0.2-0.1-0.4-0.1-0.5c0-0.2,0-0.3,0.1-0.6c0.2-0.2,0.6-0.6,1-1
		c0.4-0.5,0.9-0.9,1.3-1.4c0.5-0.5,0.9-0.9,1.2-1.2c0.3-0.3,0.5-0.5,0.6-0.5c0.2-0.1,0.6-0.2,1.3-0.2c0.7-0.1,1.2-0.1,1.6-0.1
		c0.3,0,0.8,0,1.4,0.1c0.6,0.1,0.9,0.2,1,0.2c0.2,0.2,0.4,0.5,0.6,0.9c0.2,0.5,0.3,1,0.4,1.5c0.1,0.6,0.2,1.1,0.2,1.7
		c0,0.5,0,0.8-0.1,1c1.5-1.1,3.1-2.2,4.8-3.5c1.7-1.3,3.5-1.9,5.5-1.9c0.5,0,1.2,0.1,1.9,0.2c0.7,0.2,1.4,0.4,2.1,0.7
		c0.7,0.3,1.3,0.8,1.7,1.3c0.5,0.5,0.7,1,0.7,1.7c0,0.1,0,0.2-0.1,0.5l-6.3,5.1c-1-0.8-2.1-1.6-3.4-2.2c-1.3-0.6-2.5-0.9-3.8-0.9
		c-0.4,0-1,0.1-1.8,0.2c-0.8,0.1-1.3,0.4-1.3,0.9v31c0.2,0.2,0.7,0.7,1.5,1.5c0.8,0.8,1.3,1.3,1.5,1.7c0.1,0.2,0.1,0.4,0.1,0.5
		c0,0.5-0.2,1.1-0.7,1.7c-0.5,0.6-1,1.1-1.7,1.5c-0.7,0.5-1.4,0.8-2.1,1.1c-0.7,0.3-1.3,0.5-1.9,0.5c-0.2,0-0.3,0-0.6-0.1
		c-0.2,0-0.4-0.1-0.5-0.1c-0.2-0.2-0.6-0.4-1-0.7c-0.4-0.3-0.8-0.6-1.2-1c-0.4-0.3-0.7-0.6-1-0.9c-0.3-0.3-0.4-0.4-0.4-0.5V37.5
		C357.2,37.4,356.7,37,356.1,36.5z"/>
</g>
</svg>
