<?xml version="1.0" encoding="utf-8"?>
<!-- Generator: Adobe Illustrator 25.4.1, SVG Export Plug-In . SVG Version: 6.00 Build 0)  -->
<svg version="1.1" id="Layer_1" xmlns="http://www.w3.org/2000/svg" xmlns:xlink="http://www.w3.org/1999/xlink" x="0px" y="0px"
	 viewBox="0 0 381.8 98.4" style="enable-background:new 0 0 381.8 98.4;" xml:space="preserve">
<style type="text/css">
	.st0{fill:#FFFFFF;}
</style>
<g>
	<path class="st0" d="M0.2,83.2c0.1-0.7,0.3-1.3,0.6-1.7C1.1,81,1.5,80.6,2,80.2c0.5-0.4,1.1-0.9,1.9-1.4c0.9-0.6,1.7-1.2,2.4-1.7
		c0.6-0.5,1.3-0.9,1.8-1.2c0.6-0.3,1.2-0.6,1.9-0.8c0.7-0.2,1.6-0.3,2.8-0.3c1.9,0,3.6,0.3,5.1,1c1.5,0.7,3.2,1,5,1
		c1,0,2.1-0.2,3.2-0.5c1.1-0.3,2.1-0.8,3-1.4c0.9-0.6,1.6-1.4,2.3-2.3c0.6-0.9,0.9-1.9,0.9-3.2c0-1.6-0.3-2.9-1-4
		c-0.6-1.1-1.5-2-2.5-2.7c-1-0.7-2.2-1.3-3.4-1.7c-1.3-0.4-2.5-0.7-3.8-0.9c1.2-1.6,2.4-2.8,3.4-3.6c1.1-0.8,2.5-1.5,4.3-2.2
		c0.1-0.1,0.2-0.1,0.5-0.1c0.3,0,0.5,0.1,0.5,0.1c0.1-0.1,0.5-0.2,1-0.4c0.5-0.2,0.8-0.4,1-0.5V50c0-1.5-0.3-3.1-0.8-4.7
		c-0.5-1.6-1.2-3.2-2.2-4.6c-1-1.4-2.1-2.6-3.5-3.5c-1.4-0.9-2.9-1.4-4.7-1.4c-0.9,0-1.8,0.2-2.5,0.5c-0.8,0.4-1.6,0.5-2.4,0.5
		c-0.1,0-0.2,0-0.3-0.1c-0.1,0-0.2-0.1-0.3-0.1c1.3-1.6,2.8-3.2,4.6-4.7c1.8-1.5,3.8-2.2,6.1-2.2c0.3,0,0.7,0,1.2,0.1
		c0.5,0,0.8,0.1,0.9,0.1c0.1,0,0.3,0.1,0.7,0.2c0.4,0.1,0.8,0.2,1.3,0.4c0.5,0.1,0.9,0.3,1.2,0.3c0.4,0.1,0.6,0.1,0.8,0.1
		c0.1-0.1,0.2-0.3,0.5-0.6c0.3-0.4,0.6-0.8,0.9-1.2c0.3-0.5,0.6-0.9,0.9-1.3c0.3-0.4,0.5-0.6,0.5-0.7c0.7-0.9,1.6-1.8,2.6-2.7
		c1-0.9,2.1-1.8,3.2-2.7c1.1-0.9,2.1-1.7,3.2-2.4c1-0.8,1.9-1.4,2.7-2c0.6-0.4,1.1-0.7,1.4-0.9c0.4-0.1,0.9-0.2,1.6-0.2
		c0.1,0,0.3,0,0.5,0c0.2,0,0.3,0,0.3,0.1l11.7,5.8l9.8-4.8c0.1-0.1,0.3-0.1,0.6-0.1c0.4,0,0.6,0,0.8,0c0.6,0,1.6,0.2,2.7,0.5
		c1.2,0.4,2.4,0.8,3.8,1.3c1.3,0.5,2.6,1,3.8,1.6c1.2,0.6,2.2,1.1,2.9,1.5l-1,1.9c-0.1,3.4-0.1,6.4-0.2,9.1c0,2.7-0.1,5.7-0.2,9.1
		c-0.1,3.4-0.1,6.8-0.2,10.3c-0.1,3.5-0.1,6.8-0.2,10c-0.1,3.2-0.1,6-0.2,8.3v0.6c0,0.4,0.2,0.7,0.6,1.1c0.4,0.4,0.8,0.7,1.3,1
		c0.5,0.3,0.9,0.6,1.3,0.8c0.4,0.2,0.7,0.4,0.8,0.4h0.4h0.5c0.2-0.1,0.7-0.2,1.4-0.5c0.8-0.2,1.2-0.4,1.4-0.5v1
		c-0.9,0.6-1.6,1.2-2.3,1.6c-0.6,0.4-1.3,0.8-2,1.2c-0.7,0.4-1.2,0.8-1.7,1.1c-0.2,0.1-0.5,0.3-0.9,0.5c-0.4,0.2-0.8,0.4-1.2,0.6
		c-0.4,0.2-0.8,0.4-1.1,0.5c-0.3,0.1-0.5,0.2-0.6,0.2c-1-0.5-1.6-0.8-1.9-1c-0.2-0.1-0.6-0.2-1-0.5c-0.5-0.3-0.9-0.6-1.4-0.9
		c-0.5-0.3-1-0.6-1.4-0.9c-0.5-0.2-0.8-0.4-1-0.6c0.9-1.1,1.4-2.4,1.7-3.9c0.2-1.5,0.4-2.9,0.4-4.2v-1.6c-0.1-1-0.2-2.3-0.3-3.8
		c-0.1-1.5-0.2-3-0.3-4.5c-0.1-1.5-0.2-3.2-0.4-5.3l-1.1-1c-0.1-0.1-0.6-0.1-1.2-0.2c-0.7-0.1-1.2-0.1-1.6-0.1c-0.5,0-1.3,0-2.3,0.1
		c-1,0.1-1.6,0.1-1.7,0.2c-0.3,0.1-0.6,0.2-1.1,0.3c-0.4,0.1-0.9,0.3-1.3,0.5c-0.4,0.2-0.8,0.4-1.1,0.6c-0.3,0.2-0.4,0.4-0.4,0.4
		v19.5c0.1,0.1,0.2,0.5,0.5,1c0.2,0.5,0.4,0.8,0.5,1v0.5c0,0.4-0.2,0.9-0.7,1.4c-0.5,0.5-1,1-1.7,1.4c-0.6,0.4-1.3,0.8-1.9,1.1
		c-0.6,0.3-1.2,0.4-1.6,0.4c-0.1,0-0.3,0-0.5-0.1c-0.2,0-0.4-0.1-0.4-0.1c-0.3-0.1-0.8-0.2-1.4-0.5c-0.6-0.2-1.3-0.5-2-0.9
		c-0.7-0.3-1.4-0.6-2-0.9c-0.6-0.3-1.1-0.5-1.4-0.6l2-2.9V46.2c-0.3,0-0.8,0-1.4,0.1c-0.6,0-1.3,0.1-2,0.2c-0.7,0.1-1.4,0.1-2,0.1
		c-0.6,0-1.1,0-1.4,0c-0.1,0-0.4-0.1-0.8-0.2c-0.4-0.1-0.8-0.2-1.2-0.3s-0.8-0.2-1.2-0.3c-0.4-0.1-0.6-0.2-0.7-0.2
		c-0.1,0-0.3,0-0.5,0.1c-0.2,0-0.4,0.1-0.4,0.1v6.7c1.2,0,2.4-0.2,3.5-0.5c1.1-0.3,2.4-0.5,3.8-0.5c0.3,0,0.9,0,1.7,0s1.4,0,1.7,0.1
		c-0.2,0-0.6,0-1.2,0.1c-0.6,0.1-1.2,0.2-1.8,0.3c-0.6,0.1-1.2,0.2-1.8,0.3c-0.5,0.1-0.9,0.2-1.1,0.3c-0.1,0-0.4,0.1-0.7,0.3
		c-0.3,0.2-0.7,0.4-1.1,0.5c-0.4,0.2-0.8,0.4-1.2,0.6c-0.4,0.2-0.6,0.4-0.9,0.5c-0.1,0.1-0.3,0.2-0.6,0.5c-0.3,0.3-0.4,0.4-0.4,0.5
		v29.2l-1.5,1.1V25.1l-1.5,1v38.1c0,1.1-0.4,2.3-1.3,3.6c-0.9,1.3-2,2.7-3.3,4c-1.4,1.4-2.9,2.7-4.6,4c-1.7,1.3-3.4,2.5-5.1,3.5
		s-3.3,1.9-4.8,2.5c-1.5,0.6-2.8,0.9-3.8,0.9c-1.8,0-3.5-0.4-5.1-1.1c-1.6-0.7-3.3-1.1-5.1-1.1c-1.7,0-3.1,0.5-4.3,1.4
		C1.5,82.9,1,84.3,1,86.2c0,1.2,0.4,2.1,1.1,2.6c0.8,0.5,1.7,0.8,2.8,0.8c0.9,0,1.6-0.1,2.4-0.3c0.7-0.2,1.3-0.8,1.6-1.8v1
		c0,1-0.4,1.8-1.3,2.3c-0.9,0.5-1.8,0.8-2.7,0.8c-1.6,0-2.9-0.6-3.7-1.7c-0.8-1.1-1.2-2.5-1.2-4C0,84.8,0.1,83.9,0.2,83.2z
		 M14.1,19.4c0.9-1.2,2.1-2.3,3.5-3.2c1.4-0.9,2.9-1.6,4.4-2.1c1.5-0.5,2.9-0.8,4.1-0.8c1.1,0,2.1,0.2,3.1,0.5
		c1,0.3,1.9,0.7,2.8,1.1c0.9,0.4,1.9,0.8,2.8,1.1c0.9,0.3,1.9,0.5,2.9,0.5h0.4c0.6-0.1,1.4-0.3,2.4-0.6c1-0.2,1.5-0.4,1.6-0.4
		c0.1-0.1,0.1-0.2,0.2-0.5c0.1-0.3,0.2-0.6,0.3-0.9c0.1-0.3,0.2-0.6,0.3-1c0.1-0.3,0.1-0.5,0.2-0.6c0.2-0.1,0.4-0.1,0.4-0.1
		c0.1,0,0.2,0,0.3,0.1c0.1,0,0.2,0.1,0.3,0.1c0.1,0.1,0.3,0.3,0.6,0.5c0.2,0.2,0.4,0.4,0.4,0.4c0,1.2-0.5,2.3-1.6,3.3
		c-1,1-2.3,1.8-3.7,2.5c-1.4,0.7-2.9,1.2-4.4,1.6c-1.5,0.4-2.7,0.6-3.6,0.6c-1.2,0-2.3-0.1-3.2-0.3c-0.9-0.2-1.8-0.5-2.7-0.8
		c-0.9-0.3-1.8-0.5-2.7-0.8c-0.9-0.2-1.9-0.3-3-0.3c-0.2,0-0.6,0-1.2,0.1c-0.6,0-1.2,0.1-1.8,0.3c-0.6,0.1-1.1,0.3-1.6,0.6
		c-0.5,0.3-0.7,0.6-0.7,1.1c0,0.1,0.2,0.6,0.5,1.4c0.3,0.8,0.5,1.3,0.5,1.4c0.1,0.1,0.1,0.5,0.2,1.1c0,0.6,0.1,1,0.1,1.1
		c-0.8,0-1.5-0.3-2.2-1c-0.7-0.6-1-1.4-1-2.1C12.7,21.9,13.1,20.6,14.1,19.4z M44,22.2c-0.1,0.1-0.3,0.2-0.6,0.5
		c-0.3,0.3-0.4,0.4-0.4,0.5v19.5c0,0.1,0.1,0.2,0.4,0.4c0.2,0.2,0.4,0.4,0.6,0.5c1.6,1.1,3.3,1.6,5,1.5c1.7-0.1,3.6-0.1,5.7-0.1
		V27.1L45,22.2h-0.5H44z M62.4,72.9h1V24.1l-1,1V72.9z M66.4,22.2c-0.1,0.1-0.3,0.2-0.6,0.5c-0.3,0.3-0.4,0.4-0.4,0.5v19.5
		c0,0.1,0.1,0.2,0.4,0.4c0.2,0.2,0.4,0.4,0.6,0.5c0.2,0.1,0.6,0.3,1,0.6c0.5,0.3,0.8,0.4,0.9,0.4h0.5c0.4,0,0.8,0,1.2,0.1
		c0.5,0,0.9,0.1,1.4,0.1c0.5,0,0.9,0,1.2,0c0.1,0,0.4,0,0.9,0s0.9,0,1.3-0.1c0.5,0,0.9-0.1,1.2-0.1c0.4,0,0.8,0,1,0
		c0-0.6,0.1-1.6,0.2-3.1s0.2-3.1,0.3-4.7c0.1-1.6,0.2-3.2,0.3-4.7c0.1-1.5,0.2-2.5,0.2-3.1v-1.8v-1.2c-0.1-0.1-0.3-0.1-0.5-0.2
		c-0.3-0.1-0.6-0.2-0.9-0.3c-0.3-0.1-0.6-0.2-1-0.3c-0.3-0.1-0.5-0.2-0.6-0.2c-0.4-0.1-0.9-0.4-1.6-0.7c-0.7-0.3-1.5-0.6-2.3-1
		c-0.8-0.3-1.6-0.6-2.4-0.9c-0.8-0.2-1.4-0.4-1.9-0.4H66.4z M65.5,52.5c3.7-1.5,7.6-2.3,11.7-2.3v-3.3c-0.3,0-0.8,0-1.4-0.1
		c-0.6,0-1.3-0.1-2-0.1c-0.7,0-1.4-0.1-2-0.1c-0.6,0-1.1-0.1-1.4-0.1c-0.1,0-0.4-0.1-0.8-0.2c-0.4-0.1-0.8-0.2-1.2-0.3
		c-0.4-0.1-0.8-0.2-1.2-0.3c-0.4-0.1-0.6-0.2-0.7-0.2h-0.5h-0.4V52.5z"/>
	<path class="st0" d="M96.8,64.6c0.9-1.5,1.9-2.9,3.2-4.2c1.3-1.3,2.7-2.5,4.1-3.5c1.5-1.1,2.8-2.1,4-3c-1.3-2.7-3.2-5.1-5.8-7.3
		c-2.6-2.1-5.2-3.9-7.8-5.3l4.8-4.8h0.8c0.6,0,1.2,0,1.9-0.1c0.7,0,1.4-0.1,2.1-0.1c0.8,0,1.4,0,1.9,0c0.6,0,1.4,0,2.4,0
		c1.1,0,2.1,0,3.2,0.1c1,0,2,0.1,2.8,0.1s1.4,0,1.5,0c0.1,0,0.4,0.1,0.9,0.2c0.5,0.1,1,0.2,1.6,0.3c0.6,0.1,1.1,0.2,1.6,0.3
		c0.5,0.1,0.8,0.2,0.9,0.2c0.3,0.1,0.9,0.1,1.8,0.1c1,0,1.7,0,2-0.1c-0.2,0.1-0.6,0.6-1.1,1.3c-0.5,0.8-0.8,1.3-0.9,1.6
		c-0.1,0.2-0.2,0.7-0.3,1.6c-0.1,0.8-0.2,1.7-0.3,2.6c-0.1,0.9-0.2,1.8-0.3,2.7c-0.1,0.9-0.1,1.5-0.1,1.9c0,0.1,0,0.7,0,1.6
		c0,0.9,0,2-0.1,3.2c0,1.2-0.1,2.5-0.1,3.8c0,1.3,0,2.3,0,3.1c0,0.4,0,1.2,0,2.4c0,1.1,0,2.2,0.1,3.4c0,1.2,0.1,2.4,0.1,3.5
		c0,1.1,0,1.8,0,2.3c0.2,0.8,0.6,1.5,1.1,2.2c0.5,0.7,1.1,1.3,1.8,1.8c-0.1,0.2-0.4,0.5-0.7,0.9c-0.3,0.4-0.7,0.8-1.1,1.2
		s-0.8,0.8-1.2,1.2c-0.4,0.4-0.6,0.6-0.9,0.6c-0.1,0-0.3,0-0.8,0c-0.4,0-0.8,0-1.1,0c-0.9,0-1.5-0.1-2-0.3c-0.5-0.2-0.9-0.5-1.2-0.9
		c-0.3-0.4-0.6-0.9-0.9-1.5c-0.3-0.6-0.6-1.3-0.9-2.2c-1.6,1.3-3.2,2.4-4.6,3.4c-1.4,1-3.2,1.5-5.3,1.5c-1.3,0-2.5-0.3-3.5-1
		c-1.1-0.7-2-1.5-2.7-2.6c-0.8-1.1-1.3-2.2-1.7-3.5c-0.4-1.3-0.6-2.5-0.6-3.7C95.5,67.7,95.9,66.1,96.8,64.6z M104.7,70.6
		c1.5,2,3.3,3.6,5.4,4.8h0.5h0.4c0.3-0.2,0.8-0.7,1.6-1.4c0.8-0.8,1.2-1.3,1.3-1.6c0-0.8,0.1-2.2,0.2-4.2c0.1-2,0.2-4.1,0.3-6.4
		c0.1-2.3,0.2-4.5,0.3-6.5c0.1-2,0.1-3.5,0.2-4.2c0-0.3,0.1-0.8,0.2-1.6c0.1-0.8,0.2-1.5,0.3-2.4c0.1-0.8,0.2-1.6,0.3-2.3
		c0.1-0.7,0.1-1.2,0.2-1.5c-1.4-0.3-3-0.7-4.8-1.2c-1.8-0.5-3.4-0.8-5-0.8h-0.9c-0.1,0.1-0.4,0.2-0.8,0.4c-0.4,0.2-0.8,0.4-1.2,0.6
		c-0.4,0.2-0.8,0.4-1.2,0.6c-0.4,0.2-0.6,0.4-0.8,0.4c0.4,0.4,0.9,1,1.8,1.9c0.8,0.9,1.7,1.9,2.6,2.9c0.9,1,1.8,2,2.6,3
		c0.8,0.9,1.4,1.6,1.8,1.9c0.6,0.8,1,1.5,1,2.1c0,0.6,0.1,1.4,0.1,2.3c0,0.1,0,0.5-0.1,1.2c0,0.6-0.1,1.1-0.1,1.3
		c-0.4-0.2-0.7-0.6-0.9-1c-0.1-0.5-0.3-0.9-0.4-1.3c-0.1-0.4-0.2-0.8-0.4-1.2c-0.1-0.4-0.4-0.5-0.9-0.5l-0.4,0.1
		c-0.4,0.4-1,0.8-1.7,1.3c-0.7,0.5-1.3,1.2-1.9,1.9c-0.6,0.7-1.1,1.5-1.6,2.3c-0.4,0.8-0.6,1.6-0.6,2.4
		C102.4,66.3,103.1,68.6,104.7,70.6z"/>
	<path class="st0" d="M128.6,19.6c-0.3-0.2-0.6-0.5-0.9-0.9c-0.3-0.3-0.5-0.6-0.6-0.9c-0.1-0.3-0.2-0.5-0.2-0.8
		c0-0.4,0.4-0.9,1.2-1.6c0.8-0.7,1.4-1.1,1.7-1.3c0.1-0.1,0.5-0.1,1.2-0.2c0.8-0.1,1.3-0.1,1.7-0.1c0.3,0,0.8,0,1.6,0.1
		c0.8,0.1,1.2,0.1,1.4,0.2c0.1,0.6,0.1,1.7,0.2,3.3c0.1,1.5,0.2,3.2,0.3,4.9c0.1,1.8,0.2,3.4,0.3,5c0.1,1.6,0.2,2.7,0.2,3.3
		c0,1,0,2.6,0.1,4.7c0,2.1,0.1,4.6,0.1,7.3c0,2.6,0,5.4,0,8.4c0,2.9,0,5.8,0,8.5c0,2.6,0,5-0.1,7.2c0,2.1-0.1,3.7-0.1,4.7l3.9,4
		c-0.1,0.2-0.4,0.5-0.7,0.9c-0.3,0.4-0.7,0.8-1.1,1.2s-0.8,0.8-1.2,1.2c-0.4,0.4-0.6,0.6-0.9,0.6c-0.1,0.1-0.3,0.1-0.8,0.2
		c-0.5,0-0.8,0.1-1.1,0.1c-0.3,0-0.7,0-1.2-0.1c-0.5,0-0.8-0.1-0.9-0.2c-0.2-0.1-0.5-0.2-0.9-0.5c-0.4-0.3-0.8-0.6-1.1-0.9
		c-0.4-0.3-0.7-0.6-0.9-0.9c-0.3-0.2-0.4-0.4-0.4-0.6V20C129.2,20,128.9,19.8,128.6,19.6z"/>
	<path class="st0" d="M143.9,19l4.8-4.9h0.5h0.4c0.3,0.2,0.8,0.7,1.6,1.4s1.2,1.3,1.4,1.6v0.4V18l-4.9,4.8c-1.5-0.9-2.5-1.6-2.9-1.9
		l-1-1c0-0.1,0-0.2-0.1-0.3c0-0.1-0.1-0.2-0.1-0.3C143.8,19.4,143.8,19.2,143.9,19z M148,67.8c0-2.9-0.1-5.7-0.1-8.5
		c0-2.9-0.1-5.7-0.2-8.6c-0.1-2.9-0.4-5.7-1-8.5c-0.3,0-0.8-0.2-1.6-0.8c-0.8-0.5-1.2-0.9-1.3-1.2c-0.2-0.4-0.1-0.8,0.4-1.4
		c0.5-0.6,1.1-1.1,1.8-1.7c0.8-0.5,1.5-1,2.3-1.4c0.8-0.4,1.4-0.6,1.8-0.6c1.1,0,2.1,0.4,2.8,1.3c0.7,0.9,1.3,1.8,1.6,2.8
		c-0.1,5.1-0.2,10.4-0.1,16c0.1,5.6,0.4,10.9,1.1,16.1l2.9,2.9c0,0.1,0,0.2,0.1,0.3c0,0.1,0.1,0.2,0.1,0.3c0,0.5-0.2,1-0.6,1.5
		c-0.4,0.5-1,1-1.6,1.4c-0.6,0.4-1.3,0.8-2,1.1c-0.7,0.3-1.3,0.4-1.8,0.4h-0.9c-0.1-0.1-0.4-0.2-0.7-0.5c-0.3-0.3-0.6-0.6-1-0.9
		s-0.6-0.6-0.9-0.9c-0.3-0.3-0.4-0.5-0.5-0.6C148.3,73.5,148,70.7,148,67.8z M146.3,89c-0.2,0-0.4-0.1-0.4-0.4
		c-0.1-0.3,0.1-0.4,0.4-0.4c0.4,0,0.6,0.1,0.5,0.4C146.8,88.9,146.6,89,146.3,89z"/>
	<path class="st0" d="M160.7,16.8c-0.1-0.1,0-0.2,0.2-0.5c0.2-0.3,0.4-0.6,0.8-0.9s0.7-0.6,1-0.9c0.4-0.2,0.7-0.4,1-0.6
		c0.1,0,0.4,0,1-0.1c0.6-0.1,1-0.1,1.4-0.1c0.4,0,0.9,0,1.5,0.1c0.6,0.1,1,0.1,1.1,0.1c0.4,0.1,0.8,0.5,1.4,1c0.6,0.5,0.9,0.8,0.9,1
		v24.4c0.7-0.3,1.4-0.7,2.1-1.3c0.7-0.6,1.4-1.1,2.1-1.7c0.7-0.5,1.4-1,2.2-1.4c0.8-0.4,1.5-0.6,2.3-0.6c0.6,0,1.3,0.3,2.1,0.9
		c0.8,0.6,1.6,1.3,2.4,2.1c0.8,0.8,1.5,1.6,2,2.5c0.6,0.9,0.9,1.5,0.9,1.9c0,0.3,0,0.5-0.1,0.5c-0.5,0.5-0.8,0.8-1,1
		c-0.3,0.2-0.8,0.6-1.6,1.3c-0.8,0.6-1.5,1.3-2.3,2.1c-0.8,0.8-1.6,1.4-2.3,2.1c-0.8,0.6-1.3,1.1-1.6,1.3c-0.1,0.1-0.1,0.3-0.1,0.5
		c0,0.3,0,0.5,0.1,0.5c0.1,0.1,0.3,0.4,0.7,0.8c0.4,0.4,0.8,0.8,1.2,1.2s0.8,0.8,1.2,1.2c0.4,0.4,0.6,0.6,0.7,0.7
		c0.9,1.3,1.7,2.9,2.3,4.8c0.6,1.9,1.2,3.8,1.9,5.6c0.7,1.9,1.5,3.6,2.5,5.1c1,1.5,2.4,2.6,4.1,3.1c-0.9,1-2,2.1-3.2,3.2
		c-1.2,1.1-2.5,1.7-4,1.7c-1.1,0-1.9-0.3-2.6-1c-0.7-0.6-1.3-1.4-1.7-2.4c-0.5-0.9-0.9-1.9-1.2-3c-0.3-1-0.6-1.9-0.9-2.6
		c-0.4-1.1-0.8-2.3-1.2-3.5c-0.4-1.3-0.9-2.5-1.4-3.8c-0.5-1.2-1.2-2.3-2-3.3c-0.8-1-1.9-1.7-3.2-2.1v13.6c0.1,0.2,0.5,0.7,1,1.4
		c0.5,0.8,0.8,1.3,1,1.6c0.1,0.2,0.1,0.4,0.1,0.4c0,0.4-0.2,0.9-0.6,1.3c-0.4,0.5-0.9,0.9-1.5,1.3c-0.6,0.4-1.1,0.8-1.7,1.1
		c-0.5,0.3-0.9,0.5-1.1,0.6c-0.1,0-0.2,0-0.3,0.1c-0.1,0-0.2,0.1-0.3,0.1c-0.1,0-0.2,0-0.4-0.1c-0.6-0.4-1.3-0.9-2.1-1.6
		c-0.9-0.7-1.3-1.1-1.3-1.3V20.8L160.7,16.8z M172.6,41c-0.8,0.5-1.1,0.9-1.1,1.3v12.7l7.8-7.8v-0.4v-0.5c-0.1-0.1-0.2-0.3-0.5-0.6
		c-0.3-0.4-0.5-0.8-0.9-1.2c-0.3-0.4-0.6-0.8-1-1.2c-0.3-0.4-0.6-0.6-0.7-0.9c-0.2-0.4-0.6-0.8-1.1-1.3c-0.5-0.5-0.8-0.8-0.9-0.8
		C173.9,40.2,173.3,40.5,172.6,41z"/>
	<path class="st0" d="M207.4,82.9c1.6-1.5,3.6-2.9,5.8-4.1c2.2-1.2,4.4-2.4,6.5-3.6c2.1-1.2,3.8-2.5,4.8-4c0.7-1.1,1.1-2.4,1.1-3.9
		c0-1.5,0-2.8,0-4c0-0.2,0-0.5,0-1c0-0.5,0-1-0.1-1.5c0-0.5-0.1-1-0.1-1.4c0-0.5,0-0.8,0-1c-0.9-1.1-1.8-2.1-2.7-2.8
		c-1-0.8-2.2-1.1-3.6-1.1c-0.9,0-1.8,0.2-2.5,0.5c-0.8,0.4-1.6,0.5-2.4,0.5l-0.4-0.1c0.9-1.1,1.8-2,2.7-2.7s1.8-1.4,2.7-1.9
		c0.9-0.5,1.9-1,2.9-1.5c1-0.5,2.1-1,3.3-1.6c0.1-0.1,0.3-0.3,0.6-0.5c0.2-0.2,0.4-0.4,0.4-0.4V34.1c0-0.5-0.3-1-1-1.5
		c-0.6-0.5-1.4-0.9-2.3-1.3c-0.9-0.4-1.7-0.7-2.6-0.9c-0.9-0.2-1.5-0.4-1.9-0.4c-1.4,0-2.6,0.3-3.6,0.9c-1,0.6-2.1,1.3-3.2,2.1v-1
		c0-0.1,0.2-0.4,0.6-0.9c0.4-0.5,1-1.1,1.6-1.7c0.6-0.6,1.3-1.2,1.9-1.8c0.6-0.6,1.2-1.1,1.6-1.4c0.1-0.1,0.3-0.2,0.6-0.4
		c0.4-0.2,0.8-0.4,1.2-0.6c0.4-0.2,0.8-0.4,1.2-0.6c0.4-0.2,0.6-0.3,0.9-0.4c0.1-0.1,0.5-0.1,1-0.2c0.5-0.1,1-0.2,1.6-0.3
		c0.5-0.1,1-0.2,1.5-0.3c0.5-0.1,0.8-0.1,0.9-0.2c0.1-0.1,0.5-0.4,1.1-0.9c0.6-0.5,1.2-1,1.8-1.6c0.6-0.5,1.3-1.1,1.8-1.6
		c0.6-0.5,0.9-0.8,1.1-1c0.2-0.1,0.5-0.4,1-0.9c0.4-0.4,0.9-0.8,1.5-1.2c0.6-0.4,1.1-0.7,1.7-0.9c0.6-0.2,1.1-0.2,1.7,0.1
		c0.3-0.2,0.9-0.6,1.7-1.1c0.9-0.5,1.8-1.1,2.7-1.8c0.9-0.6,1.8-1.3,2.6-1.8c0.8-0.6,1.4-1,1.8-1.2c0.5-0.4,1.1-0.8,1.8-1.4
		c0.7-0.6,1.4-1.2,2.1-1.7c0.8-0.5,1.5-1,2.3-1.4c0.8-0.4,1.6-0.6,2.4-0.6c0,1.3,0.3,2.4,1,3.3c0.6,0.9,1.4,1.8,2.4,2.5
		c1,0.7,2,1.4,3.1,2.1c1.1,0.7,2.1,1.4,3.1,2.2c1,0.8,1.8,1.7,2.4,2.8c0.6,1.1,1,2.5,1,4c0,1.2-0.2,2.4-0.7,3.6
		c-0.5,1.2-1.1,2.4-1.8,3.5c-0.8,1.1-1.6,2.1-2.6,3.1c-1,0.9-1.9,1.8-2.8,2.5c0.4,0.6,0.9,1.1,1.7,1.6c0.8,0.5,1.5,1,2.4,1.5
		c0.8,0.5,1.7,1.1,2.5,1.7c0.9,0.6,1.6,1.3,2.1,2c0.2,0.2,0.4,0.5,0.7,1c0.2,0.4,0.5,0.8,0.8,1.2c0.3,0.4,0.5,0.8,0.7,1.1
		c0.2,0.3,0.3,0.5,0.3,0.6v18.6c0.1,0.1,0.4,0.4,0.6,0.9c0.3,0.4,0.6,0.9,0.8,1.4c0.2,0.5,0.5,1,0.7,1.5c0.2,0.5,0.3,0.8,0.3,1
		c0,0.1-0.3,0.4-0.8,0.9c-0.5,0.5-0.9,0.9-1.2,1.2c-0.2,0.1-0.7,0.5-1.4,1c-0.8,0.5-1.3,0.8-1.6,1c-0.3,0.1-1,0.5-2.1,1.1
		c-1.1,0.6-2.4,1.2-3.7,1.8c-1.3,0.6-2.6,1.3-3.7,1.8c-1.1,0.6-1.9,0.9-2.1,1.1c-0.1,0.1-0.3,0.2-0.5,0.4c-0.3,0.2-0.6,0.4-0.9,0.6
		c-0.3,0.2-0.6,0.4-0.9,0.6c-0.3,0.2-0.5,0.3-0.5,0.3c0,0.1-0.1,0.1-0.4,0.1c-0.1,0-0.2,0-0.3,0c-0.1,0-0.2,0-0.2-0.1
		c-0.1,0-0.4-0.1-0.9-0.3c-0.5-0.2-1-0.4-1.5-0.6c-0.5-0.2-1.1-0.4-1.6-0.6c-0.5-0.2-0.8-0.3-0.9-0.4c-0.2-0.1-0.7,0-1.5,0.2v5.7
		l-1.5-6.9c0-0.1-0.5-0.2-1.5-0.5c-1-0.2-1.8-0.4-2.4-0.5c-0.1,0-0.4,0-1,0c-0.5,0-1.1,0-1.8-0.1c-0.7,0-1.4-0.1-2.1-0.1
		c-0.7,0-1.3,0-1.7,0c-1,0-2.4,0.1-4.2,0.3c-1.8,0.2-3.7,0.5-5.7,1c-2,0.4-4.1,1-6.2,1.6c-2.1,0.6-4,1.4-5.7,2.4s-3.1,2-4.2,3.2
		c-1.1,1.2-1.6,2.5-1.6,4c0,0.4,0.1,1.1,0.2,2.3c0.1,0.3,0.4,0.7,0.9,1.2c0.4,0.5,0.9,1,1.4,1.6c0.5,0.5,1.1,1,1.6,1.4
		c0.5,0.4,0.9,0.7,1.1,0.8c1.4,0.1,2.2,0.1,2.6,0.1c1.1,0,2.7-0.2,4.8-0.7c2-0.5,4-1.1,5.8-2c1.9-0.9,3.4-2,4.5-3.4
		c1.1-1.4,1.4-2.9,0.8-4.7c0.6,0.1,1,0.5,1,1c0,0.5,0.1,1,0.1,1.4c0,1.4-0.7,2.7-2,4.1c-1.3,1.4-2.9,2.6-4.7,3.6
		c-1.8,1.1-3.7,1.9-5.5,2.6c-1.9,0.6-3.3,1-4.4,1c-1.5,0-2.9-0.2-4.2-0.7c-1.3-0.5-2.4-1.1-3.4-2c-1-0.9-1.8-1.9-2.4-3.1
		c-0.6-1.2-0.9-2.6-0.9-4.1C204.9,86.3,205.8,84.4,207.4,82.9z M209.8,10.3c1.3-1.6,2.8-2.9,4.6-4c1.8-1.1,3.7-2,5.7-2.6
		c2-0.6,3.9-0.9,5.5-0.9c2.6,0,5.1,0.4,7.5,1.1c2.4,0.7,4.9,1.1,7.5,1.1c2,0,3.5-0.4,4.4-1.2C246,2.9,247,1.6,248,0v2.9
		c0,0.1-0.2,0.3-0.5,0.8c-0.4,0.4-0.8,0.9-1.3,1.4c-0.5,0.5-1.1,1-1.7,1.5c-0.6,0.5-1,0.9-1.4,1.2c-1.1,0.9-2.5,1.7-4.1,2.2
		c-1.6,0.5-3.2,0.8-4.7,0.8c-2.5,0-5-0.4-7.3-1.1c-2.4-0.7-4.8-1.1-7.3-1.1c-0.9,0-2,0.1-3.1,0.3c-1.1,0.2-2.2,0.5-3.2,0.9
		c-1,0.4-1.8,1-2.4,1.8c-0.6,0.8-1,1.8-1,3c0,0.6,0.2,1.2,0.5,1.8c0.3,0.5,0.7,1,1,1.5c0.4,0.5,0.7,0.9,1,1.4c0.3,0.5,0.5,1,0.5,1.6
		v0.4c-1.2-0.4-2.3-1.1-3.4-2.1c-1-1.1-1.6-2.3-1.6-3.6C207.9,13.6,208.6,11.9,209.8,10.3z M230.8,67.5c-1,1.3-2.2,2.5-3.4,3.6h1.5
		c1.1,0,2.1-0.3,3-0.8s1.6-1.2,2.1-2.1c0.6-0.9,1-1.8,1.3-2.8c0.3-1,0.6-2.1,0.8-3.1c0-1.1,0-2.8,0.1-5c0-2.3,0.1-4.9,0.2-7.8
		c0.1-2.9,0.1-5.9,0.2-9.1c0.1-3.2,0.1-6.2,0.2-9.1c0.1-2.9,0.1-5.5,0.2-7.8c0-2.3,0.1-4,0.2-5v-1.2c-1,0-1.7,0.5-2.1,1.5
		c-0.4,1-0.7,1.9-0.9,2.6c0,0.6,0,1.6,0.1,3c0,1.4,0.1,2.9,0.1,4.5c0,1.5,0,3-0.1,4.3c0,1.4-0.1,2.4-0.1,3c0,0.7,0,1.8-0.1,3.2
		c0,1.4-0.1,3-0.2,4.8c-0.1,1.8-0.1,3.7-0.2,5.7c-0.1,2-0.1,3.9-0.2,5.7c-0.1,1.8-0.1,3.4-0.2,4.8c-0.1,1.4-0.1,2.5-0.1,3.1
		C232.7,64.8,231.9,66.2,230.8,67.5z M244.8,44.8c-0.1,1.4-0.2,2.9-0.3,4.4c-0.1,1.5-0.2,3-0.3,4.4c-0.1,1.4-0.2,2.3-0.3,2.8
		c0,0.3-0.1,0.7-0.2,1.3c-0.1,0.6-0.2,1.3-0.4,1.9c-0.1,0.7-0.3,1.4-0.6,2c-0.3,0.7-0.5,1.2-0.8,1.6c-0.2,0.2-0.6,0.6-1.1,1.2
		c-0.5,0.6-1.1,1.2-1.7,1.8c-0.6,0.6-1.2,1.2-1.8,1.8c-0.6,0.5-1,0.9-1.2,1.1h9.7V41.8h-1C244.9,42.4,244.9,43.4,244.8,44.8z
		 M246.2,13.4c-0.8,0.8-1.2,1.6-1.2,2.2V38c1.4-0.9,3-1.6,4.6-2c1.6-0.4,3.2-0.8,4.7-1.3c1.5-0.5,2.8-1.1,4-2c1.2-0.9,2-2.4,2.4-4.5
		c0-0.1,0-0.4,0.1-1c0-0.6,0.1-1,0.1-1.4c0-1.9-0.5-3.4-1.4-4.7c-0.9-1.3-2.1-2.4-3.4-3.3c-1.4-1-2.8-1.9-4.2-2.8
		c-1.4-0.9-2.7-2-3.8-3.3C247.6,12,247,12.5,246.2,13.4z M250.9,40.9c-0.4,0.1-1,0.3-1.8,0.5c-0.8,0.2-1.1,0.4-1.1,0.4v6.9
		c0,0.2,0.2,0.5,0.5,0.8c0.3,0.3,0.7,0.6,1.1,0.9c0.4,0.3,0.9,0.6,1.3,0.9c0.4,0.3,0.8,0.4,1,0.4h0.5c0.4,0,0.8,0,1.2,0.1
		c0.5,0,0.9,0.1,1.4,0.1c0.5,0,0.9,0,1.2,0c0.3,0,0.8,0,1.6,0c0.8,0,1.6-0.1,2.5-0.2c0.9-0.1,1.6-0.3,2.3-0.7c0.6-0.4,1-0.9,1-1.7
		c0-1.1-0.4-2.2-1.2-3.2c-0.8-1-1.8-1.9-3.1-2.6c-1.2-0.8-2.5-1.3-3.9-1.8c-1.4-0.4-2.5-0.6-3.5-0.6H250.9z M248,59.4
		c0.1-0.1,0.6-0.3,1.3-0.6c0.8-0.2,1.3-0.4,1.6-0.4c0.5-0.1,1.3-0.1,2.5-0.2c1.2,0,2.4-0.1,3.8-0.1c1.4,0,2.6-0.1,3.8-0.1
		c1.2,0,2-0.1,2.5-0.1v-5.6c-0.1,0-0.5,0-1,0.1c-0.5,0-0.8,0.1-1,0.1c-0.1,0-0.6,0.1-1.2,0.2c-0.7,0.1-1.4,0.2-2.1,0.3
		s-1.5,0.2-2.1,0.3c-0.7,0.1-1.1,0.2-1.3,0.2h-0.5h-0.4c-0.2-0.1-0.6-0.2-1.1-0.4c-0.5-0.2-1.1-0.4-1.8-0.6
		c-0.6-0.2-1.2-0.4-1.8-0.6c-0.5-0.2-0.9-0.3-1.1-0.4V59.4z M255,59.2c-0.4,0-0.9,0-1.3,0.1c-0.5,0-0.9,0.1-1.2,0.1
		c-0.4,0-0.6,0.1-0.6,0.1c-0.3,0-0.6,0.1-1.1,0.3c-0.4,0.2-0.9,0.4-1.3,0.6c-0.4,0.2-0.8,0.4-1.1,0.6c-0.3,0.2-0.4,0.4-0.4,0.4v7.8
		c0,0.1,0.1,0.2,0.4,0.4c0.2,0.2,0.4,0.4,0.6,0.5c0.1,0,0.3,0.1,0.7,0.2c0.4,0.1,0.8,0.2,1.2,0.3c0.4,0.1,0.8,0.2,1.2,0.3
		c0.4,0.1,0.6,0.1,0.7,0.2c0.3,0.1,0.8,0.2,1.4,0.5c0.6,0.3,1.3,0.5,2,0.9c0.7,0.3,1.4,0.6,2,0.9c0.6,0.3,1.1,0.5,1.4,0.6
		c0.2-0.1,0.6-0.3,1.3-0.6c0.6-0.4,1.3-0.8,2-1.2c0.7-0.4,1.3-0.8,1.8-1.2c0.5-0.4,0.8-0.6,0.8-0.9l-1-8.8c0-0.1-0.1-0.2-0.4-0.4
		c-0.3-0.2-0.6-0.4-1.1-0.6c-0.4-0.2-0.9-0.4-1.3-0.6c-0.4-0.2-0.8-0.3-1.1-0.3c-0.1-0.1-0.8-0.1-1.9-0.2c-1.1,0-1.9-0.1-2.5-0.1
		C255.9,59.2,255.5,59.2,255,59.2z"/>
	<path class="st0" d="M278.7,64.6c0.9-1.5,1.9-2.9,3.2-4.2c1.3-1.3,2.7-2.5,4.1-3.5c1.5-1.1,2.8-2.1,4-3c-1.3-2.7-3.2-5.1-5.8-7.3
		c-2.6-2.1-5.2-3.9-7.8-5.3l4.8-4.8h0.8c0.6,0,1.2,0,1.9-0.1c0.7,0,1.4-0.1,2.1-0.1c0.8,0,1.4,0,1.9,0c0.6,0,1.4,0,2.4,0
		c1.1,0,2.1,0,3.2,0.1c1,0,2,0.1,2.8,0.1s1.4,0,1.5,0c0.1,0,0.4,0.1,0.9,0.2c0.5,0.1,1,0.2,1.6,0.3c0.6,0.1,1.1,0.2,1.6,0.3
		c0.5,0.1,0.8,0.2,0.9,0.2c0.3,0.1,0.9,0.1,1.8,0.1c1,0,1.7,0,2-0.1c-0.2,0.1-0.6,0.6-1.1,1.3c-0.5,0.8-0.8,1.3-0.9,1.6
		c-0.1,0.2-0.2,0.7-0.3,1.6c-0.1,0.8-0.2,1.7-0.3,2.6c-0.1,0.9-0.2,1.8-0.3,2.7c-0.1,0.9-0.1,1.5-0.1,1.9c0,0.1,0,0.7,0,1.6
		c0,0.9,0,2-0.1,3.2c0,1.2-0.1,2.5-0.1,3.8c0,1.3,0,2.3,0,3.1c0,0.4,0,1.2,0,2.4c0,1.1,0,2.2,0.1,3.4c0,1.2,0.1,2.4,0.1,3.5
		c0,1.1,0,1.8,0,2.3c0.2,0.8,0.6,1.5,1.1,2.2c0.5,0.7,1.1,1.3,1.8,1.8c-0.1,0.2-0.4,0.5-0.7,0.9c-0.3,0.4-0.7,0.8-1.1,1.2
		c-0.4,0.4-0.8,0.8-1.2,1.2c-0.4,0.4-0.6,0.6-0.9,0.6c-0.1,0-0.3,0-0.8,0c-0.4,0-0.8,0-1.1,0c-0.9,0-1.5-0.1-2-0.3
		c-0.5-0.2-0.9-0.5-1.2-0.9c-0.3-0.4-0.6-0.9-0.9-1.5c-0.3-0.6-0.6-1.3-0.9-2.2c-1.6,1.3-3.2,2.4-4.6,3.4c-1.4,1-3.2,1.5-5.3,1.5
		c-1.3,0-2.5-0.3-3.5-1c-1.1-0.7-2-1.5-2.7-2.6s-1.3-2.2-1.7-3.5c-0.4-1.3-0.6-2.5-0.6-3.7C277.5,67.7,277.9,66.1,278.7,64.6z
		 M286.6,70.6c1.5,2,3.3,3.6,5.4,4.8h0.5h0.4c0.3-0.2,0.8-0.7,1.6-1.4s1.2-1.3,1.3-1.6c0-0.8,0.1-2.2,0.2-4.2c0.1-2,0.2-4.1,0.3-6.4
		c0.1-2.3,0.2-4.5,0.3-6.5c0.1-2,0.1-3.5,0.2-4.2c0-0.3,0.1-0.8,0.2-1.6c0.1-0.8,0.2-1.5,0.3-2.4c0.1-0.8,0.2-1.6,0.3-2.3
		c0.1-0.7,0.1-1.2,0.2-1.5c-1.4-0.3-3-0.7-4.8-1.2c-1.8-0.5-3.4-0.8-5-0.8h-0.9c-0.1,0.1-0.4,0.2-0.8,0.4c-0.4,0.2-0.8,0.4-1.2,0.6
		c-0.4,0.2-0.8,0.4-1.2,0.6c-0.4,0.2-0.6,0.4-0.8,0.4c0.4,0.4,0.9,1,1.8,1.9c0.8,0.9,1.7,1.9,2.6,2.9c0.9,1,1.8,2,2.6,3
		c0.8,0.9,1.4,1.6,1.8,1.9c0.6,0.8,1,1.5,1,2.1c0,0.6,0.1,1.4,0.1,2.3c0,0.1,0,0.5-0.1,1.2c0,0.6-0.1,1.1-0.1,1.3
		c-0.4-0.2-0.7-0.6-0.9-1c-0.1-0.5-0.3-0.9-0.4-1.3s-0.2-0.8-0.4-1.2c-0.1-0.4-0.4-0.5-0.9-0.5l-0.4,0.1c-0.4,0.4-1,0.8-1.7,1.3
		c-0.7,0.5-1.3,1.2-1.9,1.9c-0.6,0.7-1.1,1.5-1.6,2.3c-0.4,0.8-0.6,1.6-0.6,2.4C284.3,66.3,285.1,68.6,286.6,70.6z"/>
	<path class="st0" d="M316.2,32c-0.9-1.2-1.9-2.5-3-3.8c-1-1.3-2-2.6-3-3.8c-0.9-1.2-1.6-2-1.9-2.5l-1-1c-0.2-0.4-0.6-0.9-1.1-1.6
		c-0.5-0.7-0.8-1.1-0.9-1.3c0-0.1,0-0.2-0.1-0.3c0-0.1-0.1-0.2-0.1-0.3c0-0.5,0.2-1,0.6-1.4c0.4-0.4,0.9-0.8,1.5-1.1
		c0.6-0.3,1.2-0.6,1.8-0.8c0.6-0.2,1.1-0.3,1.6-0.3c0.1,0,0.4,0,0.7,0.1c0.3,0,0.6,0.1,0.7,0.1c0.2,0.1,0.6,0.4,1,0.9
		c0.5,0.5,1,1,1.5,1.5c0.5,0.5,1,1,1.5,1.5c0.5,0.5,0.8,0.8,0.9,1c0.9,1,2,2.3,3.4,4c1.4,1.7,2.8,3.4,4.1,5c1.4,1.7,2.5,3.1,3.5,4.4
		c1,1.3,1.5,1.9,1.6,2.1l1,1.9c0,0.1,0.1,0.8,0.2,2s0.2,2.8,0.3,4.6c0.1,1.8,0.2,3.6,0.3,5.4c0.1,1.8,0.2,3.3,0.2,4.5v7.8v7.7
		c-0.6,0.7-1.6,1.7-3,2.9c-1.4,1.2-2.9,2.4-4.5,3.6c-1.6,1.2-3.2,2.2-4.7,3.1s-2.7,1.3-3.5,1.3s-1.5-0.1-1.8-0.4
		c-0.4-0.3-1-0.8-2-1.6c-0.2-0.2-0.5-0.5-0.8-0.8c-0.3-0.3-0.6-0.6-1-0.9c-0.3-0.3-0.7-0.7-1.1-1.2V42.3c0-0.1,0.2-0.3,0.8-0.8
		c0.5-0.5,0.9-0.8,1.2-1.1c0.1-0.1,0.3-0.2,0.7-0.5c0.4-0.3,0.8-0.6,1.3-0.9c0.5-0.3,0.9-0.6,1.2-0.9c0.4-0.3,0.6-0.5,0.8-0.5
		l2.9-2.9C317.8,34,317.1,33.2,316.2,32z M319.1,36.5c-0.4,0.4-1,0.9-1.8,1.6c-0.8,0.7-1.1,1.1-1.1,1.3v29.2c0,0.1,0.1,0.3,0.4,0.6
		c0.3,0.3,0.6,0.7,1.1,1.1c0.4,0.4,0.9,0.8,1.3,1.2c0.4,0.4,0.8,0.8,1.1,1.1c0.6,0.4,1.2,0.7,1.9,0.9c0.7,0.2,1.3,0.3,2,0.3V41.3
		l-3.9-4.8c-0.2-0.1-0.4-0.1-0.4-0.1C319.6,36.4,319.4,36.4,319.1,36.5z"/>
	<path class="st0" d="M348.9,35.8c0.9,0.9,1.7,1.9,2.5,3c0.8,1.1,1.5,2.3,2.1,3.4c0.6,1.1,0.9,2,0.9,2.6v0.4
		c-0.9,1.2-1.9,2.2-2.8,3.1c-0.9,0.8-1.9,1.6-3,2.2c-1,0.7-2.1,1.4-3.2,2c-1.1,0.7-2.3,1.5-3.7,2.4c-0.1,0.1-0.3,0.3-0.6,0.5
		c-0.3,0.2-0.4,0.4-0.4,0.4v13.5c0,0.1,0.1,0.2,0.3,0.5c0.2,0.2,0.5,0.5,0.8,0.9c0.3,0.3,0.6,0.6,1,1c0.3,0.3,0.6,0.6,0.8,0.7
		c1,0.6,2.1,1.2,3.3,1.7s2.4,0.6,3.6,0.2c-0.5,0.6-1.1,1.2-1.7,1.9c-0.6,0.7-1.3,1.3-2,1.9c-0.7,0.6-1.4,1.1-2.2,1.5
		c-0.8,0.4-1.5,0.6-2.3,0.6c-0.6,0-1.3-0.2-2.3-0.6c-0.9-0.4-1.8-0.9-2.7-1.4c-0.9-0.5-1.7-1.1-2.4-1.6c-0.7-0.5-1-1-1-1.3v-31l1-1
		c0.1-0.1,0.6-0.5,1.2-1.1c0.7-0.6,1.4-1.2,2.1-1.8c0.8-0.6,1.5-1.2,2.1-1.8c0.7-0.6,1.1-0.9,1.2-1.1c0.8-0.7,1.5-1.4,2.1-2
		s1.6-1,2.8-1C347.3,34.5,348.1,35,348.9,35.8z M340.8,54.1c0.2-0.1,0.6-0.4,1.2-0.8c0.6-0.4,1.2-0.8,1.8-1.2s1.2-0.8,1.8-1.2
		c0.5-0.4,0.9-0.6,1.1-0.8l1-1c0-0.6-0.3-1.4-0.8-2.2c-0.5-0.8-1.2-1.6-1.9-2.5c-0.7-0.8-1.5-1.6-2.3-2.4c-0.8-0.8-1.4-1.3-1.9-1.8
		V54.1z"/>
	<path class="st0" d="M357.8,40.3c-0.6-0.5-1-0.8-1.2-1c-0.1-0.2-0.1-0.4-0.1-0.4c0-0.1,0-0.3,0.1-0.5c0.2-0.2,0.5-0.5,0.9-1
		c0.4-0.4,0.8-0.9,1.2-1.3c0.4-0.4,0.8-0.8,1.1-1.1c0.3-0.3,0.5-0.5,0.6-0.5c0.1-0.1,0.5-0.1,1.2-0.2c0.6-0.1,1.1-0.1,1.5-0.1
		c0.3,0,0.7,0,1.3,0.1c0.6,0.1,0.9,0.1,1,0.2c0.2,0.1,0.4,0.4,0.5,0.9c0.1,0.4,0.3,0.9,0.4,1.4s0.2,1.1,0.2,1.6c0,0.4,0,0.8-0.1,1
		c1.4-1,2.9-2.1,4.5-3.3c1.6-1.2,3.3-1.8,5.2-1.8c0.5,0,1.1,0.1,1.8,0.2c0.7,0.1,1.3,0.4,2,0.7c0.6,0.3,1.2,0.7,1.6,1.2
		c0.4,0.5,0.6,1,0.6,1.6c0,0.1,0,0.2-0.1,0.4l-5.9,4.8c-0.9-0.8-2-1.5-3.2-2c-1.2-0.6-2.4-0.9-3.6-0.9c-0.4,0-0.9,0.1-1.7,0.2
		c-0.8,0.1-1.2,0.4-1.2,0.8v29.2c0.2,0.2,0.7,0.7,1.4,1.4s1.2,1.3,1.4,1.6c0.1,0.2,0.1,0.4,0.1,0.4c0,0.5-0.2,1-0.6,1.6
		c-0.4,0.5-1,1-1.6,1.4s-1.3,0.8-2,1.1c-0.7,0.3-1.3,0.4-1.8,0.4c-0.1,0-0.3,0-0.5-0.1c-0.2,0-0.4-0.1-0.4-0.1
		c-0.2-0.1-0.5-0.4-0.9-0.6c-0.4-0.3-0.8-0.6-1.1-0.9c-0.4-0.3-0.7-0.6-0.9-0.9c-0.3-0.2-0.4-0.4-0.4-0.5V41.3
		C358.9,41.2,358.5,40.8,357.8,40.3z"/>
</g>
</svg>
