<?xml version="1.0" encoding="utf-8"?>
<!-- Generator: Adobe Illustrator 25.4.1, SVG Export Plug-In . SVG Version: 6.00 Build 0)  -->
<svg version="1.1" id="Layer_1" xmlns="http://www.w3.org/2000/svg" xmlns:xlink="http://www.w3.org/1999/xlink" x="0px" y="0px" width="275"
	 viewBox="0 0 300 145" style="enable-background:new 0 0 300 145;" xml:space="preserve">
<style type="text/css">
	.st0{fill:rgb(230, 230, 230);}
</style>
<g>
	<path class="st0" d="M0.7,112.8c0.2-1.1,0.5-1.9,1-2.7s1.1-1.4,1.9-2s1.8-1.4,3-2.2c1.4-1,2.7-1.9,3.7-2.7c1-0.8,1.9-1.4,2.8-1.9
		c0.9-0.5,1.9-0.9,3-1.2c1.1-0.3,2.5-0.4,4.3-0.4c2.9,0,5.5,0.5,7.9,1.6s5,1.6,7.7,1.6c1.6,0,3.2-0.3,4.9-0.8
		c1.7-0.5,3.3-1.2,4.7-2.2c1.4-0.9,2.5-2.1,3.5-3.5c0.9-1.4,1.4-3,1.4-4.9c0-2.4-0.5-4.5-1.5-6.2c-1-1.7-2.3-3.1-3.9-4.2
		c-1.6-1.1-3.4-2-5.3-2.7c-1.9-0.7-3.9-1.1-5.9-1.3c1.9-2.5,3.7-4.4,5.3-5.6c1.7-1.2,3.9-2.3,6.6-3.4c0.1-0.1,0.4-0.1,0.8-0.1
		c0.4,0.1,0.7,0.1,0.8,0.1c0.2-0.1,0.7-0.3,1.5-0.7c0.8-0.3,1.3-0.6,1.5-0.8v-5.3c0-2.3-0.4-4.8-1.2-7.3c-0.8-2.5-1.9-4.9-3.4-7.1
		c-1.5-2.2-3.3-4-5.4-5.4c-2.1-1.4-4.5-2.2-7.3-2.2c-1.4,0-2.7,0.3-3.9,0.8c-1.2,0.6-2.4,0.8-3.7,0.8c-0.1,0-0.2,0-0.4-0.1
		c-0.2-0.1-0.3-0.1-0.4-0.1c2-2.5,4.3-5,7.1-7.2s5.8-3.4,9.4-3.4c0.4,0,1.1,0,1.8,0.1c0.8,0.1,1.2,0.1,1.3,0.1
		c0.1,0,0.5,0.1,1.1,0.2c0.6,0.2,1.3,0.4,2,0.6c0.7,0.2,1.4,0.4,1.9,0.5c0.6,0.1,0.9,0.2,1.2,0.2c0.1-0.1,0.4-0.4,0.8-1
		c0.4-0.6,0.9-1.2,1.4-1.9c0.5-0.7,1-1.4,1.4-2c0.4-0.6,0.7-1,0.8-1.1c1.1-1.3,2.5-2.7,4.1-4.2c1.6-1.4,3.2-2.8,4.9-4.2
		c1.7-1.3,3.3-2.6,4.9-3.7c1.6-1.2,3-2.2,4.2-3.1c0.9-0.7,1.6-1.1,2.2-1.3c0.6-0.2,1.4-0.3,2.4-0.3c0.2,0,0.5,0,0.8,0
		c0.3,0,0.5,0.1,0.5,0.2l18.1,9l15.1-7.5c0.1-0.1,0.4-0.2,1-0.2c0.6,0,0.9,0,1.2,0c1,0,2.4,0.3,4.2,0.8c1.8,0.6,3.8,1.2,5.8,2
		c2,0.8,4,1.6,5.9,2.5c1.9,0.9,3.4,1.7,4.5,2.3l-1.5,3c-0.1,5.2-0.2,9.9-0.2,14c-0.1,4.2-0.1,8.9-0.3,14.1c-0.1,5.3-0.2,10.6-0.3,16
		c-0.1,5.4-0.2,10.6-0.3,15.6c-0.1,5-0.2,9.3-0.3,12.8v1c0,0.6,0.3,1.1,0.9,1.7c0.6,0.6,1.3,1.1,2,1.6c0.7,0.5,1.4,0.9,2.1,1.2
		c0.7,0.3,1.1,0.6,1.2,0.7h0.7h0.8c0.3-0.1,1.1-0.4,2.2-0.7c1.2-0.4,1.9-0.6,2.2-0.7v1.5c-1.3,1-2.5,1.8-3.5,2.4
		c-1,0.6-2,1.2-3.1,1.9c-1.1,0.7-1.9,1.2-2.6,1.7c-0.3,0.2-0.8,0.5-1.4,0.8c-0.6,0.3-1.2,0.7-1.9,1c-0.7,0.3-1.2,0.6-1.7,0.8
		c-0.5,0.2-0.8,0.3-0.9,0.3c-1.6-0.8-2.5-1.3-3-1.5c-0.3-0.1-0.9-0.4-1.6-0.8c-0.7-0.4-1.5-0.9-2.2-1.4c-0.8-0.5-1.5-0.9-2.2-1.3
		c-0.7-0.4-1.3-0.7-1.6-0.9c1.3-1.8,2.2-3.8,2.6-6.1s0.6-4.5,0.6-6.6v-2.5c-0.1-1.5-0.2-3.5-0.4-5.9c-0.2-2.4-0.3-4.7-0.5-7
		c-0.2-2.3-0.4-5-0.6-8.2l-1.7-1.5c-0.2-0.1-0.9-0.2-1.9-0.3c-1-0.1-1.9-0.2-2.4-0.2c-0.8,0-1.9,0.1-3.5,0.2
		c-1.6,0.1-2.4,0.2-2.7,0.3c-0.4,0.1-1,0.3-1.7,0.5c-0.7,0.2-1.3,0.5-2,0.8c-0.7,0.3-1.2,0.7-1.7,1c-0.4,0.3-0.7,0.6-0.7,0.7v30.3
		c0.1,0.2,0.4,0.7,0.8,1.5c0.4,0.8,0.6,1.3,0.7,1.5v0.8c0,0.7-0.4,1.4-1.1,2.2c-0.7,0.8-1.6,1.6-2.6,2.2c-1,0.7-2,1.2-3,1.7
		c-1,0.4-1.8,0.7-2.5,0.7c-0.2,0-0.5,0-0.8-0.1c-0.3-0.1-0.6-0.1-0.7-0.1c-0.4-0.1-1.2-0.4-2.2-0.7c-1-0.4-2.1-0.8-3.2-1.3
		s-2.2-1-3.2-1.4c-1-0.4-1.7-0.8-2.2-1l3.2-4.5V55.5c-0.4,0-1.2,0-2.2,0.1c-1,0.1-2.1,0.1-3.2,0.2S77.8,56,76.8,56c-1,0-1.7,0-2.2,0
		c-0.2,0-0.6-0.1-1.2-0.2c-0.6-0.2-1.2-0.3-1.8-0.5c-0.7-0.2-1.3-0.3-1.9-0.5c-0.6-0.2-1-0.2-1.1-0.2c-0.2,0-0.5,0-0.8,0.1
		c-0.3,0.1-0.6,0.1-0.7,0.1V65c1.9,0,3.7-0.3,5.5-0.7c1.8-0.5,3.7-0.8,5.8-0.8c0.4,0,1.3,0,2.7,0c1.3,0,2.2,0.1,2.7,0.2
		c-0.3,0-0.9,0.1-1.8,0.2c-0.9,0.1-1.8,0.2-2.8,0.4c-1,0.2-1.9,0.3-2.7,0.5c-0.8,0.2-1.4,0.3-1.7,0.4c-0.2,0-0.6,0.1-1.1,0.4
		c-0.5,0.3-1.1,0.6-1.7,0.8c-0.7,0.3-1.3,0.6-1.8,0.9c-0.6,0.3-1,0.6-1.3,0.8c-0.2,0.1-0.5,0.4-0.9,0.8c-0.4,0.4-0.6,0.6-0.6,0.7
		v45.2l-2.3,1.7V22.8l-2.3,1.5v59c0,1.7-0.7,3.5-2,5.6c-1.3,2.1-3.1,4.1-5.2,6.2c-2.1,2.1-4.5,4.2-7.1,6.2c-2.6,2-5.2,3.9-7.9,5.5
		c-2.7,1.6-5.2,2.9-7.5,3.8c-2.3,0.9-4.3,1.4-5.8,1.4c-2.8,0-5.4-0.6-7.9-1.7c-2.5-1.1-5.1-1.7-7.9-1.7c-2.7,0-4.9,0.7-6.6,2.2
		c-1.8,1.4-2.7,3.6-2.7,6.5c0,1.9,0.6,3.2,1.7,4.1c1.2,0.8,2.6,1.2,4.4,1.2c1.3,0,2.5-0.1,3.7-0.4s1.9-1.2,2.5-2.7v1.5
		c0,1.6-0.7,2.7-2,3.5c-1.3,0.8-2.7,1.2-4.2,1.2c-2.5,0-4.5-0.9-5.7-2.7c-1.3-1.8-1.9-3.8-1.9-6.1C0.5,115.2,0.6,113.9,0.7,112.8z
		 M22.3,14c1.4-1.9,3.2-3.5,5.4-4.9c2.2-1.4,4.4-2.5,6.8-3.3c2.4-0.8,4.5-1.2,6.4-1.2c1.7,0,3.2,0.2,4.7,0.7c1.5,0.5,3,1.1,4.4,1.7
		c1.4,0.6,2.9,1.2,4.3,1.7c1.4,0.5,2.9,0.7,4.5,0.7h0.7c0.9-0.2,2.1-0.5,3.7-0.9c1.6-0.4,2.4-0.6,2.5-0.6C65.8,7.7,65.9,7.4,66,7
		c0.1-0.4,0.3-0.9,0.4-1.4s0.3-1,0.4-1.5c0.1-0.5,0.2-0.8,0.3-0.9C67.5,3.1,67.7,3,67.8,3s0.3,0,0.4,0.1c0.2,0.1,0.3,0.1,0.4,0.1
		c0.2,0.2,0.5,0.5,0.9,0.8c0.4,0.3,0.6,0.6,0.6,0.7c0,1.9-0.8,3.6-2.4,5.1c-1.6,1.5-3.5,2.8-5.7,3.8c-2.2,1.1-4.5,1.9-6.8,2.5
		C52.9,16.7,51,17,49.6,17c-1.9,0-3.6-0.2-5-0.5c-1.4-0.3-2.8-0.7-4.2-1.2c-1.3-0.4-2.7-0.8-4.2-1.2c-1.4-0.3-3-0.5-4.7-0.5
		c-0.3,0-1,0-1.9,0.1c-0.9,0.1-1.9,0.2-2.8,0.4c-0.9,0.2-1.8,0.5-2.5,0.9c-0.7,0.4-1.1,1-1.1,1.7c0,0.2,0.3,1,0.7,2.2
		c0.5,1.3,0.8,2,0.8,2.2c0.1,0.2,0.2,0.8,0.2,1.7c0.1,0.9,0.1,1.5,0.1,1.7c-1.2,0-2.4-0.5-3.4-1.5c-1.1-1-1.6-2.1-1.6-3.3
		C20.1,17.8,20.8,15.9,22.3,14z M68.7,18.3c-0.2,0.1-0.5,0.4-0.9,0.7c-0.4,0.4-0.6,0.6-0.6,0.8v30.3c0,0.1,0.2,0.3,0.6,0.7
		c0.4,0.3,0.7,0.6,0.9,0.8c2.5,1.7,5.1,2.4,7.7,2.3c2.6-0.1,5.6-0.2,8.9-0.2V25.9l-15.1-7.6h-0.8H68.7z M97.3,96.8h1.5V21.3
		l-1.5,1.5V96.8z M103.4,18.3c-0.2,0.1-0.5,0.4-0.9,0.7c-0.4,0.4-0.6,0.6-0.6,0.8v30.3c0,0.1,0.2,0.3,0.6,0.7
		c0.4,0.3,0.7,0.6,0.9,0.8c0.3,0.2,0.9,0.5,1.6,0.9c0.7,0.4,1.2,0.6,1.4,0.6h0.8c0.5,0,1.2,0,1.9,0.1c0.7,0.1,1.5,0.1,2.2,0.1
		c0.8,0,1.4,0,1.8,0c0.2,0,0.7,0,1.3,0c0.7,0,1.4,0,2.1-0.1c0.7-0.1,1.4-0.1,1.9-0.1c0.7,0,1.2,0,1.5,0c0-0.9,0.1-2.5,0.2-4.8
		c0.2-2.3,0.3-4.8,0.5-7.3c0.2-2.5,0.3-5,0.5-7.2c0.2-2.3,0.2-3.9,0.2-4.8v-2.8v-1.8c-0.1-0.1-0.4-0.2-0.8-0.3
		c-0.4-0.1-0.9-0.3-1.4-0.4c-0.5-0.2-1-0.3-1.5-0.5s-0.8-0.2-0.9-0.2c-0.6-0.2-1.4-0.6-2.5-1.1c-1.1-0.5-2.3-1-3.6-1.5
		c-1.3-0.5-2.5-0.9-3.7-1.3c-1.2-0.4-2.2-0.6-3-0.6H103.4z M101.9,65.2c5.8-2.3,11.8-3.5,18.1-3.5v-5.2c-0.4,0-1.2,0-2.2-0.1
		c-1-0.1-2.1-0.1-3.2-0.2c-1.1-0.1-2.2-0.1-3.2-0.2c-1-0.1-1.7-0.1-2.2-0.1c-0.2,0-0.6-0.1-1.2-0.2c-0.6-0.2-1.2-0.3-1.8-0.5
		c-0.7-0.2-1.3-0.3-1.9-0.5c-0.6-0.2-1-0.2-1.1-0.2h-0.8h-0.7V65.2z"/>
	<path class="st0" d="M150.5,83.9c1.3-2.3,3-4.5,5-6.5c2-2,4.1-3.8,6.4-5.5c2.3-1.7,4.3-3.2,6.2-4.6c-2-4.2-5-7.9-9.1-11.2
		c-4-3.3-8.1-6.1-12.1-8.3l7.5-7.5h1.2c0.9,0,1.9,0,2.9-0.1c1.1-0.1,2.1-0.1,3.2-0.1c1.2,0,2.2,0,3,0c0.9,0,2.1,0,3.7,0
		c1.7,0,3.3,0,4.9,0.1c1.6,0.1,3.1,0.1,4.4,0.1c1.3,0,2.1,0,2.3,0c0.2,0,0.7,0.1,1.4,0.3c0.7,0.2,1.5,0.3,2.4,0.5
		c0.9,0.2,1.7,0.3,2.4,0.5c0.7,0.2,1.2,0.3,1.4,0.3c0.4,0.1,1.4,0.2,2.8,0.2c1.5,0,2.6-0.1,3.2-0.2c-0.3,0.2-0.9,0.9-1.7,2.1
		s-1.2,2-1.3,2.4c-0.1,0.3-0.3,1.1-0.4,2.4s-0.3,2.6-0.5,4.1c-0.2,1.4-0.3,2.8-0.4,4.2c-0.1,1.3-0.2,2.3-0.2,3c0,0.2,0,1.1,0,2.5
		c0,1.4,0,3.1-0.1,5c-0.1,1.9-0.1,3.8-0.1,5.8c0,2,0,3.6,0,4.8c0,0.7,0,1.9,0,3.7c0,1.7,0,3.4,0.1,5.3c0.1,1.9,0.1,3.7,0.1,5.5
		c0,1.7,0,2.8,0,3.5c0.3,1.2,0.9,2.4,1.7,3.4c0.8,1.1,1.7,2,2.7,2.7c-0.2,0.3-0.6,0.8-1.1,1.3c-0.5,0.6-1.1,1.2-1.7,1.8
		c-0.7,0.7-1.3,1.3-1.8,1.8c-0.6,0.6-1,0.9-1.3,1c-0.1,0-0.5,0-1.2,0c-0.7,0-1.2,0-1.7,0c-1.3,0-2.4-0.2-3.2-0.5
		c-0.8-0.3-1.4-0.8-1.9-1.4c-0.5-0.6-0.9-1.4-1.3-2.3c-0.4-0.9-0.9-2.1-1.4-3.4c-2.5,2-4.9,3.8-7.1,5.3c-2.2,1.6-4.9,2.3-8.2,2.3
		c-2,0-3.8-0.5-5.5-1.6c-1.7-1.1-3.1-2.4-4.2-4.1c-1.2-1.7-2.1-3.5-2.7-5.5c-0.6-2-0.9-3.9-0.9-5.8
		C148.5,88.7,149.2,86.3,150.5,83.9z M162.7,93.3c2.4,3.1,5.2,5.6,8.4,7.5h0.8h0.7c0.4-0.3,1.3-1.1,2.4-2.2c1.2-1.2,1.9-2,2.1-2.4
		c0-1.2,0.1-3.4,0.3-6.5c0.2-3.1,0.3-6.4,0.5-10c0.2-3.5,0.3-6.9,0.4-10.1c0.1-3.2,0.2-5.3,0.3-6.6c0-0.4,0.1-1.2,0.2-2.4
		c0.2-1.2,0.3-2.4,0.5-3.7s0.3-2.5,0.4-3.6c0.1-1.1,0.2-1.9,0.3-2.3c-2.2-0.4-4.7-1.1-7.4-1.9c-2.7-0.8-5.3-1.2-7.7-1.2h-1.3
		c-0.2,0.1-0.6,0.3-1.2,0.6c-0.6,0.3-1.2,0.6-1.9,0.9c-0.7,0.3-1.3,0.7-1.8,1c-0.6,0.3-0.9,0.6-1.2,0.7c0.6,0.6,1.5,1.5,2.7,2.9
		c1.3,1.4,2.6,2.9,4.1,4.5c1.4,1.6,2.8,3.1,4.1,4.6c1.3,1.4,2.2,2.4,2.7,3c1,1.2,1.5,2.3,1.6,3.2c0.1,0.9,0.1,2.1,0.1,3.6
		c0,0.2,0,0.8-0.1,1.8c-0.1,1-0.1,1.7-0.1,2c-0.7-0.3-1.1-0.9-1.3-1.6c-0.2-0.7-0.4-1.4-0.6-2.1c-0.2-0.7-0.4-1.3-0.6-1.8
		c-0.2-0.6-0.7-0.8-1.3-0.8l-0.7,0.2c-0.7,0.6-1.5,1.3-2.6,2.1c-1.1,0.8-2,1.8-3,2.9c-0.9,1.1-1.7,2.3-2.4,3.5s-1,2.4-1,3.7
		C159.1,86.6,160.3,90.2,162.7,93.3z"/>
	<path class="st0" d="M199.9,14.2c-0.4-0.4-0.9-0.8-1.3-1.3c-0.4-0.5-0.8-1-1-1.4c-0.2-0.4-0.3-0.8-0.3-1.2c0-0.6,0.6-1.4,1.8-2.5
		s2.1-1.8,2.7-2c0.1-0.1,0.7-0.2,1.9-0.3c1.2-0.1,2-0.2,2.6-0.2c0.4,0,1.2,0.1,2.4,0.2s1.9,0.2,2.2,0.3c0.1,1,0.2,2.7,0.3,5.1
		c0.1,2.4,0.3,4.9,0.4,7.6c0.2,2.7,0.3,5.3,0.5,7.7c0.2,2.4,0.2,4.2,0.2,5.2c0,1.6,0,4,0.1,7.3c0.1,3.3,0.1,7.1,0.1,11.3
		c0,4.1,0,8.4,0,13c0,4.5,0,8.9,0,13.1c0,4.1,0,7.8-0.1,11.1c-0.1,3.3-0.1,5.8-0.1,7.3l6,6.2c-0.2,0.3-0.6,0.8-1.1,1.3
		c-0.5,0.6-1.1,1.2-1.7,1.8c-0.7,0.7-1.3,1.3-1.8,1.8c-0.6,0.6-1,0.9-1.3,1c-0.1,0.1-0.5,0.2-1.2,0.3c-0.7,0.1-1.3,0.1-1.7,0.1
		s-1.1,0-1.8-0.1c-0.8-0.1-1.2-0.1-1.3-0.3c-0.3-0.1-0.8-0.4-1.4-0.8c-0.6-0.4-1.2-0.9-1.7-1.4s-1-0.9-1.4-1.3
		c-0.4-0.4-0.6-0.7-0.6-0.9V14.8C200.7,14.8,200.3,14.6,199.9,14.2z"/>
	<path class="st0" d="M223.5,13.3l7.5-7.6h0.8h0.7c0.4,0.3,1.2,1.1,2.4,2.2s1.9,2,2.2,2.4V11v0.8l-7.6,7.5c-2.3-1.4-3.8-2.4-4.5-3
		l-1.5-1.5c0-0.1,0-0.3-0.1-0.4s-0.1-0.3-0.1-0.4C223.3,13.9,223.4,13.6,223.5,13.3z M229.9,89c-0.1-4.4-0.1-8.8-0.1-13.1
		c0-4.4-0.1-8.9-0.2-13.3c-0.2-4.4-0.7-8.8-1.6-13.1c-0.4,0-1.2-0.4-2.4-1.2c-1.2-0.8-1.9-1.4-2.1-1.8c-0.3-0.6-0.1-1.3,0.6-2.2
		c0.7-0.9,1.7-1.7,2.8-2.6c1.2-0.8,2.4-1.5,3.6-2.2c1.2-0.6,2.2-0.9,2.8-0.9c1.8,0,3.2,0.7,4.3,2c1.1,1.3,1.9,2.8,2.5,4.3
		c-0.2,7.9-0.3,16.1-0.2,24.8c0.1,8.6,0.7,17,1.7,24.9l4.5,4.5c0,0.1,0,0.2,0.1,0.4c0.1,0.2,0.1,0.3,0.1,0.4c0,0.8-0.3,1.6-1,2.3
		c-0.7,0.8-1.5,1.5-2.5,2.2c-1,0.7-2,1.2-3.1,1.7c-1.1,0.4-2,0.7-2.7,0.7h-1.3c-0.2-0.1-0.6-0.4-1.1-0.8c-0.5-0.4-1-0.9-1.5-1.4
		s-0.9-1-1.3-1.4c-0.4-0.4-0.6-0.8-0.8-1C230.3,97.8,230,93.4,229.9,89z M226.2,122c-0.3,0-0.6-0.2-0.7-0.7
		c-0.1-0.4,0.1-0.7,0.7-0.7c0.7,0,0.9,0.2,0.8,0.7C226.9,121.8,226.6,122,226.2,122z"/>
	<path class="st0" d="M249.6,10c-0.1-0.1,0-0.4,0.2-0.8s0.7-0.9,1.2-1.4s1-0.9,1.6-1.3c0.6-0.4,1.1-0.7,1.5-0.9
		c0.1,0,0.6-0.1,1.5-0.2c0.9-0.1,1.6-0.2,2.2-0.2c0.6,0,1.3,0.1,2.3,0.2c1,0.1,1.5,0.2,1.7,0.2c0.6,0.2,1.3,0.7,2.2,1.5
		c0.9,0.8,1.4,1.3,1.4,1.5v37.7c1.1-0.4,2.2-1.1,3.3-2c1.1-0.9,2.2-1.7,3.3-2.6c1.1-0.8,2.2-1.5,3.4-2.2c1.2-0.6,2.4-0.9,3.6-0.9
		c0.9,0,2,0.5,3.2,1.4c1.3,0.9,2.5,2,3.7,3.2c1.2,1.2,2.3,2.5,3.2,3.8c0.9,1.3,1.3,2.3,1.3,3c0,0.4-0.1,0.7-0.2,0.8
		c-0.8,0.8-1.3,1.3-1.5,1.5c-0.4,0.3-1.3,1-2.4,2c-1.2,1-2.4,2.1-3.6,3.2c-1.2,1.2-2.4,2.2-3.6,3.2c-1.2,1-2,1.7-2.4,2
		c-0.1,0.1-0.2,0.4-0.2,0.8c0,0.4,0.1,0.7,0.2,0.8c0.1,0.2,0.5,0.6,1.1,1.2c0.6,0.6,1.2,1.2,1.9,1.8c0.7,0.7,1.3,1.3,1.9,1.9
		s1,1,1.1,1.1c1.4,2,2.6,4.5,3.5,7.4c0.9,2.9,1.9,5.8,2.9,8.7s2.4,5.5,3.9,7.9c1.6,2.4,3.7,4,6.3,4.7c-1.4,1.6-3.1,3.2-5,5
		c-1.9,1.8-3.9,2.7-6.1,2.7c-1.7,0-3-0.5-4.1-1.5c-1.1-1-1.9-2.2-2.7-3.7c-0.7-1.4-1.3-3-1.8-4.6c-0.5-1.6-1-3-1.4-4.1
		c-0.7-1.7-1.3-3.5-1.9-5.5c-0.6-2-1.3-3.9-2.2-5.8c-0.8-1.9-1.9-3.6-3.1-5.1c-1.2-1.5-2.9-2.6-5-3.2v21.1c0.2,0.3,0.7,1.1,1.5,2.2
		s1.3,2,1.5,2.4c0.1,0.3,0.2,0.6,0.2,0.7c0,0.7-0.3,1.4-1,2.1s-1.4,1.4-2.3,2.1c-0.9,0.7-1.7,1.2-2.6,1.7c-0.8,0.5-1.4,0.8-1.7,0.9
		c-0.1,0-0.3,0-0.4,0.1c-0.2,0.1-0.3,0.1-0.4,0.1c-0.1,0-0.3-0.1-0.7-0.2c-0.9-0.6-2-1.4-3.3-2.5c-1.3-1.1-2-1.8-2-2V16.1L249.6,10z
		 M268,47.4c-1.2,0.8-1.7,1.4-1.7,2V69l12.1-12.1v-0.7v-0.8c-0.1-0.1-0.4-0.4-0.7-1c-0.4-0.5-0.8-1.2-1.3-1.8
		c-0.5-0.7-1-1.3-1.5-1.8c-0.5-0.6-0.9-1-1.1-1.3c-0.3-0.6-0.9-1.2-1.7-2c-0.8-0.8-1.2-1.2-1.3-1.2C270.1,46.2,269.1,46.6,268,47.4z
		"/>
</g>
</svg>
